<svg width="51" height="55" viewBox="0 0 51 55" xmlns="http://www.w3.org/2000/svg"><g fill="none" fill-rule="evenodd"><path d="m22.879 33.879-5.586-5.586a1 1 0 0 1 0-1.414l1.586-1.586a1 1 0 0 1 1.414 0l3.293 3.293 9.293-9.293a1 1 0 0 1 1.414 0l1.586 1.586a1 1 0 0 1 0 1.414L24.293 33.879a1 1 0 0 1-1.414 0Z" fill="#3483FA" fill-rule="nonzero"/><path d="M25.709 1.412s-7 10-24 7c0 0-6 29.355 24 45.178 30-15.823 24-45.178 24-45.178-17 3-24-7-24-7Z" stroke="#474747" stroke-width="1.413" stroke-linecap="round" stroke-linejoin="round"/></g></svg>