<svg width="56" height="49" xmlns="http://www.w3.org/2000/svg"><g transform="translate(1)" fill="none" fill-rule="evenodd"><rect stroke="#484848" stroke-width="1.382" y="1" width="54" height="9.722" rx="1.843"/><path d="M2 10.722h49.09v36.327c0 .678-.55 1.228-1.228 1.228H3.23c-.68 0-1.23-.55-1.23-1.227V10.722Z" stroke="#484848" stroke-width="1.382"/><path fill="#4E89E5" d="m22 21.52 1.637-1.65 1.636 1.65 1.636-1.65 1.636 1.65 1.637-1.65 1.636 1.65V10H22z"/><path fill="#4C8CF1" d="M22 .3h9.818v10.422H22z"/><path d="M25.873 43.947H7.455A.469.469 0 0 1 7 43.466v-9.984c0-.266.204-.482.455-.482h18.418c.25 0 .454.216.454.482v9.984a.468.468 0 0 1-.454.481" stroke="#484848" stroke-width="1.229" fill="#FFF"/><path d="M11.547 38.58a.881.881 0 0 1-.688-.327.86.86 0 0 1-.192-.543c0-.481.394-.87.88-.87.487 0 .88.389.88.87s-.393.87-.88.87m0-3.15c-1.273 0-2.305 1.02-2.305 2.28 0 .461.145.886.384 1.245l1.921 2.551 1.927-2.55a2.25 2.25 0 0 0 .378-1.246c0-1.26-1.032-2.28-2.305-2.28m4.652 1.216h6.148a.608.608 0 0 0 0-1.215h-6.148a.608.608 0 1 0 0 1.215Zm0 2.43h4.307a.608.608 0 0 0 0-1.215h-4.307a.608.608 0 1 0 0 1.215Zm0 2.43h4.92a.608.608 0 0 0 0-1.215H16.2a.608.608 0 1 0 0 1.215Z" fill="#484848"/></g></svg>