<svg xmlns="http://www.w3.org/2000/svg" viewBox="0 0 156 58"><g fill="none" fill-rule="evenodd"><path fill="#EF9132" d="M0 0h156.002v58.001H0z"/><g fill="#FFF" fill-rule="nonzero"><path d="M85.154 43.268c.22-.099.401-.297.401-.589 0-.38-.324-.582-.715-.627v-.01c.22-.045.556-.204.556-.54 0-.203-.083-.346-.226-.434-.143-.093-.325-.127-.594-.127h-1.243v.121c.336.028.369.055.369.457v1.293c0 .401-.033.429-.39.456v.127h1.094c.275 0 .539-.034.748-.127Zm-1.023-2.03c0-.131.01-.142.28-.142s.523.131.523.456c0 .336-.237.456-.5.456h-.303v-.77Zm0 1.59v-.677h.28c.352 0 .65.16.65.55 0 .374-.237.54-.55.54-.265 0-.38-.055-.38-.413Zm2.789.44-.127-.01c-.16-.012-.21-.067-.143-.254.055-.165.148-.423.187-.511h.764l.187.445c.11.258.06.303-.093.32l-.105.01v.127h1.111v-.127c-.242-.017-.346-.038-.478-.363l-.82-2.03-.137.034-.814 1.93c-.16.38-.253.402-.495.43v.126h.962v-.127Zm.285-1.798h.011l.32.836h-.639l.308-.836Zm2.58 1.589a5.058 5.058 0 0 1-.033-.704v-.803h.005l1.678 1.87h.176v-1.44c0-.397.016-.59.033-.71.022-.132.138-.193.368-.204v-.126h-1.05v.126c.275.016.396.072.418.204.017.121.033.313.033.71v.758h-.01l-1.635-1.798h-.676v.126c.374.028.462.11.462.55v.737c0 .396-.017.589-.033.704-.022.132-.138.198-.369.21v.126h1.046v-.127c-.276-.017-.397-.077-.413-.21Zm4.945.297c.06-.143.142-.479.203-.688l-.138-.022c-.203.43-.412.65-.82.65-.588 0-.972-.474-.972-1.178 0-.616.33-1.078.934-1.078.38 0 .655.138.77.606l.138-.017c-.028-.248-.044-.446-.072-.654a3.08 3.08 0 0 0-.775-.1c-.836 0-1.49.534-1.49 1.32 0 .627.45 1.265 1.44 1.265.303 0 .666-.076.782-.104Zm2.002-2.481c-.583 0-1.31.424-1.31 1.348 0 .594.462 1.237 1.315 1.237.643 0 1.298-.456 1.298-1.32 0-.709-.511-1.265-1.303-1.265Zm.049 2.42c-.544 0-.863-.489-.863-1.204 0-.67.319-1.05.764-1.05.55 0 .858.583.858 1.21 0 .77-.336 1.045-.76 1.045Zm5.434.061c.06-.143.143-.479.204-.688l-.138-.022c-.204.43-.412.65-.82.65-.588 0-.973-.474-.973-1.178 0-.616.33-1.078.935-1.078.38 0 .654.138.77.606l.138-.017c-.028-.248-.045-.446-.072-.654a3.09 3.09 0 0 0-.776-.1c-.836 0-1.49.534-1.49 1.32 0 .627.45 1.265 1.44 1.265.304 0 .667-.076.782-.104Zm2.86-.605-.143-.017a.884.884 0 0 1-.198.374c-.088.088-.264.121-.495.121-.247 0-.363-.005-.44-.043-.077-.04-.104-.16-.104-.374v-.6h.434c.347 0 .358.016.402.319h.137v-.809h-.137c-.044.281-.055.303-.402.303h-.434v-.78c0-.138.005-.138.16-.138h.307c.264 0 .385.054.44.11.055.055.1.16.138.352l.137-.011a20.12 20.12 0 0 1-.044-.616h-1.941v.126c.346.022.374.05.374.457v1.282c0 .407-.028.434-.413.462v.126h2.08c.032-.105.114-.501.142-.644Zm.859.308c-.022.132-.138.198-.369.21v.126h1.045v-.127c-.275-.017-.396-.077-.412-.21a5.072 5.072 0 0 1-.033-.703v-.803h.005l1.678 1.87h.176v-1.44c0-.397.016-.59.033-.71.022-.132.137-.193.368-.204v-.126h-1.05v.126c.275.016.396.072.418.204.016.121.033.313.033.71v.758h-.011l-1.634-1.798h-.676v.126c.374.028.462.11.462.55v.737c0 .396-.017.589-.033.704Zm3.498.209v.127h1.27v-.127c-.396-.027-.429-.055-.429-.456v-1.705h.248c.236 0 .368.033.44.104.06.06.099.16.143.385l.137-.01a16.155 16.155 0 0 1-.049-.738h-.072c-.06.071-.082.093-.187.093h-1.705c-.104 0-.148-.01-.209-.093h-.071c-.006.192-.033.462-.05.748h.132c.05-.209.1-.308.149-.363.06-.066.17-.126.495-.126h.17v1.705c0 .401-.033.429-.412.456Zm3.601 0c-.351-.027-.385-.055-.385-.456v-.473h.166c.154 0 .192.016.27.148.093.154.247.423.379.6.154.203.352.346.808.34h.083l.016-.11a.71.71 0 0 1-.286-.164 2.594 2.594 0 0 1-.324-.397 7.326 7.326 0 0 1-.358-.544c.308-.11.534-.302.534-.638a.568.568 0 0 0-.27-.506c-.16-.093-.374-.126-.627-.126h-1.193v.126c.34.028.373.05.373.457v1.287c0 .401-.033.429-.39.456v.127h1.204v-.127Zm-.385-2.013c0-.154.012-.16.259-.16.303 0 .566.166.566.529 0 .17-.06.379-.203.472a.702.702 0 0 1-.369.088h-.253v-.93Zm3.784 2.002-.105.011v.127h1.111v-.127c-.242-.017-.346-.038-.478-.363l-.82-2.03-.137.034-.814 1.93c-.16.38-.253.402-.495.43v.126h.962v-.127l-.126-.01c-.16-.012-.21-.067-.143-.254a8.94 8.94 0 0 1 .186-.511h.765l.187.445c.11.258.06.303-.093.32Zm-.798-.951.308-.836h.011l.319.836h-.638Zm4.406.434-.144-.017c-.055.176-.12.303-.186.369-.089.099-.264.137-.48.137-.203 0-.318-.005-.395-.043-.077-.04-.105-.15-.105-.364v-1.298c0-.412.033-.434.413-.456v-.127h-1.227v.127c.352.022.385.044.385.456v1.282c0 .412-.027.44-.412.462v.127h2.007c.034-.105.116-.529.143-.655Zm-35.497 2.752H83.34v.126c.33.028.363.05.363.457v1.287c0 .401-.033.429-.396.456v.127h1.078c.88 0 1.617-.402 1.617-1.32 0-.347-.143-.632-.33-.803-.264-.242-.66-.33-1.128-.33Zm-.022 2.288c-.346 0-.39-.083-.39-.396v-1.513c0-.104.01-.16.038-.18.027-.023.138-.045.275-.045.666 0 1.062.314 1.062 1.083 0 .633-.308 1.05-.985 1.05Zm3.922-.121c-.088.088-.264.121-.495.121-.247 0-.363-.006-.44-.044-.077-.038-.105-.16-.105-.374v-.6h.435c.346 0 .358.017.402.32h.137v-.809h-.137c-.044.28-.055.302-.402.302h-.435v-.78c0-.138.006-.138.16-.138h.308c.264 0 .385.055.44.11.055.055.099.16.137.352l.138-.01a19.55 19.55 0 0 1-.044-.617H86.6v.127c.346.021.374.05.374.456v1.282c0 .407-.027.434-.412.462v.126h2.08c.032-.104.114-.5.142-.643l-.143-.016a.887.887 0 0 1-.198.373Zm4.043-.017c-.088.1-.264.138-.479.138-.203 0-.319-.006-.396-.044-.077-.038-.105-.149-.105-.363v-1.298c0-.413.033-.435.413-.456v-.127h-1.227v.127c.352.021.385.043.385.456v1.281c0 .413-.027.44-.412.463v.126h2.008c.032-.104.115-.528.142-.654l-.142-.017c-.055.176-.121.302-.187.368Zm2.964-.187-.82-2.03-.137.034-.814 1.93c-.16.38-.253.402-.495.43v.126h.962v-.127l-.126-.01c-.16-.012-.21-.067-.143-.254a9.39 9.39 0 0 1 .187-.511h.764l.187.445c.11.258.06.303-.093.32l-.105.01v.126h1.111v-.126c-.242-.016-.346-.038-.478-.363Zm-1.325-.6.307-.835h.011l.32.836h-.638Zm5.582.452a7.465 7.465 0 0 1-.358-.545c.308-.11.534-.302.534-.637a.568.568 0 0 0-.27-.506c-.16-.094-.374-.127-.627-.127h-1.193v.127c.34.027.374.05.374.456v1.287c0 .402-.033.429-.39.457v.126h1.204v-.126c-.352-.028-.385-.055-.385-.457v-.473h.165c.154 0 .192.017.27.149.093.154.247.423.379.6.154.203.352.346.809.34h.082l.016-.11a.722.722 0 0 1-.286-.165 2.634 2.634 0 0 1-.324-.396Zm-.49-.66a.701.701 0 0 1-.368.088h-.253v-.93c0-.154.01-.16.258-.16.303 0 .567.166.567.529 0 .17-.06.38-.204.473Zm3.317 1.012c-.088.088-.263.121-.495.121-.247 0-.363-.006-.44-.044-.077-.038-.104-.16-.104-.374v-.6h.434c.347 0 .358.017.402.32h.137v-.809h-.137c-.044.28-.055.302-.402.302h-.434v-.78c0-.138.005-.138.16-.138h.307c.264 0 .386.055.44.11.055.055.1.16.138.352l.137-.01a19.227 19.227 0 0 1-.043-.617h-1.942v.127c.346.021.374.05.374.456v1.282c0 .407-.028.434-.412.462v.126h2.079c.033-.104.115-.5.143-.643l-.143-.016a.894.894 0 0 1-.199.373Zm2.106-2.167h-1.214v.126c.33.028.362.05.362.457v1.287c0 .401-.033.429-.385.456v.127h1.243v-.127c-.395-.027-.429-.055-.429-.456V46.9l.32.077c.049 0 .115 0 .208-.011.446-.055.82-.308.82-.765 0-.5-.38-.71-.924-.71Zm-.109 1.309c-.115 0-.231-.028-.314-.055v-.908c0-.187.006-.192.281-.192.352 0 .594.17.594.555 0 .5-.347.6-.561.6Zm3.432-1.182c.275.016.396.071.418.203.016.121.033.313.033.71v.247c0 .594-.187 1.007-.737 1.007-.484 0-.699-.363-.699-.963v-.743c0-.406.033-.434.38-.461v-.127h-1.2v.127c.364.027.391.054.391.461v.853c0 .44.1.715.303.875.193.154.457.203.71.203.307 0 .583-.104.753-.275.22-.22.297-.555.297-.864v-.34c0-.397.016-.589.033-.71.022-.132.137-.192.369-.203v-.127h-1.051v.127Zm.115-1.255c-.076-.044-.132-.055-.186.039l-.639.863.094.056.808-.7c.1-.081.105-.147-.005-.214l-.072-.044Zm2.965 2.239v-.011c.22-.044.556-.204.556-.54 0-.203-.083-.346-.226-.434-.143-.093-.325-.126-.594-.126h-1.243v.12c.335.028.369.056.369.457v1.293c0 .401-.034.429-.39.456v.127h1.094c.275 0 .539-.033.747-.127.22-.099.402-.296.402-.588 0-.38-.325-.583-.715-.627Zm-.71-.814c0-.132.011-.143.28-.143.27 0 .523.132.523.456 0 .336-.236.457-.5.457h-.303v-.77Zm.38 2.002c-.264 0-.38-.055-.38-.413v-.676h.28c.353 0 .65.16.65.55 0 .374-.237.539-.55.539Zm3.498-.149c-.088.1-.264.138-.478.138-.204 0-.32-.006-.397-.044-.076-.038-.104-.149-.104-.363v-1.298c0-.413.033-.435.413-.456v-.127h-1.227v.127c.352.021.385.043.385.456v1.281c0 .413-.027.44-.412.463v.126h2.007c.033-.104.116-.528.143-.654l-.143-.017c-.055.176-.12.302-.187.368Zm.781-2.023c.352.027.385.05.385.456v1.287c0 .402-.033.429-.385.457v.126h1.199v-.126c-.352-.028-.385-.055-.385-.457v-1.287c0-.407.033-.429.385-.456v-.127h-1.199v.127Zm3.273 2.227c-.589 0-.974-.473-.974-1.177 0-.616.33-1.078.935-1.078.38 0 .655.137.77.605l.138-.017c-.028-.248-.044-.445-.072-.654-.137-.033-.407-.1-.775-.1-.836 0-1.49.534-1.49 1.32 0 .628.45 1.266 1.44 1.266.303 0 .666-.077.78-.105.062-.143.144-.478.205-.687l-.138-.022c-.203.429-.412.649-.82.649Zm3.597-.391-.82-2.03-.137.034-.814 1.93c-.16.38-.253.402-.495.43v.126h.962v-.127l-.126-.01c-.16-.012-.21-.067-.143-.254a9.21 9.21 0 0 1 .187-.511h.764l.187.445c.11.258.06.303-.093.32l-.105.01v.126h1.111v-.126c-.242-.016-.346-.038-.478-.363Zm-1.326-.6.308-.835h.011l.319.836h-.638Zm5.775.6-.82-2.03-.137.034-.814 1.93c-.16.38-.253.402-.495.43v.126h.963v-.127l-.127-.01c-.159-.012-.209-.067-.143-.254a8.87 8.87 0 0 1 .187-.511h.764l.188.445c.11.258.06.303-.094.32l-.104.01v.126h1.11v-.126c-.241-.016-.345-.038-.478-.363Zm-1.325-.6.308-.835h.01l.32.836h-.638Zm4.207.452a7.476 7.476 0 0 1-.357-.545c.308-.11.534-.302.534-.637a.569.569 0 0 0-.27-.506c-.16-.094-.375-.127-.627-.127h-1.194v.127c.341.027.374.05.374.456v1.287c0 .402-.033.429-.39.457v.126h1.204v-.126c-.352-.028-.385-.055-.385-.457v-.473h.165c.154 0 .193.017.27.149.093.154.247.423.38.6.153.203.352.346.808.34h.082l.017-.11a.72.72 0 0 1-.286-.165 2.593 2.593 0 0 1-.325-.396Zm-.49-.66a.7.7 0 0 1-.368.088h-.253v-.93c0-.154.011-.16.259-.16.302 0 .566.166.566.529 0 .17-.06.38-.203.473Zm2.911.253c.468.038.484.066.484.319v.385c0 .214-.203.242-.395.242-.743 0-1.035-.594-1.035-1.172 0-.676.397-1.083.941-1.083.357 0 .687.115.797.616l.138-.011c-.033-.325-.05-.545-.066-.671a3.2 3.2 0 0 0-.77-.1c-.792 0-1.535.458-1.535 1.32 0 .749.616 1.266 1.513 1.266.296 0 .62-.088.88-.154a1.162 1.162 0 0 1-.039-.342v-.296c0-.27.017-.28.248-.32v-.126h-1.16v.127Zm3.542.759c-.088.088-.263.121-.495.121-.247 0-.362-.006-.44-.044-.076-.038-.104-.16-.104-.374v-.6h.434c.347 0 .358.017.402.32h.138v-.809h-.138c-.044.28-.055.302-.402.302h-.434v-.78c0-.138.005-.138.16-.138h.307c.265 0 .386.055.44.11.056.055.1.16.138.352l.137-.01a20.809 20.809 0 0 1-.044-.617h-1.941v.127c.346.021.374.05.374.456v1.282c0 .407-.028.434-.413.462v.126h2.079c.033-.104.116-.5.144-.643l-.144-.016a.882.882 0 0 1-.198.373Zm2.641-2.04c.275.016.396.071.418.203.017.121.033.313.033.71v.759h-.01l-1.635-1.8h-.676v.128c.374.027.462.11.462.55v.736c0 .396-.017.59-.033.705-.022.132-.138.198-.368.208v.127h1.045v-.127c-.275-.016-.396-.077-.413-.208a5.02 5.02 0 0 1-.033-.705v-.802h.006l1.677 1.87h.176V46.53c0-.396.017-.588.033-.709.022-.132.138-.192.369-.203v-.127h-1.05v.127Zm3.745-.221c-.06.072-.082.094-.187.094h-1.704c-.105 0-.15-.011-.21-.094h-.071c-.005.193-.033.462-.05.748h.132c.05-.209.1-.308.149-.363.06-.066.17-.126.495-.126h.17v1.705c0 .401-.032.429-.412.456v.126h1.27v-.126c-.395-.027-.428-.055-.428-.456v-1.705h.247c.237 0 .369.033.44.104.06.06.099.16.143.385l.138-.011a15.569 15.569 0 0 1-.05-.737h-.072Zm.698.221c.352.027.385.05.385.456v1.287c0 .402-.033.429-.384.457v.126h1.199v-.126c-.353-.028-.385-.055-.385-.457v-1.287c0-.407.032-.429.385-.456v-.127h-1.2v.127Zm3.609 0c.275.016.396.071.418.203.016.121.033.313.033.71v.759h-.011l-1.634-1.8h-.677v.128c.374.027.463.11.463.55v.736c0 .396-.017.59-.033.705-.023.132-.138.198-.369.208v.127h1.045v-.127c-.275-.016-.396-.077-.412-.208a5.108 5.108 0 0 1-.033-.705v-.802h.005l1.678 1.87h.176V46.53a5.3 5.3 0 0 1 .033-.709c.022-.132.137-.192.368-.203v-.127h-1.05v.127Zm3.537 1.836-.82-2.03-.137.034-.814 1.93c-.16.38-.253.402-.495.43v.126h.963v-.127l-.127-.01c-.16-.012-.209-.067-.143-.254.055-.165.148-.423.187-.511h.765l.187.445c.11.258.06.303-.094.32l-.104.01v.126h1.11v-.126c-.242-.016-.346-.038-.478-.363Zm-1.326-.6.308-.835h.012l.318.836h-.638ZM73.059 35.737a8.692 8.692 0 1 0 0 17.385 8.692 8.692 0 0 0 0-17.385Zm0 17.18a8.488 8.488 0 0 1 0-16.975 8.488 8.488 0 1 1 0 16.975Z"/><path d="M73.06 36.19a8.239 8.239 0 1 0-.001 16.478 8.239 8.239 0 0 0 0-16.478Zm6.892 12.37c-.06.099-.11.113-.217.113-.249 0-.213-.453-.461-.453-.32 0-.225.437-.44.437-.234 0-.164-.284-.435-.284-.13 0-.426.19-.71.19-.154 0-.225-.072-.225-.26 0-.214-.2-.308-.413-.308h-.876c-.52 0-.78-.32-.84-.26-.153.153.249.449.663.638.397.181.511.502.603.502.07 0 .087-.072.087-.112 0-.069-.019-.186-.158-.307 0-.053.023-.064.059-.064.402 0 .33.537.981.537.245 0 .485-.123.592-.123.33 0 .26.679.627.679.106 0 .128-.056.128-.186 0-.204-.034-.425.084-.425.119 0 .243.225.597.225-.18.25-.36.504-.576.724-.118.12-.222.185-.387.185-.556 0-.45-.464-.863-.464-.211 0-.39.035-.485.13-.06.06.023.166.106.166.414 0 .284.574.603.574.225 0 .308-.178.308-.072 0 .118-.095.408-.473.408-.487 0-.287-.378-1.017-.378-.26 0-.532-.249-.532-.509 0-.118.177.012.532.012.189 0 .307-.035.307-.13s-.139-.133-.307-.133c-.662 0-.543-.458-1.076-.802-.25-.16-.474-.33-.615-.544a1.203 1.203 0 0 1-.225-.567c-.036-.358-.201-.769-.58-.769-.118 0-.118.119-.118.343 0 .331-.225.45-.13.544.095.095.236-.141.379-.141.212 0 .094.39.543.84.528.526.995.456.995 1.37 0 .175-.072.332-.19.332-.213 0-.154-.402-.154-.65 0-.16-.126-.378-.355-.462-.044-.016-.141-.047-.141.048 0 .118.295.189.295.413 0 .2-.092.451-.081.65.033.62 1.125.269 1.125.857 0 .15.09.362.273.486a8.009 8.009 0 0 1-3.7.904 7.553 7.553 0 0 1-1.709-.183s.356-.206.356-.703c0-.467-.102-1.2-.102-1.668 0-.483.09-.816.397-1.077a82.81 82.81 0 0 0 1.056-.922c.11-.098.209-.212.209-.295 0-.035-.068-.042-.098-.017-.777.632-1.735 1.164-2.705 1.164-.58 0-1.405-.177-1.405-.756 0-.308.273-.402.273-.674 0-.119-.098-.195-.216-.195-.146 0-.308.012-.308-.125 0-.118.107-.144.248-.144.426 0 .438.156.64.156.046 0 .076-.047.072-.09-.014-.123-.191-.194-.327-.203-.11-.008-.377-.29-.62-.357.106-.118.141-.331.044-.445.146.01.153.086.303.086.232 0 .38-.15.38-.387 0-.177-.137-.366-.304-.399-.036-.006-.093-.007-.093.027 0 .054.01.04.082.106a.34.34 0 0 1 .105.267c0 .095-.068.146-.17.146-.111 0-.265-.17-.478-.17-.107 0-.19.095-.217.194-.22-.087-.426-.123-.426-.264 0-.142.131-.314.25-.65.24-.687.611-1.325.611-1.583 0-.128-.076-.121-.076-.24 0-.094.145-.526.296-.677.09-.09.355-.15.615.11.243.244.52.272.639.39.1.1.317.497.449.497.047 0 .094.012.094-.024 0-.043-.088-.07-.186-.188-.128-.158-.24-.533-.465-.533-.26 0-.425-.532-.65-.532-.383 0-.538-.284-.538-.46 0-.155.113-.226.196-.226.07 0 .073.048.073.118 0 .122.013.127.093.207.065.065.266.136.354.183.106.06.141.155.189.201.047.048.125.009.153.036.054.051.086.157.143.213.106.106.248.095.366.213.142.142.095.401.296.603.084.084.16.145.236.213.078.069.115.215.178.268.145.12.26.122.307.075.036-.036-.093-.052-.184-.154-.057-.063-.055-.15-.128-.237-.077-.09-.197-.189-.28-.295-.163-.205-.14-.44-.315-.615-.13-.13-.286-.142-.392-.248-.107-.108-.06-.178-.167-.284-.107-.107-.692-.236-.497-.431.118-.119.308.147.378.076.048-.047.005-.07.06-.125.04-.04.176.07.23.07.054 0 .08-.05.08-.073 0-.203-.534-.343-.665-.343-.06 0-.08-.05-.08-.12 0-.15-.145-.44-.145-.532 0-.081.154-.142.154-.225 0-.07-.065-.062-.118-.035-.048.023-.249.123-.249.26 0 .225.154.26.154.532 0 .153-.235.142-.402.201-.2.07-.355.178-.355.39 0 .237.26.248.177.331-.07.071-.437-.106-.437-.402 0-.378.39-.45.39-.508 0-.06-.32-.178-.32-.485 0-.297.36-.308.36-.815.043 0 .185.14.185.259 0 .248-.284.378-.284.603 0 .2.236.343.343.343.047 0 .094-.012.094-.095 0-.118-.177-.143-.177-.354 0-.32.745-.485.745-.781 0-.236-.284-.236-.284-.414 0-.2.249-.153.249-.153s-.024.047-.024.153c0 .154.296.213.296.414 0 .13-.19.284-.13.343.059.06.319-.213.402-.13.094.095-.544.367-.544.627 0 .083.082.378.166.378.046 0 .079-.024.077-.118 0-.072-.03-.106-.03-.26 0-.19.58-.334.58-.639 0-.248-.604-.493-.604-.686 0-.165.034-.307.26-.342.094-.015.13 0 .13.047 0 .106-.118.13-.118.295 0 .225.603.296.603.64 0 .117.086.154.225.187.354.084 1.014.179 1.04.179.027 0 .051-.038.051-.072 0-.041-.02-.08-.145-.108-.294-.064-.922-.168-.922-.223 0-.07.204-.185.661-.378.533-.225 1.217-.485 1.81-.485.7 0 2.389.674 2.389.776 0 .123.225.217.26.253.201.201.426.686.556.97.043.094.118.13.13.13.077-.003.07-.13.07-.13 0-.237-.472-.911-.472-.982 0-.05.047-.098.047-.165 0-.072-.03-.118-.13-.166-.769-.366-1.869-.686-1.869-.79 0-.073.414-.073.414-.274 0-.113-.887.165-1.395.165-.461 0-1.173.154-1.173-.347 0-.502.712-.643 1.214-.643 1.422 0 2.664.475 3.43 1.262.633.65 1.137 2.46 1.137 3.203 0 .787-.216 1.52-.263 2.06-.027.32.16.508.445.508.307 0 .272-.118.544-.118.15 0 .248.094.248.236 0 .32.094.52.355.52.13 0 .319-.117.319-.342 0-.119-.047-.284-.178-.284-.13 0 .083.39-.153.39-.142 0-.118-.13-.118-.284 0-.284-.237-.449-.485-.449-.284 0-.355.118-.532.106-.107 0-.213-.093-.208-.272.012-.382.26-.952.26-2.07 0-.886-.526-2.648-1.146-3.31-.808-.865-2.135-1.368-3.655-1.368-.692 0-1.482.197-1.482.855 0 .185.093.323.215.454.036.038.054.135-.016.153-.344.088-1.005.355-1.324.556-.107-.106-.533-.295-.533-.343 0-.07.095-.165.095-.343 0-.177-.083-.39-.26-.39-.024 0-.06.026-.06.047 0 .032.038.074.038.107 0 .022-.016.028-.061.035-.07.012-.213.083-.379.272-.07-.007-.216-.025-.307.016a.35.35 0 0 0-.2.327c0 .189.27.248.27.414 0 .106-.283.208-.283.208-.059-.137-.188-.527-.698-.48a.065.065 0 0 0-.058.064c0 .113.146.22.146.363 0 .176-.372.32-.372.684 0 .227.119.343.248.462-.176.07-.301.306-.301.52 0 .333.204.504.373.602.142.084.2.213.16.344-.069.216-.191.494-.191.638 0 .098.046.152.046.249 0 .213-.11.322-.252.662-.255.608-.26.769-.594 1.431-.06.117-.025.296.062.358.095.068.426.245.552.245h.11c.166 0 .201.236.07.358-.048.044-.086.109-.086.162 0 .142.111.201.111.284 0 .07-.038.118-.038.201 0 .379.403.295.403.437 0 .166-.182.237-.182.556 0 .875.975 1.002 1.73 1.071.57.052.619.162.639.691.026.697.26 1.23.26 1.81a.792.792 0 0 1-.162.472c-.112.127-.272.152-.427.108-3.455-.989-5.851-4.1-5.851-7.729a8.035 8.035 0 0 1 16.069 0 7.945 7.945 0 0 1-1.142 4.13Z"/><path d="M79.886 46.02c0-.331-.388-.39-.388-.39-.153-.024-.283.024-.082.139.082.047.248.121.248.25 0 .167-.142.19-.32.261-.063.026-.13.048-.13.148 0 .1.155.124.485.181.198.034.362.085.362.239 0 .133-.08.234-.03.234.106 0 .234-.092.234-.234 0-.32-.258-.402-.684-.473 0 0 .305-.047.305-.355Zm-8.843-5.31c.165 0 .236-.2.413-.2.202 0 .284.14.45.14.497 0 .662-.2 1.064-.2.532 0 .556.591 1.017.591.142 0 .568-.047.698-.047.402 0 .473.355.816.355.154 0 .343-.095.343-.201 0-.036-.118.011-.355.011-.319 0-.294-.354-.804-.354-.09 0-.46.047-.591.047-.428 0-.39-.662-1.124-.662-.366 0-.602.236-1.064.236-.142 0-.201-.154-.45-.154-.165 0-.271.225-.413.225-.154 0-.166-.154-.45-.154-.153 0-.378.166-.378.308 0 .119.012.32.13.32.095 0 .107-.048.107-.13 0-.071-.024-.107-.024-.19 0-.07.078-.118.166-.118.13 0 .141.177.449.177Z"/><path d="M72.758 41.58c.206 0 .44.159.62.244.172.08.385.17.538.17.686 0 1.006 1.345 1.739 1.345.037 0 .095-.015.095-.063 0-.07-.118-.13-.296-.212-.111-.052-.19-.168-.19-.213 0-.083.06-.071.131-.071.142 0 .213-.012.213-.095 0-.047-.054-.075-.213-.118-.26-.071-.366-.462-.71-.618-.017-.008-.124-.056-.124-.103 0-.048.598-.072.952-.072.745 0 .65 1.358 1.602 1.358.361 0 .669.405.669.287 0-.143-.284-.45-.663-.45-.62 0-.71-1.413-1.608-1.413-.426 0-1.265.118-1.597.118-.311 0-1.046-.301-1.046-.384 0-.061.22-.018.275-.074.033-.032.013-.103-.064-.158a.465.465 0 0 0-.264-.082c-.216 0-.406.184-.565.308-.192.15-.41.33-.724.33-.27 0-.388-.017-.622-.075-.048-.011-.123-.066-.168-.022-.073.074-.026.151.112.21.16.067.335.136.678.136.446 0 .784-.284 1.23-.284Zm4.919 3.884c-.118-.27-.245-.62-.39-.887-.213-.39-.52-.65-.852-.65-.066 0-.236.012-.236.095 0 .118.379-.13.863.615.175.268.289.801.367 1.052.06.19.154.32.106.367-.082.083-.2-.035-.283-.213-.1-.215-.308-.497-.438-.497-.072 0-.13-.012-.13.048 0 .12.229.22.142.307-.065.066-.165-.082-.52-.272a1.799 1.799 0 0 0-.592-.177c-.069-.01-.13.007-.13.07 0 .06.074.094.13.107.153.035.576.3.71.45.602.673 1.594 1.087 2.46 1.253.232.044.307-.082.307-.118 0-.06-.036-.06-.189-.118-.356-.137-.783-.424-.65-.556.082-.083.425-.012.508-.095.042-.041-.051-.18-.201-.331a.667.667 0 0 0-.414-.154c-.213 0-.466-.062-.568-.296Z"/><path d="M74.422 44.39c.25.137.891.153 1.213.178.126.01.221.021.27.037.069.023.164.073.24.103.103.04.178.03.178-.048 0-.118-.174-.254-.365-.3a2.155 2.155 0 0 0-.32-.043c-.298-.024-.872-.037-1.103-.179a1.228 1.228 0 0 1-.38-.392c-.043-.07-.126-.151-.2-.077-.15.15.216.583.467.721Z"/><path d="M75.537 44.063c.189 0 .443-.1.443-.184 0-.062-.049-.073-.094-.073-.066 0-.222.02-.35.02-.958 0-1.093-1.762-2.4-1.762-.039 0-.12.002-.145-.04l-.007-.012-.008-.014c-.027-.054-.062-.1-.23-.1-.131 0-.295.064-.436.122-.07.029-.26.117-.333.117-.075 0-.122-.006-.152-.005-.043.001-.067.021-.067.069 0 .09.236.194.396.194.101 0 .202-.04.298-.065.119-.032.279-.064.53-.064 1.292 0 1.349 1.797 2.555 1.797Z"/><path d="M79.782 47.238c-.366 0-.426.295-.887.295-.674 0-.816-.236-1.596-.236-.308 0-.52.19-.982.19-.305 0-.981-.26-.981-.592 0-.02.05-.063.106-.024.237.166.284.175.378.178.073.002.13-.024.13-.083 0-.036-.254-.193-.402-.296-.307-.212-.804-.461-.804-.638 0-.06.06-.069.118-.067.193.007.556.15.674.15.048 0 .095 0 .095-.083 0-.08-.365-.237-.734-.324a4.426 4.426 0 0 1-.449-.127c-.086-.031-.118-.058-.118-.14 0-.048.06-.095.13-.095h.722c.153 0 .248.012.248-.06 0-.106-.248-.177-.497-.177-.556 0-.989.016-1.324-.32-.355-.354-.438-1.158-.733-1.454-.32-.319-.568-.236-.568-.354 0-.083.26-.107.367-.107.2 0 .349.166.437.166.071 0 .071-.082.071-.095 0-.142-.33-.295-.508-.295-.213 0-.707.059-.863.059-.272 0-.344-.213-.462-.213-.072 0-.087.023-.082.083.01.14.283.366.544.508.19.104.751.289.875.402.154.142.07.225-.024.225-.106 0-.165-.048-.296-.048-.059 0-.084.036-.084.083 0 .226.794.544.794 1.207 0 .41-.2.642-.2.98 0 .285.148.388.153.391.094.058.142.024.142-.059 0-.059-.107-.107-.107-.33 0-.261.177-.639.174-.65.032-.087.04-.226.122-.226.202 0 .19.461.367.461.095 0 .236-.048.236.024 0 .142-.497.319-.378.438.083.082.39-.19.46-.19.084 0 .122.08.037.166-.076.075-.402.389-.402.508 0 .095.26.248.354.248.118 0 .166-.118.284-.118.388 0 .895.693 1.242.899.267.159.496.213.757.213.271 0 .52-.109.756-.109.344 0 .698.322 1.005.322.166 0 .095-.276.26-.276.185 0 .368.281.568.281.206 0 .655-.402.876-.402.207 0 .26.148.26.35 0 .07.213.011.213-.226 0-.224-.154-.413-.474-.413Zm-8.716-5.936c.144 0 .364.08.45.08.106 0 .367-.08.367-.14 0-.106-.248-.023-.391-.1-.154-.084-.248-.16-.426-.16-.094 0-.225.01-.284.068-.066.067-.189.027-.189.098 0 .094.152.156.272.154.101-.002.06 0 .201 0Z"/><path d="M75.776 46.096c-.137.137.481.5.481.584 0 .215.142.326.355.326.06 0 .116-.028.116-.08 0-.232-.859-.923-.952-.83Zm-3.87-2.169c-.053-.048-.107.011-.106.059 0 .033.002.064.035.095.121.11.296.425.296.875 0 .236-.248.685-.248.981 0 .509.413.627.496.544.071-.071-.307-.2-.307-.544 0-.33.248-.732.248-.981 0-.088 0-.19-.016-.308-.01-.07.05-.086.083-.047.1.117.146.222.146.355 0 .33-.166.508-.166.65 0 .047-.012.059.036.059.07 0 .343-.331.343-.71 0-.425-.498-.722-.84-1.028Zm-1.242-.074c-.264-.154-1.224-.431-1.224-.51 0-.082.09-.087.266-.087.068 0 .154.005.154-.044 0-.06-.338-.208-.52-.208-.225 0-.252.134-.252.244a.96.96 0 0 0 .245.6c.047.048.018.467.194.467.108 0 .204-.065.204-.285 0-.073.608.05.608.122 0 .039-.066.066-.066.096 0 .051.005.064.095.064.166 0 .481-.086.481-.267 0-.076-.066-.123-.185-.192Zm-1.22-.198c0-.076.121-.04.262.007.225.074.312.102.39.136.084.037.21.074.21.147 0 .085-.862-.195-.862-.29Zm-.01.745c-.047.047-.042.127-.042.272 0 .07.04.052.156-.02.276-.17.336-.199.286-.248-.039-.04-.349-.055-.4-.004Zm4.459 4.34c0-.272.149-.509.094-.509-.142 0-.307.26-.307.485 0 .33.127.445.236.555.272.272.604.154.78.332.19.19.072.457.072.662 0 .591.363.811.78.981.32.13.2.509.308.509.19 0 .296-.166.296-.343 0-.156-.102-.32-.308-.402-.32-.128-.828-.166-.828-.745 0-.213.095-.46.095-.65 0-.272-.172-.379-.568-.379-.417 0-.65-.186-.65-.496Z"/></g><path d="m11.244 23.459 2.383-6.426H12.7l-1.835 5.3-1.827-5.3h-.923l2.379 6.426h.75Zm3.601-5.578c.16 0 .28-.044.362-.133a.466.466 0 0 0 .124-.33.482.482 0 0 0-.124-.336c-.082-.091-.203-.137-.362-.137-.159 0-.279.046-.36.137a.487.487 0 0 0-.12.335c0 .133.04.243.12.331.081.089.201.133.36.133Zm.402 5.578v-4.775h-.817v4.775h.817Zm3.062.088c.545 0 .988-.129 1.329-.386.341-.257.512-.6.512-1.026 0-.256-.061-.473-.183-.651-.123-.178-.31-.33-.563-.457a4.403 4.403 0 0 0-.99-.326c-.408-.092-.69-.187-.846-.287a.495.495 0 0 1-.234-.446.61.61 0 0 1 .252-.507c.167-.13.4-.195.697-.195.288 0 .527.081.717.243.19.162.285.355.285.578h.82a1.33 1.33 0 0 0-.505-1.072c-.337-.28-.776-.42-1.317-.42-.515 0-.938.136-1.269.407-.33.27-.496.601-.496.993 0 .235.058.438.174.609.116.17.296.317.538.44.243.124.571.23.985.319.413.088.703.193.869.315.166.122.25.294.25.514a.576.576 0 0 1-.28.501c-.188.125-.436.188-.745.188-.335 0-.605-.08-.81-.24a.845.845 0 0 1-.328-.652h-.817c0 .283.084.545.25.788.166.243.396.432.69.567.295.135.633.203 1.015.203Zm3.39-5.666c.159 0 .28-.044.362-.133a.466.466 0 0 0 .123-.33.482.482 0 0 0-.123-.336c-.083-.091-.203-.137-.362-.137-.16 0-.28.046-.36.137a.487.487 0 0 0-.121.335c0 .133.04.243.121.331.08.089.2.133.36.133Zm.401 5.578v-4.775h-.816v4.775h.816Zm2.701.088c.203 0 .412-.03.627-.088v-.662a1.977 1.977 0 0 1-.389.053c-.19 0-.326-.048-.406-.144-.08-.095-.119-.239-.119-.43v-2.961h.892v-.631h-.892v-1.156h-.816v1.156h-.87v.631h.87v2.961c0 .406.092.72.278.94.185.22.46.331.825.331Zm3.711-5.57 1.183-1.297h-.988l-.852 1.298h.657Zm-.68 5.57c.527 0 .98-.197 1.36-.591.03.241.068.409.115.503h.856v-.07c-.112-.26-.168-.608-.168-1.047v-2.197c-.012-.483-.173-.862-.485-1.137s-.743-.412-1.293-.412c-.347 0-.666.064-.956.194-.29.13-.519.305-.688.527a1.12 1.12 0 0 0-.254.69h.821c0-.208.099-.386.296-.533a1.19 1.19 0 0 1 .732-.22c.333 0 .584.084.755.253.17.17.256.396.256.682v.375h-.795c-.685 0-1.217.137-1.595.412-.378.276-.567.662-.567 1.159 0 .409.15.746.452 1.013.302.266.688.4 1.159.4Zm.12-.71c-.268 0-.487-.073-.658-.217-.17-.144-.256-.344-.256-.6 0-.585.5-.878 1.5-.878h.64v.98a1.193 1.193 0 0 1-.498.516 1.44 1.44 0 0 1-.728.199Zm6.377.622v-3.403c.112-.23.268-.414.468-.556.2-.14.432-.212.697-.212.326 0 .567.083.721.248.155.164.234.419.237.763v3.16h.816v-3.156c-.009-1.138-.518-1.707-1.527-1.707a1.74 1.74 0 0 0-1.43.688l-.026-.6h-.773v4.775h.817Zm5.72.088c.614 0 1.08-.187 1.398-.56l.018.472h.776v-4.775h-.816v3.473c-.206.465-.62.697-1.244.697-.589 0-.883-.362-.883-1.085v-3.085h-.816v3.107c.003.58.137 1.017.403 1.313.267.295.654.443 1.163.443Zm5.414 0c.8 0 1.4-.307 1.8-.922l-.498-.389a1.84 1.84 0 0 1-.525.468c-.2.118-.445.177-.733.177-.406 0-.74-.145-1.004-.435-.263-.29-.4-.67-.412-1.14h3.234v-.34c0-.763-.172-1.348-.516-1.757-.344-.409-.827-.613-1.447-.613-.38 0-.732.105-1.057.315-.326.21-.579.502-.76.874-.18.372-.27.795-.27 1.269v.15c0 .712.202 1.28.608 1.705.406.426.933.638 1.58.638Zm1.046-2.913h-2.392c.053-.432.191-.768.415-1.008.223-.24.5-.36.83-.36.34 0 .611.114.812.342.2.228.311.55.335.965v.061Zm3.517 2.913c.544 0 .987-.129 1.328-.386.342-.257.512-.6.512-1.026 0-.256-.06-.473-.183-.651-.122-.178-.31-.33-.562-.457a4.403 4.403 0 0 0-.991-.326c-.408-.092-.69-.187-.845-.287a.495.495 0 0 1-.234-.446.61.61 0 0 1 .251-.507c.168-.13.4-.195.698-.195.288 0 .527.081.717.243.19.162.284.355.284.578h.821a1.33 1.33 0 0 0-.505-1.072c-.337-.28-.776-.42-1.317-.42-.515 0-.938.136-1.27.407-.33.27-.496.601-.496.993 0 .235.059.438.175.609.116.17.295.317.538.44.243.124.57.23.984.319.414.088.703.193.87.315a.602.602 0 0 1 .249.514.576.576 0 0 1-.28.501c-.187.125-.435.188-.744.188-.335 0-.605-.08-.81-.24a.845.845 0 0 1-.328-.652h-.817c0 .283.083.545.25.788.166.243.396.432.69.567a2.41 2.41 0 0 0 1.015.203Zm4.298 0c.203 0 .412-.03.627-.088v-.662a1.977 1.977 0 0 1-.388.053c-.191 0-.327-.048-.406-.144-.08-.095-.12-.239-.12-.43v-2.961h.892v-.631h-.891v-1.156h-.817v1.156h-.87v.631h.87v2.961c0 .406.093.72.278.94.186.22.46.331.825.331Zm2.375-.088v-3.39c.19-.455.554-.683 1.09-.683.144 0 .278.01.401.03v-.759a.834.834 0 0 0-.362-.061c-.49 0-.87.213-1.138.64l-.013-.552h-.795v4.775h.817Zm3.715.088c.527 0 .98-.197 1.36-.591.03.241.067.409.114.503h.857v-.07c-.112-.26-.168-.608-.168-1.047v-2.197c-.012-.483-.174-.862-.486-1.137-.311-.275-.742-.412-1.293-.412-.347 0-.665.064-.955.194-.29.13-.52.305-.688.527a1.12 1.12 0 0 0-.254.69h.82c0-.208.1-.386.296-.533a1.19 1.19 0 0 1 .733-.22c.332 0 .584.084.754.253.171.17.256.396.256.682v.375h-.794c-.685 0-1.217.137-1.595.412-.378.276-.567.662-.567 1.159 0 .409.15.746.452 1.013.302.266.688.4 1.158.4Zm.12-.71c-.268 0-.487-.073-.658-.217-.17-.144-.256-.344-.256-.6 0-.585.5-.878 1.5-.878h.64v.98a1.204 1.204 0 0 1-.498.516 1.44 1.44 0 0 1-.728.199Zm7.18.622 1.13-3.619 1.16 3.619h.662l1.39-4.775h-.816l-.918 3.65-1.134-3.65h-.658l-1.112 3.574-.94-3.574h-.812l1.386 4.775h.662Zm7.153.088c.8 0 1.4-.307 1.8-.922l-.498-.389a1.84 1.84 0 0 1-.525.468c-.2.118-.444.177-.733.177-.406 0-.74-.145-1.004-.435-.263-.29-.4-.67-.412-1.14h3.235v-.34c0-.763-.173-1.348-.517-1.757-.344-.409-.827-.613-1.447-.613-.38 0-.732.105-1.057.315-.325.21-.578.502-.76.874-.18.372-.27.795-.27 1.269v.15c0 .712.202 1.28.608 1.705.406.426.933.638 1.58.638Zm1.046-2.913h-2.392c.053-.432.191-.768.415-1.008.224-.24.5-.36.83-.36.341 0 .612.114.812.342.2.228.312.55.335.965v.061Zm3.95 2.913c.565 0 1.015-.221 1.35-.664.336-.443.503-1.03.503-1.759v-.07c0-.762-.165-1.362-.496-1.8-.331-.44-.786-.658-1.366-.658-.58 0-1.034.204-1.364.613V16.68h-.816v6.779h.75l.04-.552c.33.427.796.64 1.399.64Zm-.203-.693c-.53 0-.92-.25-1.17-.75v-2.065c.236-.5.623-.75 1.161-.75.403 0 .712.151.927.454.214.303.322.733.322 1.289 0 .609-.109 1.065-.327 1.368-.217.303-.522.454-.913.454Zm-69.28 9.643 1.13-3.619 1.161 3.619h.662l1.39-4.775h-.816l-.918 3.65-1.134-3.65h-.658l-1.112 3.574-.94-3.574h-.812l1.386 4.775h.662Zm6.792 0 1.13-3.619 1.16 3.619h.663l1.39-4.775h-.817l-.917 3.65-1.135-3.65h-.657l-1.112 3.574-.94-3.574h-.812l1.385 4.775h.662Zm6.792 0 1.13-3.619 1.16 3.619h.662l1.39-4.775h-.816l-.918 3.65-1.134-3.65h-.657l-1.113 3.574-.94-3.574h-.812l1.386 4.775h.662Zm5.693.048c.168 0 .295-.045.382-.137a.474.474 0 0 0 .13-.34.501.501 0 0 0-.13-.352c-.087-.094-.214-.142-.382-.142s-.294.048-.377.142a.511.511 0 0 0-.126.353c0 .135.042.248.126.34.083.09.21.136.377.136Zm3.407.04c.615 0 1.081-.187 1.399-.56l.017.472h.777v-4.775h-.816v3.473c-.206.465-.621.697-1.245.697-.588 0-.882-.362-.882-1.085v-3.085h-.817v3.107c.003.58.138 1.017.404 1.313.266.295.654.443 1.163.443Zm5.19 0c.544 0 .987-.129 1.328-.386.341-.258.512-.6.512-1.026 0-.256-.061-.473-.183-.651-.122-.178-.31-.33-.563-.457a4.403 4.403 0 0 0-.99-.326c-.408-.092-.69-.187-.846-.287a.495.495 0 0 1-.234-.446.61.61 0 0 1 .252-.507c.168-.13.4-.195.697-.195.288 0 .527.081.717.243.19.162.285.355.285.578h.82a1.33 1.33 0 0 0-.505-1.072c-.336-.28-.776-.42-1.317-.42-.515 0-.938.136-1.269.407-.33.27-.496.601-.496.993 0 .235.058.438.174.609.116.17.296.317.539.44.242.124.57.23.984.319.413.088.703.193.87.315a.603.603 0 0 1 .248.514.576.576 0 0 1-.28.501c-.187.125-.435.188-.743.188-.336 0-.606-.08-.81-.24a.845.845 0 0 1-.329-.652h-.816c0 .283.083.545.249.788.166.243.396.432.69.567.295.135.633.203 1.016.203Zm4.452 0c.615 0 1.082-.187 1.4-.56l.017.472h.777v-4.775h-.817v3.473c-.206.465-.62.697-1.244.697-.589 0-.883-.362-.883-1.085v-3.085h-.816v3.107c.003.58.137 1.017.404 1.313.266.295.653.443 1.162.443Zm4.908 0c.526 0 .98-.197 1.359-.591.03.24.068.409.115.503h.856v-.07c-.112-.26-.168-.608-.168-1.047v-2.197c-.012-.483-.174-.862-.485-1.137-.312-.275-.743-.412-1.293-.412-.348 0-.666.064-.956.194-.29.13-.52.305-.688.527a1.12 1.12 0 0 0-.254.69h.82c0-.208.1-.386.296-.533a1.19 1.19 0 0 1 .733-.22c.333 0 .584.084.755.253.17.169.256.396.256.682v.375h-.795c-.685 0-1.217.137-1.595.412-.378.275-.567.662-.567 1.159 0 .409.15.746.452 1.013.302.266.688.399 1.159.399Zm.119-.71c-.268 0-.487-.073-.658-.217-.17-.144-.256-.344-.256-.6 0-.585.5-.878 1.5-.878h.64v.98a1.198 1.198 0 0 1-.498.516 1.44 1.44 0 0 1-.728.199Zm4.14.622v-3.39c.19-.455.554-.683 1.09-.683.143 0 .277.01.4.03v-.759a.834.834 0 0 0-.361-.061c-.491 0-.87.213-1.139.64l-.013-.552h-.794v4.775h.816Zm2.727-5.578c.158 0 .279-.044.361-.133a.466.466 0 0 0 .124-.33.482.482 0 0 0-.124-.336c-.082-.091-.203-.137-.361-.137-.16 0-.28.046-.36.137a.487.487 0 0 0-.121.335c0 .133.04.243.12.331.082.089.202.133.36.133Zm.4 5.578v-4.775h-.816v4.775H55Zm3.266.088c.43 0 .81-.103 1.14-.309.332-.206.586-.493.764-.863.178-.369.267-.786.267-1.25v-.058c0-.747-.2-1.346-.602-1.796-.402-.45-.928-.675-1.578-.675-.42 0-.795.101-1.123.304a2.058 2.058 0 0 0-.768.865 2.82 2.82 0 0 0-.276 1.262v.058c0 .74.201 1.337.603 1.787.401.45.926.675 1.573.675Zm0-.666c-.412 0-.74-.16-.987-.481-.245-.321-.368-.746-.368-1.276 0-.597.124-1.056.37-1.377.248-.32.573-.48.976-.48.412 0 .742.162.99.487.25.325.374.75.374 1.273 0 .586-.122 1.04-.367 1.366a1.172 1.172 0 0 1-.988.488Zm4.951.666c.545 0 .987-.129 1.329-.386.34-.258.511-.6.511-1.026 0-.256-.06-.473-.183-.651-.122-.178-.31-.33-.562-.457a4.403 4.403 0 0 0-.991-.326c-.408-.092-.69-.187-.845-.287a.495.495 0 0 1-.234-.446.61.61 0 0 1 .252-.507c.167-.13.4-.195.697-.195.288 0 .527.081.717.243.19.162.285.355.285.578h.82a1.33 1.33 0 0 0-.505-1.072c-.337-.28-.776-.42-1.317-.42-.515 0-.938.136-1.269.407-.331.27-.496.601-.496.993 0 .235.058.438.174.609.116.17.296.317.538.44.243.124.571.23.984.319.414.088.704.193.87.315.166.122.25.294.25.514a.576.576 0 0 1-.281.501c-.187.125-.435.188-.744.188-.335 0-.605-.08-.81-.24a.845.845 0 0 1-.328-.652h-.817c0 .283.083.545.25.788.166.243.396.432.69.567a2.41 2.41 0 0 0 1.015.203Zm4.122-.088v-4.144h1.02v-.631h-1.02v-.503c0-.289.072-.51.216-.664.144-.155.349-.232.614-.232.156 0 .303.013.441.04l.044-.662a2.143 2.143 0 0 0-.56-.075c-.5 0-.887.14-1.161.419-.274.28-.41.675-.41 1.187v.49h-.755v.63h.755v4.145h.816Zm2.12-5.578c.159 0 .28-.044.362-.133a.466.466 0 0 0 .123-.33.482.482 0 0 0-.123-.336c-.083-.091-.203-.137-.362-.137-.16 0-.279.046-.36.137a.487.487 0 0 0-.121.335c0 .133.04.243.121.331.081.089.2.133.36.133Zm.401 5.578v-4.775h-.816v4.775h.816Zm2.123 0v-3.403c.112-.23.268-.415.468-.556.2-.141.432-.212.697-.212.327 0 .567.083.722.248.154.164.233.419.236.763v3.16h.816V29.34c-.009-1.138-.518-1.707-1.527-1.707a1.74 1.74 0 0 0-1.43.688l-.026-.6h-.772v4.775h.816Zm5.644.088c.527 0 .98-.197 1.36-.591.029.24.067.409.114.503h.856v-.07c-.111-.26-.167-.608-.167-1.047v-2.197c-.012-.483-.174-.862-.486-1.137s-.743-.412-1.293-.412c-.347 0-.665.064-.955.194-.29.13-.52.305-.689.527a1.125 1.125 0 0 0-.253.69h.82c0-.208.099-.386.296-.533a1.19 1.19 0 0 1 .733-.22c.332 0 .584.084.754.253.171.169.256.396.256.682v.375h-.794c-.686 0-1.217.137-1.595.412-.378.275-.567.662-.567 1.159 0 .409.15.746.452 1.013.301.266.688.399 1.158.399Zm.12-.71c-.268 0-.487-.073-.658-.217-.17-.144-.256-.344-.256-.6 0-.585.5-.878 1.5-.878h.64v.98a1.204 1.204 0 0 1-.498.516c-.23.132-.473.199-.729.199Zm4.139.622v-3.403c.112-.23.268-.415.468-.556.2-.141.432-.212.697-.212.327 0 .567.083.722.248.154.164.233.419.236.763v3.16h.816V29.34c-.009-1.138-.518-1.707-1.527-1.707a1.74 1.74 0 0 0-1.43.688l-.026-.6h-.772v4.775h.816Zm6.086.088c.323 0 .63-.074.92-.22a1.86 1.86 0 0 0 .695-.592 1.48 1.48 0 0 0 .282-.781h-.772a.932.932 0 0 1-.362.662 1.176 1.176 0 0 1-.763.265c-.421 0-.745-.149-.971-.446-.227-.297-.34-.72-.34-1.271v-.154c0-.565.114-.997.342-1.296.228-.298.55-.448.964-.448.309 0 .569.1.779.298.21.199.327.453.35.761h.773c-.023-.511-.212-.928-.567-1.248-.354-.321-.8-.481-1.335-.481-.435 0-.813.1-1.132.3-.319.2-.564.48-.735.843a2.88 2.88 0 0 0-.256 1.24v.136c0 .754.192 1.347.576 1.781.384.434.901.651 1.552.651Zm3.3-5.666c.16 0 .28-.044.362-.133a.466.466 0 0 0 .124-.33.482.482 0 0 0-.124-.336c-.082-.091-.203-.137-.362-.137-.158 0-.278.046-.36.137a.487.487 0 0 0-.12.335c0 .133.04.243.12.331.082.089.202.133.36.133Zm.402 5.578v-4.775h-.816v4.775h.816Zm3.288.088c.8 0 1.4-.307 1.8-.922l-.498-.389a1.84 1.84 0 0 1-.525.468c-.2.118-.445.177-.733.177-.406 0-.74-.145-1.004-.435-.263-.29-.4-.67-.413-1.14h3.235v-.34c0-.763-.172-1.348-.516-1.757-.344-.409-.827-.613-1.448-.613-.38 0-.732.105-1.057.315-.325.21-.578.502-.759.874-.18.372-.271.795-.271 1.269v.15c0 .712.203 1.28.609 1.705.406.425.933.638 1.58.638Zm1.046-2.913h-2.392c.053-.432.191-.768.415-1.008.223-.24.5-.36.83-.36.34 0 .611.114.811.342.2.228.312.55.336.965v.061Zm2.577 2.825v-3.39c.191-.455.555-.683 1.09-.683.144 0 .278.01.402.03v-.759a.834.834 0 0 0-.362-.061c-.492 0-.871.213-1.139.64l-.013-.552h-.794v4.775h.816Zm4.201.088c.43 0 .81-.103 1.14-.309.332-.206.586-.493.764-.863.178-.369.267-.786.267-1.25v-.058c0-.747-.2-1.346-.602-1.796-.402-.45-.927-.675-1.578-.675-.42 0-.795.101-1.123.304a2.058 2.058 0 0 0-.768.865 2.82 2.82 0 0 0-.275 1.262v.058c0 .74.2 1.337.602 1.787.402.45.926.675 1.573.675Zm0-.666c-.412 0-.74-.16-.986-.481-.246-.321-.369-.746-.369-1.276 0-.597.124-1.056.371-1.377.247-.32.572-.48.975-.48.412 0 .742.162.991.487.249.325.373.75.373 1.273 0 .586-.122 1.04-.366 1.366a1.172 1.172 0 0 1-.989.488Zm4.952.666c.544 0 .987-.129 1.328-.386.341-.258.512-.6.512-1.026 0-.256-.061-.473-.183-.651-.122-.178-.31-.33-.563-.457a4.403 4.403 0 0 0-.99-.326c-.408-.092-.69-.187-.846-.287a.495.495 0 0 1-.234-.446.61.61 0 0 1 .252-.507c.168-.13.4-.195.697-.195.288 0 .528.081.717.243.19.162.285.355.285.578h.82a1.33 1.33 0 0 0-.505-1.072c-.336-.28-.776-.42-1.317-.42-.515 0-.938.136-1.269.407-.33.27-.496.601-.496.993 0 .235.058.438.174.609.116.17.296.317.539.44.242.124.57.23.984.319.413.088.703.193.87.315a.603.603 0 0 1 .248.514.576.576 0 0 1-.28.501c-.187.125-.434.188-.743.188-.336 0-.606-.08-.81-.24a.845.845 0 0 1-.329-.652h-.816c0 .283.083.545.249.788.166.243.396.432.69.567.295.135.633.203 1.016.203Zm3.424-.04c.168 0 .295-.045.382-.137a.474.474 0 0 0 .13-.34.501.501 0 0 0-.13-.352c-.087-.094-.214-.142-.382-.142s-.293.048-.377.142a.511.511 0 0 0-.126.353c0 .135.042.248.126.34.084.09.21.136.377.136Zm3.672 1.832c.618 0 1.11-.178 1.476-.534.366-.356.55-.843.55-1.461v-4.66h-.746l-.04.53c-.327-.412-.781-.618-1.364-.618-.568 0-1.024.22-1.368.66-.344.44-.516 1.031-.516 1.776 0 .776.173 1.39.518 1.84.346.45.798.675 1.357.675.565 0 1.011-.188 1.338-.565v.41c0 .407-.111.721-.334.945-.222.224-.531.335-.929.335-.506 0-.934-.216-1.284-.648l-.423.49c.173.255.425.457.754.604.33.147.667.22 1.01.22Zm.07-2.485c-.397 0-.706-.154-.926-.461-.221-.307-.331-.73-.331-1.269 0-.606.112-1.063.335-1.372.224-.31.534-.464.931-.464.5 0 .876.228 1.126.684v2.18c-.242.468-.62.702-1.135.702Zm5.146.693c.43 0 .81-.103 1.14-.309.332-.206.586-.493.764-.863.178-.369.267-.786.267-1.25v-.058c0-.747-.2-1.346-.602-1.796-.402-.45-.928-.675-1.578-.675-.42 0-.795.101-1.123.304a2.058 2.058 0 0 0-.768.865 2.82 2.82 0 0 0-.276 1.262v.058c0 .74.201 1.337.603 1.787.401.45.926.675 1.573.675Zm0-.666c-.412 0-.74-.16-.986-.481-.246-.321-.369-.746-.369-1.276 0-.597.124-1.056.37-1.377.248-.32.573-.48.976-.48.412 0 .742.162.991.487.249.325.373.75.373 1.273 0 .586-.122 1.04-.366 1.366a1.172 1.172 0 0 1-.989.488Zm5.384.666c.565 0 1.015-.221 1.35-.664.336-.443.503-1.03.503-1.759v-.07c0-.762-.165-1.363-.496-1.8-.331-.44-.786-.658-1.366-.658-.58 0-1.034.204-1.363.613v-2.529h-.817v6.779h.75l.04-.552c.33.427.796.64 1.399.64Zm-.203-.693c-.53 0-.92-.25-1.17-.75v-2.065c.236-.5.623-.75 1.161-.75.403 0 .712.15.927.454.215.303.322.733.322 1.289 0 .609-.109 1.065-.327 1.368-.217.303-.522.454-.913.454Zm3.605.653c.168 0 .295-.045.382-.137a.474.474 0 0 0 .13-.34.501.501 0 0 0-.13-.352c-.087-.094-.214-.142-.382-.142-.167 0-.293.048-.377.142a.511.511 0 0 0-.126.353c0 .135.042.248.126.34.084.09.21.136.377.136Zm3.332.04c.527 0 .98-.197 1.36-.591.029.24.067.409.114.503h.856v-.07c-.111-.26-.167-.608-.167-1.047v-2.197c-.012-.483-.174-.862-.486-1.137s-.743-.412-1.293-.412c-.347 0-.665.064-.955.194-.29.13-.52.305-.689.527a1.125 1.125 0 0 0-.253.69h.82c0-.208.099-.386.296-.533a1.19 1.19 0 0 1 .733-.22c.332 0 .584.084.754.253.171.169.256.396.256.682v.375h-.794c-.686 0-1.217.137-1.595.412-.378.275-.567.662-.567 1.159 0 .409.15.746.452 1.013.301.266.688.399 1.158.399Zm.12-.71c-.268 0-.487-.073-.658-.217-.17-.144-.256-.344-.256-.6 0-.585.5-.878 1.5-.878h.64v.98a1.204 1.204 0 0 1-.498.516c-.23.132-.473.199-.729.199Zm4.139.622v-3.39c.191-.455.554-.683 1.09-.683.144 0 .278.01.402.03v-.759a.834.834 0 0 0-.362-.061c-.492 0-.871.213-1.139.64l-.013-.552h-.795v4.775h.817ZM11.671 14.144c.876 0 1.568-.235 2.073-.706.506-.47.76-1.11.76-1.918V6.652h-1.529v4.919c-.013.9-.448 1.35-1.304 1.35-.41 0-.73-.111-.962-.333-.232-.221-.348-.574-.348-1.058V6.652H8.84v4.924c.01.798.269 1.426.776 1.883.508.457 1.193.685 2.056.685Zm6.76 0c.82 0 1.471-.182 1.955-.546.484-.363.726-.865.726-1.505 0-.575-.198-1.055-.594-1.441-.396-.386-1.027-.709-1.893-.97-.47-.142-.827-.294-1.069-.456-.242-.163-.363-.364-.363-.604 0-.257.104-.465.31-.622.206-.157.496-.236.868-.236.386 0 .685.094.898.282.213.187.32.45.32.789h1.523c0-.443-.114-.84-.343-1.188a2.247 2.247 0 0 0-.962-.81 3.321 3.321 0 0 0-1.41-.286c-.525 0-.998.088-1.42.264-.42.176-.744.42-.969.733-.225.313-.337.67-.337 1.069 0 .768.42 1.378 1.258 1.832.308.166.726.334 1.254.505.528.17.893.333 1.096.487.203.154.305.375.305.663 0 .264-.102.47-.305.616-.203.147-.485.221-.847.221-.975 0-1.462-.408-1.462-1.223h-1.528c0 .477.123.897.368 1.259.246.362.602.647 1.069.855.467.208.984.312 1.553.312Zm6.472 0c.877 0 1.568-.235 2.074-.706.506-.47.759-1.11.759-1.918V6.652h-1.528v4.919c-.014.9-.449 1.35-1.305 1.35-.41 0-.73-.111-.962-.333-.231-.221-.347-.574-.347-1.058V6.652H22.07v4.924c.01.798.27 1.426.777 1.883.507.457 1.192.685 2.055.685Zm5.076-.101.508-1.523h2.67l.512 1.523h1.62l-2.767-7.39H31.11l-2.751 7.39h1.619Zm2.766-2.757h-1.847l.918-2.766.93 2.766Zm4.756 2.757v-2.706h1.213l1.386 2.706h1.634v-.072l-1.599-3.02c.444-.2.774-.467.993-.804.218-.337.327-.757.327-1.261 0-.711-.237-1.26-.71-1.65-.474-.39-1.148-.584-2.02-.584h-2.747v7.39h1.523Zm1.228-3.94h-1.228V7.887h1.223c.41 0 .714.1.911.3.198.199.297.473.297.821 0 .342-.104.61-.314.805-.21.194-.506.292-.889.292Zm5.503 3.94v-7.39h-1.523v7.39h1.523Zm4.344.101c.62 0 1.169-.149 1.647-.447.48-.297.847-.72 1.104-1.269.257-.548.386-1.186.386-1.913v-.33c0-.724-.131-1.363-.393-1.916-.263-.553-.633-.978-1.112-1.274-.479-.296-1.026-.444-1.642-.444-.616 0-1.163.148-1.642.444-.479.296-.85.72-1.111 1.274-.263.553-.394 1.194-.394 1.921v.366c.004.71.137 1.339.401 1.885.264.547.636.967 1.117 1.261.48.295 1.027.442 1.64.442Zm0-1.249c-.52 0-.92-.208-1.198-.624-.277-.416-.416-1.002-.416-1.756v-.36c.004-.769.144-1.351.422-1.749.277-.398.671-.596 1.182-.596.514 0 .91.2 1.188.604.277.402.416.991.416 1.766v.36c-.003.768-.142 1.353-.416 1.754-.274.4-.667.601-1.178.601Zm6.924 1.249c.818 0 1.47-.182 1.954-.546.484-.363.725-.865.725-1.505 0-.575-.197-1.055-.593-1.441-.396-.386-1.027-.709-1.894-.97-.47-.142-.826-.294-1.068-.456-.242-.163-.363-.364-.363-.604 0-.257.103-.465.31-.622.206-.157.495-.236.868-.236.385 0 .685.094.898.282.213.187.32.45.32.789h1.522c0-.443-.114-.84-.342-1.188a2.247 2.247 0 0 0-.962-.81 3.321 3.321 0 0 0-1.411-.286c-.524 0-.997.088-1.419.264-.42.176-.744.42-.97.733-.224.313-.337.67-.337 1.069 0 .768.42 1.378 1.26 1.832.307.166.725.334 1.253.505.528.17.893.333 1.096.487.203.154.305.375.305.663 0 .264-.102.47-.305.616-.203.147-.485.221-.847.221-.975 0-1.462-.408-1.462-1.223H52.51c0 .477.123.897.368 1.259.245.362.601.647 1.068.855.467.208.985.312 1.554.312Zm7.821-.101v-3.02h2.924v-1.23H63.32V7.886h3.29V6.652h-4.813v7.39h1.523Zm5.792 0v-7.39H67.59v7.39h1.523Zm2.933 0V9.18l2.964 4.863h1.523v-7.39h-1.517v4.872l-2.97-4.873h-1.522v7.39h1.522Zm6.812 0 .507-1.523h2.67l.513 1.523h1.619l-2.766-7.39H79.99l-2.751 7.39h1.619Zm2.766-2.757h-1.847l.918-2.766.93 2.766Zm4.756 2.757V9.18l2.964 4.863h1.523v-7.39h-1.518v4.872L86.38 6.652h-1.523v7.39h1.523Zm8.644.101c.866 0 1.564-.228 2.094-.685.53-.457.823-1.083.88-1.878h-1.522c-.034.45-.167.782-.399.997-.232.215-.583.322-1.053.322-.521 0-.903-.184-1.145-.553-.242-.369-.363-.952-.363-1.75v-.56c.007-.764.137-1.328.389-1.692.252-.364.632-.546 1.14-.546.466 0 .814.108 1.042.323.229.215.361.56.399 1.038h1.522c-.08-.826-.382-1.467-.903-1.924-.521-.457-1.208-.685-2.06-.685-.617 0-1.157.144-1.622.434-.466.29-.824.704-1.074 1.246-.25.541-.376 1.167-.376 1.878v.452c0 1.113.272 1.988.815 2.626.543.638 1.288.957 2.236.957Zm5.593-.101v-7.39h-1.522v7.39h1.522Zm6.365 0v-1.224h-3.431v-1.98h2.924V9.648h-2.924V7.886h3.421V6.652h-4.944v7.39h4.954Zm2.416 0v-2.706h1.213l1.386 2.706h1.634v-.072l-1.598-3.02c.443-.2.774-.467.992-.804.218-.337.327-.757.327-1.261 0-.711-.237-1.26-.71-1.65-.474-.39-1.148-.584-2.02-.584h-2.746v7.39h1.522Zm1.229-3.94h-1.229V7.887h1.223c.41 0 .714.1.912.3.197.199.296.473.296.821 0 .342-.104.61-.314.805-.21.194-.506.292-.888.292Zm6.816 4.041c.62 0 1.168-.149 1.647-.447.479-.297.847-.72 1.104-1.269.257-.548.386-1.186.386-1.913v-.33c0-.724-.131-1.363-.393-1.916-.263-.553-.633-.978-1.112-1.274-.479-.296-1.026-.444-1.642-.444-.616 0-1.163.148-1.642.444-.479.296-.85.72-1.112 1.274-.262.553-.393 1.194-.393 1.921v.366c.003.71.137 1.339.401 1.885.264.547.636.967 1.117 1.261.48.295 1.027.442 1.64.442Zm0-1.249c-.52 0-.92-.208-1.198-.624-.277-.416-.416-1.002-.416-1.756v-.36c.003-.769.144-1.351.421-1.749.278-.398.672-.596 1.183-.596.514 0 .91.2 1.188.604.277.402.416.991.416 1.766v.36c-.003.768-.142 1.353-.416 1.754-.274.4-.667.601-1.178.601Zm6.923 1.249c.82 0 1.47-.182 1.955-.546.483-.363.725-.865.725-1.505 0-.575-.198-1.055-.593-1.441-.396-.386-1.027-.709-1.894-.97-.47-.142-.826-.294-1.068-.456-.242-.163-.363-.364-.363-.604 0-.257.103-.465.31-.622.206-.157.495-.236.868-.236.385 0 .685.094.898.282.213.187.32.45.32.789h1.522c0-.443-.114-.84-.342-1.188a2.247 2.247 0 0 0-.962-.81 3.321 3.321 0 0 0-1.411-.286 3.65 3.65 0 0 0-1.419.264c-.421.176-.744.42-.97.733-.224.313-.337.67-.337 1.069 0 .768.42 1.378 1.259 1.832.308.166.726.334 1.254.505.528.17.893.333 1.096.487.203.154.305.375.305.663 0 .264-.102.47-.305.616-.203.147-.486.221-.848.221-.974 0-1.461-.408-1.461-1.223h-1.528c0 .477.122.897.368 1.259.245.362.601.647 1.068.855.467.208.985.312 1.553.312Z" fill="#FFF" fill-rule="nonzero"/></g></svg>