<svg width="1585" height="1097" viewBox="0 0 1585 1097" fill="none" xmlns="http://www.w3.org/2000/svg">
<g clip-path="url(#clip0_109_2)">
<path d="M196.229 1796.06H219.547V2262.41H131.272V1852.69C131.272 1839.36 159.586 1796.06 196.229 1796.06V1796.06ZM679.24 1899.32C635.936 1899.32 602.624 1917.64 579.307 1954.28V1796.06H569.314C526.009 1796.06 502.692 1819.38 491.033 1839.36V1836.03V2104.18C491.033 2209.11 545.995 2262.41 655.922 2262.41C765.848 2260.75 819.147 2200.79 819.147 2084.2C819.147 1962.61 772.511 1902.65 679.24 1899.32V1899.32ZM652.591 2185.8C602.625 2185.8 577.641 2149.15 579.307 2079.2C582.638 2010.91 605.955 1977.6 654.257 1977.6C702.558 1977.6 725.876 2010.91 729.207 2079.2C729.207 2150.82 702.558 2185.8 652.591 2185.8ZM870.779 2079.2C874.11 1965.94 929.073 1902.65 1047.33 1902.65H1073.98V1994.26H1032.34C982.372 1994.26 960.719 2025.9 960.719 2077.54V2260.75H870.779V2079.2ZM1213.88 2170.81C1228.87 2184.13 1248.86 2190.79 1275.51 2190.79C1293.83 2190.79 1310.49 2185.8 1323.81 2175.8C1337.14 2165.81 1345.46 2155.82 1348.79 2145.82H1432.07C1418.75 2187.46 1398.76 2215.78 1370.45 2234.1C1342.13 2252.42 1310.49 2260.75 1270.51 2260.75C1243.86 2260.75 1218.88 2255.75 1197.23 2247.42C1175.58 2239.1 1157.26 2225.77 1142.27 2210.78C1127.28 2194.12 1115.62 2175.8 1107.29 2154.15C1098.96 2132.5 1095.63 2107.52 1095.63 2080.87C1095.63 2055.88 1100.63 2030.9 1108.95 2009.25C1117.28 1987.6 1128.94 1967.61 1143.93 1952.62C1158.92 1935.96 1177.24 1924.31 1198.89 1914.31C1220.55 1904.32 1243.86 1900.99 1270.51 1900.99C1298.83 1900.99 1325.48 1905.98 1347.13 1917.64C1368.78 1929.3 1387.1 1944.29 1400.43 1962.61C1413.75 1980.93 1423.74 2002.59 1430.41 2027.57C1437.07 2050.89 1438.73 2077.54 1437.07 2104.18H1188.9C1192.23 2135.83 1200.56 2157.48 1213.88 2170.81V2170.81ZM1320.48 1990.93C1308.82 1979.27 1292.17 1972.61 1268.85 1972.61C1253.86 1972.61 1240.53 1975.94 1230.54 1980.93C1220.55 1985.93 1212.22 1992.59 1207.22 1999.26C1200.56 2007.58 1197.23 2014.25 1193.9 2022.57C1190.57 2030.9 1190.57 2039.23 1188.9 2045.89H1342.13C1340.47 2020.91 1332.14 2002.59 1320.48 1990.93V1990.93ZM314.483 1796.06H402.758V1876H314.483V1796.06ZM314.483 1915.98H402.758V2260.75H314.483V1915.98ZM1925.08 1611.18C1910.09 1627.84 1890.1 1637.83 1865.12 1637.83C1840.13 1637.83 1820.15 1627.84 1805.16 1611.18C1790.17 1594.52 1785.17 1566.21 1785.17 1532.9C1785.17 1497.92 1791.83 1472.94 1805.16 1456.28C1820.15 1439.63 1840.13 1429.63 1865.12 1429.63C1890.1 1429.63 1910.09 1439.63 1925.08 1456.28C1940.07 1472.94 1945.06 1501.25 1945.06 1532.9C1945.06 1564.55 1940.07 1591.19 1925.08 1611.18ZM1995.03 1404.65C1968.38 1369.67 1923.41 1349.69 1865.12 1349.69C1808.49 1349.69 1761.85 1366.34 1735.2 1404.65C1708.55 1439.63 1691.9 1482.93 1691.9 1531.23C1691.9 1581.2 1706.89 1624.51 1735.2 1657.82C1761.85 1692.79 1806.82 1711.11 1865.12 1711.11C1921.75 1711.11 1968.38 1694.46 1995.03 1657.82C2021.68 1622.84 2038.33 1579.54 2038.33 1531.23C2040 1484.6 2025.01 1441.29 1995.03 1404.65ZM1561.98 1611.18C1550.33 1627.84 1530.34 1637.83 1505.36 1637.83C1480.37 1637.83 1460.39 1627.84 1450.39 1611.18C1438.73 1591.19 1433.74 1566.21 1433.74 1532.9C1433.74 1502.92 1438.73 1479.6 1450.39 1461.28C1462.05 1441.29 1480.37 1431.3 1507.02 1431.3C1523.68 1431.3 1538.67 1436.3 1551.99 1446.29C1571.98 1462.94 1583.64 1496.26 1583.64 1539.56C1578.64 1569.54 1575.31 1594.52 1561.98 1611.18V1611.18ZM1665.25 1248.09C1665.25 1248.09 1575.31 1238.1 1575.31 1309.71V1404.65C1565.32 1389.66 1553.66 1378 1535.34 1366.34C1520.35 1356.35 1500.36 1354.68 1480.37 1354.68C1435.4 1354.68 1400.43 1371.34 1372.11 1404.65C1345.46 1436.3 1332.14 1484.6 1332.14 1544.56C1332.14 1594.52 1343.8 1637.83 1372.11 1666.14C1398.76 1697.79 1452.06 1711.11 1498.69 1711.11C1663.58 1711.11 1660.25 1571.21 1660.25 1571.21L1665.25 1248.09ZM1222.21 1569.54C1222.21 1599.52 1212.22 1619.51 1197.23 1631.17C1180.57 1641.16 1162.25 1647.82 1143.93 1647.82C1132.27 1647.82 1122.28 1646.16 1113.95 1637.83C1105.62 1629.5 1102.29 1621.17 1102.29 1606.18C1102.29 1589.53 1108.95 1576.2 1122.28 1567.88C1128.94 1562.88 1143.93 1557.88 1162.25 1556.22L1182.24 1551.22C1192.23 1549.55 1198.89 1546.22 1207.22 1546.22C1212.22 1544.56 1218.88 1541.23 1223.88 1539.56L1222.21 1569.54ZM1267.18 1374.67C1237.2 1359.68 1205.56 1353.02 1167.25 1353.02C1110.62 1353.02 1068.98 1368.01 1045.66 1397.99C1030.67 1417.98 1024.01 1441.29 1020.68 1469.61H1105.62C1107.29 1457.95 1112.29 1447.96 1117.28 1439.63C1127.28 1429.64 1142.26 1424.64 1162.25 1424.64C1182.24 1424.64 1193.9 1426.3 1205.56 1431.3C1215.55 1436.3 1220.55 1446.29 1220.55 1461.28C1220.55 1472.94 1213.88 1481.27 1200.56 1486.26C1193.9 1487.93 1180.57 1491.26 1165.58 1492.93L1135.6 1494.59C1100.63 1499.59 1075.64 1506.25 1057.32 1516.24C1025.68 1532.9 1009.02 1566.21 1009.02 1606.18C1009.02 1637.83 1019.01 1662.81 1039 1681.13C1058.99 1697.79 1083.97 1706.12 1115.62 1707.78C1310.49 1714.45 1308.82 1604.52 1308.82 1582.87V1456.28C1310.49 1419.64 1297.16 1389.66 1267.18 1374.67V1374.67ZM825.81 1429.63C847.462 1429.63 864.118 1436.3 875.776 1449.62C882.439 1459.62 887.435 1471.27 887.435 1484.6H982.372C977.376 1436.3 960.72 1401.32 932.406 1384.66C905.757 1364.68 867.447 1358.02 822.477 1358.02C769.18 1358.02 727.541 1373.01 697.561 1406.32C667.581 1439.63 652.591 1484.6 652.591 1541.23C652.591 1594.53 664.251 1634.5 692.565 1666.14C719.214 1697.79 762.518 1714.45 819.147 1714.45C875.776 1714.45 919.081 1694.46 949.061 1657.82C965.717 1632.83 975.709 1607.85 979.04 1579.53H884.104C882.439 1596.19 877.442 1611.18 867.449 1622.84C857.455 1632.83 842.465 1639.5 819.147 1639.5C789.167 1639.5 765.85 1624.5 757.522 1596.19C752.526 1581.2 747.527 1561.21 747.527 1536.23C747.527 1511.25 749.195 1487.93 757.522 1474.61C772.512 1444.63 792.499 1429.63 825.81 1429.63V1429.63ZM627.608 1354.68C429.407 1354.68 442.732 1529.57 442.732 1529.57V1706.12H532.672V1541.23C532.672 1514.58 534.337 1492.93 542.665 1481.27C554.324 1459.62 577.641 1446.29 614.283 1446.29H624.278C629.274 1446.29 634.27 1446.29 639.266 1447.96V1358.02H632.606C630.94 1354.68 630.939 1354.68 627.608 1354.68V1354.68ZM181.238 1446.29C192.897 1434.63 211.219 1426.3 234.537 1426.3C254.524 1426.3 272.844 1431.3 287.834 1442.96C302.824 1454.62 309.487 1472.94 309.487 1496.26H156.255C161.252 1476.27 167.914 1459.61 181.238 1446.29ZM301.159 1611.18C299.494 1616.18 294.496 1621.17 289.499 1622.84C277.84 1632.83 259.519 1634.5 239.533 1634.5C219.546 1634.5 204.558 1632.83 191.233 1622.84C169.581 1611.18 156.255 1584.53 156.255 1552.89H402.758C402.758 1522.91 402.758 1499.59 401.093 1486.26C396.096 1459.61 389.434 1436.3 374.444 1416.31C359.454 1394.66 339.467 1376.34 317.815 1366.34C296.163 1356.35 267.848 1351.35 237.868 1351.35C187.901 1351.35 147.928 1366.34 117.948 1399.65C87.9683 1431.3 69.6468 1476.27 69.6468 1534.56C69.6468 1596.19 86.3015 1642.83 122.944 1669.47C157.92 1696.12 197.895 1712.78 242.865 1712.78C297.828 1712.78 341.132 1696.12 369.447 1662.81C386.102 1646.16 396.097 1627.84 399.428 1609.51L301.159 1611.18ZM31.3381 1704.45H-51.9397V1499.59C-51.9397 1479.6 -56.9359 1437.96 -111.899 1437.96C-146.876 1437.96 -173.524 1462.95 -173.524 1499.59V1704.45H-256.802V1499.59C-256.802 1479.6 -261.798 1437.96 -316.762 1437.96C-351.738 1437.96 -376.723 1462.95 -376.723 1499.59V1704.45H-460.001V1501.25C-460.001 1416.31 -405.038 1351.35 -318.429 1351.35C-275.124 1351.35 -240.146 1368.01 -215.163 1399.65C-190.18 1369.67 -155.204 1351.35 -111.899 1351.35C-21.9593 1351.35 29.673 1412.98 29.673 1501.25L31.3381 1704.45ZM1585.3 518.575C1585.3 233.765 1230.54 0.587662 792.499 0.587662C354.457 0.587662 -0.305801 233.765 -0.305801 518.575V548.556C-0.305801 851.687 309.487 1096.52 792.499 1096.52C1277.18 1096.52 1585.3 851.687 1585.3 548.556V518.575Z" fill="#2D3277"/>
<path d="M1556.99 518.575C1556.99 786.73 1215.55 1004.92 795.829 1004.92C376.109 1004.92 34.6704 786.73 34.6704 518.575C34.6704 250.421 376.109 32.2336 795.829 32.2336C1215.55 32.2336 1556.99 250.421 1556.99 518.575Z" fill="#FFE600"/>
<path d="M542.665 365.346C542.665 365.346 534.336 373.672 539.333 380.334C550.992 395.324 587.635 403.653 625.943 395.325C647.595 390.328 677.574 367.01 704.223 345.358C734.203 322.04 764.184 297.056 794.164 288.729C825.809 278.735 845.796 283.732 859.121 287.064C874.111 292.06 890.766 302.053 919.08 322.04C970.713 360.348 1180.57 543.56 1217.22 575.206C1245.53 561.881 1375.44 506.918 1551.99 466.944C1537 373.673 1480.37 287.064 1393.76 217.111C1273.84 267.078 1125.61 293.727 980.705 223.774C980.705 223.774 902.426 187.13 824.144 188.795C709.221 192.126 660.92 240.428 607.622 293.726L542.665 365.346Z" fill="white"/>
<path d="M1208.89 595.19C1207.22 593.525 962.386 380.333 907.423 338.694C875.777 315.376 857.454 308.714 839.133 305.383C829.14 303.717 815.815 305.384 805.822 308.715C780.839 315.378 745.864 338.695 715.884 362.012C684.238 386.996 655.922 410.315 629.274 415.311C594.297 423.639 552.659 413.645 534.338 400.321C526.01 395.324 521.013 388.662 517.682 382C511.02 365.345 524.344 352.02 526.01 350.354L592.632 277.069L615.95 253.751C594.298 257.082 574.31 262.08 554.324 267.076C529.34 273.739 506.024 280.4 482.706 280.4C472.713 280.4 419.414 272.073 409.421 268.742C347.795 252.086 294.496 235.431 214.55 198.789C119.613 270.408 54.6571 358.682 36.3359 456.95C49.6604 460.281 72.9774 466.943 81.3051 468.608C297.827 516.91 364.451 566.876 377.775 576.87C391.099 561.88 409.42 553.551 431.072 553.551C454.39 553.551 476.042 565.211 489.366 583.532C501.025 573.539 519.348 565.211 541 565.211C550.994 565.211 560.985 566.876 572.644 570.207C597.628 578.535 609.288 595.191 615.95 610.181C624.278 606.85 634.27 603.518 645.929 603.518C657.588 603.518 669.248 606.849 682.573 611.846C722.546 628.501 729.208 668.476 725.877 698.456H734.204C782.506 698.456 820.813 736.763 820.813 785.064C820.813 800.054 817.482 813.379 810.82 825.038C824.144 831.7 855.79 848.355 885.77 845.024C909.087 841.693 917.415 835.03 920.746 830.033C922.412 826.702 925.742 823.371 922.411 820.04L860.786 751.753C860.786 751.753 850.793 741.759 854.124 738.428C857.455 735.097 864.117 740.094 869.114 743.425C900.76 770.074 937.402 808.382 937.402 808.382C937.402 808.382 940.733 813.379 954.057 816.71C965.716 818.376 987.369 816.709 1002.36 805.05C1005.69 801.719 1010.69 798.388 1012.35 795.057C1027.34 775.07 1010.69 755.083 1010.69 755.083L939.067 675.138C939.067 675.138 929.075 665.144 932.406 661.813C935.737 658.481 942.398 663.479 947.394 666.81C970.712 685.131 1002.36 718.443 1032.34 748.423C1039 753.419 1065.65 770.073 1100.63 746.755C1122.28 731.765 1127.28 715.111 1125.61 701.786C1123.94 685.131 1110.62 671.805 1110.62 671.805L1014.02 573.539C1014.02 573.539 1004.02 565.211 1007.36 560.214C1010.69 556.883 1017.35 561.88 1022.34 565.211C1053.99 591.86 1137.27 668.475 1137.27 668.475C1138.93 668.475 1167.25 690.128 1203.89 666.81C1217.21 658.482 1225.54 646.824 1225.54 631.834C1227.21 610.181 1208.89 595.19 1208.89 595.19V595.19Z" fill="white"/>
<path d="M737.535 720.107C722.545 720.107 705.889 728.434 704.224 728.434C702.558 728.434 704.223 721.773 705.889 718.441C707.555 715.11 727.542 655.151 679.24 633.498C642.598 616.843 619.28 635.164 612.618 643.491C610.953 645.157 609.288 645.157 609.288 643.491C609.288 633.498 604.29 603.518 570.979 593.525C524.344 578.535 496.029 611.847 487.701 623.506C484.37 596.857 462.719 576.869 434.404 576.869C404.424 576.869 381.105 600.186 381.105 630.166C381.105 660.146 404.424 683.465 434.404 683.465C449.394 683.465 461.053 678.468 471.046 668.475V670.14C469.38 683.464 464.383 731.766 514.35 750.087C534.337 758.415 550.994 751.753 565.984 741.76C570.981 738.429 570.979 740.094 570.979 743.425C569.314 755.084 570.98 781.732 609.288 796.722C637.602 808.381 654.257 796.722 664.25 786.729C669.247 781.732 670.913 783.399 670.913 790.061C672.578 825.038 702.558 853.351 737.535 853.351C774.177 853.351 804.157 823.371 804.157 786.729C804.157 750.087 774.177 720.107 737.535 720.107V720.107Z" fill="white"/>
<path d="M1218.88 570.207C1143.93 505.25 970.712 353.685 922.411 318.709C895.762 298.722 877.442 287.063 860.786 283.732C854.124 282.067 844.13 278.735 830.806 278.735C819.147 278.735 805.823 280.401 792.499 285.397C762.519 295.391 732.539 318.709 702.559 342.027L700.893 343.692C674.244 365.344 645.93 386.997 624.278 391.993C614.285 393.659 605.956 395.324 595.962 395.324C572.645 395.324 550.993 388.661 542.666 378.668C541 377.003 542.665 373.671 545.996 370.34L612.618 298.723C664.25 247.09 712.552 198.788 825.81 195.457H830.806C900.759 195.457 970.713 227.102 979.04 230.433C1045.66 262.079 1112.28 278.735 1180.57 278.735C1252.19 278.735 1325.48 260.414 1402.09 225.438C1393.76 218.776 1383.77 210.447 1375.44 203.785C1307.16 233.765 1243.86 247.089 1180.57 247.089C1117.28 247.089 1053.99 232.1 992.366 202.12C989.035 200.454 912.418 163.811 830.806 163.811H824.145C729.208 165.477 675.91 198.788 640.934 228.768C605.957 228.768 575.977 238.761 549.328 245.424C526.01 252.086 504.358 257.084 484.371 257.084H459.388C436.07 257.084 319.481 228.769 227.875 192.127C217.882 198.789 209.555 205.45 199.561 212.113C296.164 252.086 414.418 282.066 451.06 285.397C461.053 285.397 472.712 287.063 484.371 287.063C509.354 287.063 532.673 280.402 557.656 273.739C572.646 270.408 587.635 265.41 602.625 262.079L589.3 275.404L522.678 348.689C517.681 353.686 506.022 368.675 512.685 385.331C516.016 391.993 522.678 398.654 531.005 405.317C547.661 415.31 575.976 423.639 602.625 423.639C612.618 423.639 622.611 421.973 630.939 420.307C659.253 413.645 689.234 390.328 719.214 365.345C744.197 345.358 779.173 320.374 805.822 312.046C814.15 310.38 822.478 308.716 830.806 308.716H837.468C855.789 310.381 872.445 317.044 904.09 340.362C959.054 382 1203.89 595.19 1205.56 596.856C1205.56 596.856 1220.55 610.181 1220.55 633.499C1220.55 645.158 1212.22 656.817 1200.56 665.145C1190.57 671.807 1178.91 675.138 1168.91 675.138C1152.26 675.138 1140.6 666.81 1140.6 666.81C1140.6 666.81 1055.66 590.193 1025.68 563.544C1020.68 558.548 1015.68 555.217 1010.69 555.217C1007.36 555.217 1005.69 556.883 1004.02 558.549C999.027 565.211 1004.02 573.538 1010.69 578.535L1108.95 676.803C1108.95 676.803 1120.61 688.462 1122.28 703.452C1122.28 720.107 1115.62 733.432 1098.96 743.425C1087.3 751.753 1075.64 755.083 1063.98 755.083C1048.99 755.083 1039 748.421 1035.67 746.756L1020.68 733.432C995.696 708.449 969.048 681.8 949.062 666.81C944.065 663.479 939.068 658.482 934.071 658.482C932.406 658.482 929.074 658.482 927.409 661.813C925.743 663.478 924.077 668.475 929.074 676.803C930.739 680.134 934.071 681.801 934.071 681.801L1005.69 761.746C1005.69 761.746 1020.68 780.067 1007.36 795.057L1004.02 798.39L997.361 805.05C985.702 815.044 969.047 816.71 962.385 816.71H952.392C945.73 815.045 940.733 813.379 937.402 810.048C934.07 805.051 897.429 770.074 867.449 745.091C864.118 741.759 859.12 738.428 854.124 738.428C852.458 738.428 849.127 740.095 847.461 741.76C842.464 748.422 850.793 758.415 854.124 761.746L915.751 828.368C915.751 828.368 915.749 830.035 914.083 833.366C912.418 836.697 904.092 843.358 882.439 846.689H874.112C850.794 846.689 827.474 835.031 814.15 828.368C819.147 816.709 822.478 803.386 822.478 790.062C822.478 740.095 782.506 700.121 732.539 700.121H729.207C730.873 676.804 727.543 633.499 682.573 615.178C669.248 610.182 657.588 606.851 644.264 606.851C634.271 606.851 625.944 608.515 615.95 611.846C605.957 593.525 590.966 580.202 570.979 573.539C559.32 570.208 549.327 568.542 537.668 568.542C519.347 568.542 502.691 573.539 487.701 585.198C480.466 576.288 471.321 569.118 460.943 564.217C450.565 559.317 439.219 556.811 427.742 556.884C407.755 556.884 387.769 565.21 374.445 578.535C356.124 563.545 281.172 516.909 79.64 470.274C69.6467 468.608 47.9953 461.947 34.6708 456.951C33.0053 466.944 31.3389 478.603 29.6733 490.262C29.6733 490.262 66.3168 498.589 74.6446 500.255C279.508 545.225 347.795 593.525 359.454 601.853C356.123 611.846 354.457 621.841 354.457 631.834C354.457 675.138 389.433 708.449 431.072 708.449C436.069 708.449 441.066 708.45 446.062 706.784C452.725 738.43 472.711 761.747 504.357 773.406C514.35 776.737 522.678 778.402 531.005 778.402C536.002 778.402 542.666 778.402 549.328 776.737C554.325 791.727 567.648 810.047 597.628 821.706C607.621 826.702 617.615 828.368 627.608 828.368C635.936 828.368 644.264 826.704 650.927 823.373C664.251 856.684 697.562 880 734.204 880C759.188 880 782.506 870.008 799.162 851.687C814.152 860.014 844.131 875.005 875.777 875.005H887.435C919.08 871.674 932.404 858.349 939.067 850.021C940.732 848.356 940.733 846.689 942.399 845.024C949.061 846.689 957.389 848.356 967.382 848.356C984.038 848.356 1000.69 843.358 1017.35 830.034C1034 818.375 1045.66 801.719 1045.66 786.729C1050.66 788.395 1057.32 788.395 1062.32 788.395C1078.97 788.395 1097.29 783.398 1113.95 771.739C1145.6 751.752 1150.59 723.44 1150.59 706.784C1155.59 708.45 1162.25 708.449 1167.25 708.449C1183.9 708.449 1200.56 703.452 1215.55 693.459C1235.54 680.134 1247.2 661.814 1248.86 640.162C1250.53 625.172 1245.53 610.18 1238.87 596.856C1292.16 573.538 1412.08 530.233 1555.32 496.922C1555.32 485.263 1553.66 475.27 1550.33 463.611C1378.77 500.253 1250.53 555.217 1218.88 570.207V570.207ZM737.535 848.356C704.224 848.356 677.576 821.706 675.91 788.395C675.91 785.063 675.91 778.402 669.247 778.402C665.916 778.402 664.251 780.068 660.92 781.734C654.257 788.396 644.263 795.057 630.939 795.057C624.277 795.057 617.615 793.393 610.953 790.062C575.976 775.072 574.311 751.754 575.977 741.76C575.977 738.429 575.977 736.763 574.311 735.098L572.644 733.432H570.979C569.314 733.432 567.648 733.432 564.317 736.763C554.323 743.425 544.331 746.756 534.338 746.756C529.341 746.756 522.679 745.091 517.682 743.425C471.047 725.104 474.377 681.8 477.708 668.475C477.708 665.144 477.709 663.478 476.043 661.813L472.711 658.482L469.381 661.813C459.387 670.141 447.728 675.138 436.069 675.138C409.421 675.138 387.768 653.485 387.768 626.836C387.768 600.188 409.421 578.535 436.069 578.535C459.387 578.535 481.04 596.856 484.371 620.174L486.036 633.499L492.699 621.839C492.699 620.173 512.686 590.195 549.328 591.86C555.99 591.86 562.651 593.525 570.979 595.19C599.294 603.518 604.29 630.168 604.29 640.162C604.29 646.824 609.288 646.822 609.288 646.822C610.953 646.822 614.283 645.158 614.283 643.492C619.28 638.495 630.94 628.502 649.262 628.502C657.589 628.502 665.917 630.168 675.91 635.164C720.88 655.151 700.893 711.779 700.893 713.445C697.562 723.438 695.897 726.769 700.893 730.1H704.224C705.889 730.1 709.22 730.101 712.551 728.435C719.214 726.769 727.542 723.44 735.87 723.44C769.181 723.44 797.494 751.753 797.494 785.064C799.16 821.707 770.846 848.356 737.535 848.356V848.356Z" fill="#2D3277"/>
</g>
<defs>
<clipPath id="clip0_109_2">
<rect width="1585" height="1097" fill="white"/>
</clipPath>
</defs>
</svg>
