<?xml version="1.0"?>
<svg xmlns="http://www.w3.org/2000/svg" xmlns:xlink="http://www.w3.org/1999/xlink" xmlns:svgjs="http://svgjs.com/svgjs" version="1.1" width="512" height="512" x="0" y="0" viewBox="0 0 512 512" style="enable-background:new 0 0 512 512" xml:space="preserve"><g>
<g xmlns="http://www.w3.org/2000/svg">
	<g>
		<path d="M507.564,86.796l-30.473-30.473l26.535-26.535c5.914-5.912,5.914-15.5,0-21.414c-5.912-5.914-15.5-5.914-21.414,0    l-26.535,26.535L425.204,4.436C422.364,1.596,418.513,0,414.497,0c-4.017,0-7.867,1.596-10.706,4.436l-36.958,36.959    c-5.914,5.914-5.914,15.501,0,21.414l82.359,82.359c2.957,2.958,6.831,4.436,10.706,4.436c3.874,0,7.751-1.479,10.706-4.436    l36.959-36.958c2.84-2.84,4.436-6.691,4.436-10.706C511.999,93.487,510.403,89.635,507.564,86.796z" fill="#c7bfb9" data-original="#000000" style=""/>
	</g>
</g>
<g xmlns="http://www.w3.org/2000/svg">
	<g>
		<path d="M418.129,163.01l-69.14-69.141c-14.056-14.057-36.928-14.057-50.984,0l-21.635,21.635    c-14.056,14.056-14.056,36.928,0,50.984l69.141,69.141c7.028,7.028,16.26,10.542,25.491,10.542    c9.232,0,18.464-3.514,25.491-10.542l21.635-21.635C432.185,199.938,432.185,177.066,418.129,163.01z" fill="#c7bfb9" data-original="#000000" style=""/>
	</g>
</g>
<g xmlns="http://www.w3.org/2000/svg">
	<g>
		<path d="M340.784,279.807L232.192,171.214c-5.913-5.913-15.501-5.913-21.414,0c-5.914,5.914-5.914,15.501,0,21.414    l108.593,108.593c2.957,2.957,6.832,4.436,10.706,4.436c3.874,0,7.751-1.478,10.706-4.436    C346.698,295.308,346.698,285.721,340.784,279.807z" fill="#c7bfb9" data-original="#000000" style=""/>
	</g>
</g>
<g xmlns="http://www.w3.org/2000/svg">
	<g>
		<path d="M191.752,428.84L83.159,320.246c-5.913-5.914-15.5-5.914-21.414,0c-5.914,5.913-5.914,15.5,0,21.414l43.59,43.59    l-35.064,35.064c-5.914,5.914-5.914,15.501,0,21.414c9.139,9.139,9.139,24.008,0,33.147c-9.138,9.138-24.009,9.14-33.147,0    c-9.139-9.139-9.139-24.008,0-33.147c5.913-5.914,5.913-15.501,0-21.414c-5.913-5.912-15.5-5.914-21.414,0    c-20.946,20.947-20.946,55.029,0,75.976C26.183,506.764,39.94,512,53.697,512s27.514-5.236,37.988-15.709    c10.147-10.146,15.735-23.638,15.735-37.988c0-9.149-2.28-17.944-6.558-25.752l25.887-25.887l43.59,43.59    c2.957,2.957,6.832,4.436,10.706,4.436c3.874,0,7.751-1.478,10.706-4.436C197.666,444.341,197.666,434.754,191.752,428.84z" fill="#c7bfb9" data-original="#000000" style=""/>
	</g>
</g>
<g xmlns="http://www.w3.org/2000/svg">
	<g>
		<path d="M278.189,327.82c-6.648-18.822-19.99-38.867-37.567-56.443C223.045,253.8,203,240.459,184.18,233.812    c-22.537-7.96-41.56-5.733-53.566,6.273c-12.006,12.006-14.233,31.028-6.272,53.566c6.647,18.821,19.989,38.865,37.566,56.442    c17.577,17.577,37.621,30.917,56.442,37.566c8.876,3.135,17.205,4.69,24.777,4.69c11.653,0,21.512-3.686,28.789-10.962    C283.922,369.38,286.149,350.358,278.189,327.82z" fill="#c7bfb9" data-original="#000000" style=""/>
	</g>
</g>
<g xmlns="http://www.w3.org/2000/svg">
</g>
<g xmlns="http://www.w3.org/2000/svg">
</g>
<g xmlns="http://www.w3.org/2000/svg">
</g>
<g xmlns="http://www.w3.org/2000/svg">
</g>
<g xmlns="http://www.w3.org/2000/svg">
</g>
<g xmlns="http://www.w3.org/2000/svg">
</g>
<g xmlns="http://www.w3.org/2000/svg">
</g>
<g xmlns="http://www.w3.org/2000/svg">
</g>
<g xmlns="http://www.w3.org/2000/svg">
</g>
<g xmlns="http://www.w3.org/2000/svg">
</g>
<g xmlns="http://www.w3.org/2000/svg">
</g>
<g xmlns="http://www.w3.org/2000/svg">
</g>
<g xmlns="http://www.w3.org/2000/svg">
</g>
<g xmlns="http://www.w3.org/2000/svg">
</g>
<g xmlns="http://www.w3.org/2000/svg">
</g>
</g></svg>
