<svg id="Capa_1" enable-background="new 0 0 511.506 511.506" height="512" viewBox="0 0 511.506 511.506" width="512" xmlns="http://www.w3.org/2000/svg"><g><path d="m360.396 17.228c-5.547-.678-11.297.515-16.199 3.364l-69.786 40.575c-3.581 2.082-4.796 6.672-2.714 10.253s6.672 4.795 10.253 2.714l69.785-40.574c2.09-1.215 4.517-1.726 6.838-1.443 78.635 9.629 137.933 76.63 137.933 155.851v206.245c0 4.143 3.357 7.5 7.5 7.5s7.5-3.357 7.5-7.5v-206.246c0-86.789-64.963-160.19-151.11-170.739z"/><path d="m504.006 418.674c-4.143 0-7.5 3.357-7.5 7.5v49.768c0 1.941-1.579 3.521-3.521 3.521h-473.144c-2.669 0-4.841-2.172-4.841-4.841v-50.786h164.016c4.143 0 7.5-3.357 7.5-7.5s-3.357-7.5-7.5-7.5h-151.824v-50.501h149.559c4.143 0 7.5-3.357 7.5-7.5s-3.357-7.5-7.5-7.5h-161.75v-35.1h172.718c3.269 0 6.317 1.461 8.363 4.009 1.525 1.898 2.365 4.284 2.365 6.719v106.812c0 18.109 14.732 32.843 32.842 32.843s32.842-14.733 32.842-32.843v-106.812c0-2.435.84-4.82 2.364-6.719 2.047-2.548 5.096-4.009 8.364-4.009h173.15c9.866 0 17.894-8.027 17.894-17.894v-44.715c0-9.866-8.027-17.894-17.894-17.894h-45.395c-4.143 0-7.5 3.357-7.5 7.5s3.357 7.5 7.5 7.5h45.395c1.596 0 2.894 1.298 2.894 2.894v44.715c0 1.596-1.298 2.894-2.894 2.894h-173.15c-7.838 0-15.149 3.504-20.059 9.614-3.656 4.553-5.67 10.275-5.67 16.113v106.812c0 9.839-8.004 17.843-17.842 17.843s-17.842-8.004-17.842-17.843v-106.811c0-5.838-2.014-11.561-5.671-16.113-4.908-6.11-12.22-9.614-20.058-9.614h-160.525v-50.502h343.952c4.143 0 7.5-3.357 7.5-7.5s-3.357-7.5-7.5-7.5h-353.377l102.47-59.578c3.581-2.082 4.796-6.672 2.714-10.253-2.082-3.582-6.673-4.796-10.253-2.714l-102.829 59.786c-6.079 3.534-9.86 10.098-9.868 17.128-.003 2.84 1.101 5.51 3.108 7.52 2.004 2.007 4.667 3.111 7.498 3.111h1.585v50.662c-6.88.984-12.191 6.9-12.191 14.048v36.683c0 7.148 5.312 13.064 12.191 14.049v50.821c-6.88.984-12.192 6.9-12.192 14.048v51.577c0 10.94 8.9 19.841 19.841 19.841h473.145c10.212 0 18.521-8.309 18.521-18.521v-49.768c-.001-4.142-3.359-7.5-7.501-7.5z"/><path d="m448.01 408.836h-161.682c-4.143 0-7.5 3.357-7.5 7.5s3.357 7.5 7.5 7.5h161.682c9.866 0 17.894-8.027 17.894-17.894v-44.714c0-9.866-8.027-17.894-17.894-17.894h-161.366c-4.143 0-7.5 3.357-7.5 7.5s3.357 7.5 7.5 7.5h161.366c1.596 0 2.894 1.298 2.894 2.894v44.714c-.001 1.597-1.299 2.894-2.894 2.894z"/><path d="m87.369 108.955c4.22 26.136 25.702 45.201 51.417 46.83 1.372 8.45 4.607 16.481 9.568 23.604 2.366 3.398 7.041 4.238 10.44 1.868 3.399-2.366 4.235-7.041 1.868-10.44-4.992-7.17-7.632-15.586-7.632-24.337 0-23.522 19.138-42.659 42.66-42.659s42.659 19.137 42.659 42.659-19.137 42.66-42.659 42.66c-4.493 0-8.935-.704-13.202-2.092-3.937-1.277-8.17.874-9.452 4.813-1.28 3.938.874 8.171 4.813 9.452 5.768 1.875 11.77 2.826 17.841 2.826 18.164 0 34.382-8.451 44.959-21.618.65.026 1.306.064 1.942.064 27.88 0 50.562-22.683 50.562-50.562s-22.683-50.562-50.562-50.562c-6.754 0-13.368 1.358-19.491 3.92-2.927-28.067-26.723-50.021-55.552-50.021h-25.588c-6.166 0-11.182 5.017-11.182 11.183v21.409c0 .795.024 1.587.058 2.377-4.104-.26-8.235-.077-12.361.589l-25.262 4.079c-6.085.982-10.238 6.732-9.258 12.821zm190.785 23.069c0 17.208-12.286 31.597-28.546 34.864 2.411-6.349 3.743-13.224 3.743-20.408 0-19.501-9.741-36.76-24.604-47.2 4.345-1.841 9.044-2.818 13.845-2.818 19.609-.001 35.562 15.953 35.562 35.562zm-132.376-81.664h21.771c22.204 0 40.313 17.805 40.833 39.886-4.086-.922-8.329-1.425-12.69-1.425-12.812 0-24.658 4.205-34.24 11.301-9.895-7.708-15.673-19.397-15.673-32.17v-17.592zm-24.912 35.367c4.299-.693 8.602-.699 12.845-.029 3.251 9.618 9.087 18.274 16.895 24.9-6.729 8.437-11.153 18.788-12.285 30.1-18.157-1.801-33.137-15.512-36.144-34.134l-2.805-17.366z"/></g></svg>