<svg width="48" height="48" xmlns="http://www.w3.org/2000/svg"><g fill="none" fill-rule="evenodd"><path d="M24 47.5c12.979 0 23.5-10.521 23.5-23.5S36.979.5 24 .5.5 11.021.5 24 11.021 47.5 24 47.5Z" stroke="#EEE"/><g transform="translate(17 11)"><rect fill="#5697FA" width="14" height="26" rx="4.62"/><path fill="#0864EE" d="M0 5h14v16H0zm5.5-3h3a.5.5 0 0 1 0 1h-3a.5.5 0 0 1 0-1Z"/><circle fill="#FFF" cx="7" cy="13" r="4.5"/><path d="M6.718 15.12v.345a.316.316 0 0 0 .536.222.31.31 0 0 0 .09-.222v-.326c.795-.09 1.304-.574 1.304-1.243 0-.669-.409-1.076-1.365-1.316l-.481-.129c-.467-.152-.55-.304-.55-.526 0-.268.2-.437.55-.47.042-.002.085-.002.128 0 .114-.002.228.012.339.04.216.062.425.151.619.266.062.04.135.06.209.062a.382.382 0 0 0 .39-.387.369.369 0 0 0-.205-.335 2.27 2.27 0 0 0-.929-.34v-.297a.31.31 0 0 0-.31-.314.316.316 0 0 0-.316.314v.289c-.784.079-1.282.553-1.282 1.22 0 .666.39 1.064 1.346 1.315l.481.116c.48.15.574.311.574.54 0 .274-.2.45-.563.488H7.16a2.13 2.13 0 0 1-.348-.028 2.422 2.422 0 0 1-.885-.403.385.385 0 0 0-.626.288.39.39 0 0 0 .196.355c.362.257.782.42 1.222.475Z" fill="#0864EE"/><circle fill="#0864EE" cx="7" cy="23" r="1"/></g></g></svg>