<svg width="30" height="32" viewBox="0 0 150 160" fill="none" xmlns="http://www.w3.org/2000/svg"><path d="M20.72 147.853h-2.98l-2.072-7.007H6.557L4.5 147.853H1.65l7.66-25.147h3.736l7.674 25.147zm-5.908-9.881l-3.687-12.343-3.717 12.348h7.404v-.005zm18.769-5.526h-.136a6.279 6.279 0 00-1.151-.232 10.03 10.03 0 00-1.33-.073 4.66 4.66 0 00-2.381.654c-.8.461-1.54 1.017-2.207 1.655v13.408H23.72v-18.871h2.656v2.787c1.06-1.007 1.989-1.723 2.797-2.154.813-.42 1.626-.633 2.468-.633.455 0 .808.029 1.01.038l.93.165v3.256zm15.329 13.278c0 3.179-.62 5.521-1.83 7.04-1.214 1.495-3.086 2.235-5.622 2.235a14.291 14.291 0 01-4.8-.808v-3.256h.145c.412.208 1.109.469 2.062.76.948.3 1.887.454 2.83.454.9 0 1.65-.13 2.24-.387a3.354 3.354 0 001.409-1.083c.335-.48.574-1.021.701-1.592a9.737 9.737 0 00.209-2.076v-1.723a10.407 10.407 0 01-2.299 1.713 6.173 6.173 0 01-2.797.571c-1.892 0-3.387-.808-4.5-2.439-1.113-1.625-1.669-3.929-1.669-6.866 0-1.65.203-3.029.571-4.209.387-1.196.9-2.197 1.577-3.054a6.273 6.273 0 012.226-1.863c.886-.45 1.752-.677 2.623-.677.914 0 1.684.131 2.293.348a8.1 8.1 0 011.97 1.007l.169-.832h2.492v16.737zm-2.656-3.068v-10.268a9.585 9.585 0 00-1.975-.818 7.12 7.12 0 00-1.819-.246 4.022 4.022 0 00-3.455 1.756c-.847 1.166-1.268 2.874-1.268 5.105 0 2.119.31 3.721.94 4.815.628 1.083 1.65 1.635 3.115 1.635.755 0 1.534-.184 2.308-.537a7.57 7.57 0 002.154-1.442zm21.135-3.9H55.742c0 1.156.136 2.173.436 3.019.295.886.692 1.573 1.19 2.129a4.78 4.78 0 001.747 1.22 6.35 6.35 0 002.23.401c1.099 0 2.178-.256 3.262-.774 1.098-.498 1.853-1.006 2.322-1.514h.136v3.464c-.888.442-1.805.823-2.744 1.142a9.382 9.382 0 01-2.937.45c-2.627 0-4.679-.856-6.15-2.55-1.47-1.698-2.206-4.093-2.206-7.224 0-3.082.701-5.531 2.12-7.331 1.402-1.814 3.265-2.734 5.559-2.734 2.134 0 3.779.755 4.95 2.236 1.132 1.49 1.722 3.6 1.722 6.334v1.732h.01zm-2.594-2.429c-.014-1.655-.367-2.952-1.054-3.881-.697-.909-1.742-1.364-3.155-1.364a4.232 4.232 0 00-3.407 1.509 6.354 6.354 0 00-1.437 3.736h9.053zm19.844 11.526h-2.68v-10.757c0-.842-.025-1.664-.107-2.424a5.214 5.214 0 00-.474-1.781 2.22 2.22 0 00-1.031-1.05 3.754 3.754 0 00-1.718-.348 4.696 4.696 0 00-2.26.644c-.838.439-1.614.99-2.308 1.635v14.076H71.42v-18.871h2.646v2.1c.842-.808 1.708-1.461 2.59-1.916.88-.465 1.794-.707 2.738-.707 1.698 0 3.005.625 3.895 1.858.9 1.22 1.35 2.991 1.35 5.299v12.242zm16.814-1.191a14.8 14.8 0 01-2.52 1.191 7.267 7.267 0 01-2.54.435 8.354 8.354 0 01-3.146-.605 6.712 6.712 0 01-2.448-1.819 8.112 8.112 0 01-1.588-3.058 14.76 14.76 0 01-.57-4.345c0-3.078.706-5.507 2.119-7.263 1.427-1.761 3.3-2.637 5.632-2.637.91 0 1.786.159 2.671.455.866.3 1.669.677 2.395 1.113v3.522h-.14a10.292 10.292 0 00-2.516-1.727 5.956 5.956 0 00-2.526-.615 4.135 4.135 0 00-3.566 1.824c-.88 1.21-1.316 2.976-1.316 5.328 0 2.269.43 4.026 1.292 5.24a4.143 4.143 0 003.595 1.829c.542 0 1.093-.092 1.65-.256a6.26 6.26 0 001.51-.658c.367-.242.73-.494 1.074-.75a6.59 6.59 0 00.813-.692h.14v3.488h-.015zm15.692 1.191h-2.642v-2.008c-.237.174-.556.469-.958.793a6.418 6.418 0 01-1.175.828c-.477.28-.986.503-1.515.663-.66.171-1.341.25-2.023.237a4.651 4.651 0 01-2.003-.431 4.644 4.644 0 01-1.621-1.253c-.992-1.133-1.49-2.56-1.49-4.307 0-1.427.256-2.579.769-3.469.508-.876 1.258-1.568 2.197-2.086.968-.503 2.129-.832 3.479-1.035a62.745 62.745 0 014.34-.402v-.503a4.182 4.182 0 00-.314-1.771 2.482 2.482 0 00-.915-1.127 3.406 3.406 0 00-1.364-.518 9.688 9.688 0 00-3.978.189c-.916.24-1.808.564-2.666.967h-.15v-3.227a27.523 27.523 0 012.265-.571 14.929 14.929 0 012.898-.305c1.123 0 2.091.131 2.913.339a5.523 5.523 0 012.144 1.123 4.982 4.982 0 011.359 2.008c.3.817.46 1.848.46 3.043v12.823h-.01zm-2.642-4.645v-5.241c-.808.039-1.766.121-2.874.242-.884.071-1.758.234-2.608.489a4.126 4.126 0 00-1.853 1.214c-.479.538-.702 1.288-.702 2.246 0 1.079.262 1.892.813 2.443.537.547 1.379.823 2.512.823.929 0 1.78-.218 2.554-.654a11.555 11.555 0 002.158-1.562zm17.642-10.762H132a9.408 9.408 0 00-2.477-.305 4.602 4.602 0 00-2.376.654 11.273 11.273 0 00-2.211 1.655v13.408h-2.662v-18.871h2.657v2.787c.84-.836 1.785-1.56 2.811-2.154.808-.42 1.621-.633 2.458-.633.469 0 .808.029 1.007.038l.938.165v3.256zm15.334 15.407h-2.666v-1.979c-.774.788-1.558 1.398-2.395 1.853a5.967 5.967 0 01-2.705.639c-1.902 0-3.392-.871-4.49-2.575-1.108-1.746-1.67-4.151-1.67-7.238 0-1.597.189-3.01.566-4.263.392-1.239.91-2.313 1.559-3.203.629-.847 1.388-1.5 2.24-1.936a5.432 5.432 0 012.656-.697c.833 0 1.558.107 2.212.305.643.218 1.311.547 2.022.992v-8.177h2.666v26.279h.005zm-2.666-4.645v-10.82a7.185 7.185 0 00-3.779-1.011 3.962 3.962 0 00-3.484 1.853c-.827 1.239-1.239 2.986-1.239 5.279 0 2.245.3 3.929.949 5.105.653 1.161 1.679 1.747 3.077 1.747.77 0 1.529-.213 2.313-.605a10.398 10.398 0 002.163-1.548z" fill="#010101"/><path d="M149.308 51.582C145.132 25.385 113.414 5 74.903 5 33.523 5 0 28.487 0 57.466c0 28.964 33.523 52.452 74.903 52.452 4.205 0 8.356-.242 12.382-.707l18.373-29.608h-66.43V35.155h74.38v73.901h36.174V51.582h-.474z" fill="#E42834"/></svg>