<svg width="118" height="32" viewBox="0 0 48 13" fill="none" xmlns="http://www.w3.org/2000/svg"><path fill-rule="evenodd" clip-rule="evenodd" d="M30.728 7.044c1.704 0 2.565-.258 2.565.869 0 1.412-.207 1.196-2.564 1.196V7.044zm.018-3.163c1.962 0 2.264-.23 2.263 1.013 0 1.216-.603.981-2.282.981l.019-1.994zM29.16 10.3l3.405.018c1.234 0 2.279-.48 2.279-1.723 0-.954.153-1.93-1.107-2.253.795-.67.836-.308.836-1.963 0-1.194-.695-1.624-1.842-1.698-.892-.057-2.701-.08-3.571.002V10.3zM7.096 3.355c.106.246 2.59 2.586 2.73 2.798.332.5-.36.973-.57 1.184-.628.628-1.246 1.202-1.883 1.822-.237.23-.282.18-.28.63.003.609-.036 2.421.027 2.772l5.267-5.17c.228-.21.595-.446.617-.908.028-.57-.774-1.07-1.326-1.67-.91-.991-2.08-2.019-3.05-2.99-.26-.26-.479-.506-.727-.755C7.736.902 7.26.43 7.1.334l-.003 3.02zm-1.05 9.207c.06-.474.025-2.38.025-2.996 0-.26-1.884-1.95-2.188-2.256-.187-.187-.64-.518-.628-.877.01-.329.996-1.164 1.388-1.6.24-.267.482-.488.737-.743.39-.39.69-.557.69-.849L6.069.335C5.807.492 2.921 3.46 2.282 4.012c-.574.498-.91.97-1.506 1.512-1.13 1.03-.626 1.31.73 2.567 1.024.95 2.02 2.088 3.038 3.002.284.255.48.471.752.73.228.217.58.506.75.739zm18.816-8.62l1.104 3.53-2.216-.029 1.112-3.501zm-3.675 6.355l1.639.024.514-1.576 2.96-.005c.195.164.495 1.266.57 1.571l1.642.008L25.94 2.68c-2.598-.132-2.148-.158-3.193 2.99-.356 1.073-1.34 3.79-1.56 4.627zm17.677-6.352l1.107 3.526-2.228-.007 1.121-3.519zm-3.674 6.372l1.535.003c.161-.038.265-.527.341-.755.088-.263.2-.558.261-.825h3.062l.495 1.577 1.629-.002L40.58 4.57l-.332-.978c-.085-.253-.163-.79-.39-.92-1.094 0-1.96-.152-2.34.735l-2.328 6.91zM15.515 4.608v3.476c0 1.633 1.211 2.222 2.806 2.222l2.195-.02c0-1.388-.316-1.305-1.625-1.304-2.205.002-1.81-.386-1.81-4.089 0-.824.418-1.126 1.24-1.126h2.25c.095-1.56-.383-1.324-2.364-1.324-1.496 0-2.692.636-2.692 2.165zM43.05 10.32c.784 0 4.468.095 4.929-.038 0-.235.034-.932.002-1.112-.043-.25-.354-.147-1-.147h-2.364V2.585c-2.027-.43-1.568 1.384-1.568 3.049v4.686z" fill="#007EB5"/></svg>