<svg xmlns="http://www.w3.org/2000/svg" width="34" height="32" viewBox="0 0 43.2 40"><path d="M41.818 23.928c.754-.003 1.382-.616 1.382-1.365 0-.433-.173-.726-.38-.933l.121-.127-.121.127-4.08-4.076.323-.074c2.196-.454 3.667-1.842 3.671-4.508-.002-3.105-2.597-4.821-5.195-4.831h-5.545v13.972l2.641-.379V10.8h3.015c1.3.002 2.417.926 2.423 2.154.012 1.22-.902 1.849-2.191 2.158-1.314.343-1.902 1.256-1.908 2.249 0 .625.243 1.284.734 1.835.479.592.748.834.752.846l3.604 3.667c.211.129.457.219.754.219M28.312 7.61c-1.123 0-1.768.795-2.262 1.846l-3.15 6.711-3.517-6-3.972.559v11.83c0 .736.623 1.34 1.369 1.342.732-.002 1.354-.605 1.354-1.342v-9.091l4.824 8.075 4.683-9.533v10.721l2.725-.386V9.675c.001-1.124-.936-2.063-2.054-2.065M0 14.913c.012 4.355 3.546 7.895 7.896 7.906 2.926 0 4.837-1.549 5.721-2.473l.065-.062a.946.946 0 0 0 .117-.186c.012-.012.022-.036.039-.061l.006-.017.006-.007.068.029-.057-.047c.092-.17.148-.342.176-.513.008-.052.01-.101.013-.147 0-.03.003-.059.003-.082a1.435 1.435 0 0 0-.635-1.146 1.388 1.388 0 0 0-1.657.105l-.007.006c-.022.031-.048.053-.077.084-.091.094-.263.266-.326.326a5.063 5.063 0 0 1-3.456 1.362 5.115 5.115 0 0 1-5.101-5.115c0-2.81 2.29-5.104 5.101-5.104.942.008 2.268.178 3.397 1.309l2.754-.465S12.404 6.945 7.648 7C3.299 7.005.012 10.556 0 14.913m13.85 5.102c.004-.01.012-.004.012-.004l-.012.004zm-2.583 10.249H10.25c-.125 0-.252.009-.387.019a1.068 1.068 0 0 0-.398.118.9.9 0 0 0-.31.277.97.97 0 0 0-.122.499c0 .307.107.518.311.637.205.124.48.186.819.186.048 0 .118-.001.205-.005.091-.009.178-.01.279-.031.099-.008.203-.027.314-.053a1.33 1.33 0 0 0 .305-.084v-1.563zm1.256 2.014c0 .167-.067.285-.205.354a4.587 4.587 0 0 1-.497.178 5.528 5.528 0 0 1-1.129.172 8.739 8.739 0 0 1-.536.018c-.476 0-.856-.048-1.172-.143-.305-.1-.553-.222-.732-.384a1.294 1.294 0 0 1-.376-.564 2.306 2.306 0 0 1-.112-.684c0-.254.051-.488.129-.722.082-.23.213-.438.398-.61.194-.173.42-.311.719-.417a3.145 3.145 0 0 1 1.076-.165h1.189v-.177c0-.132-.011-.263-.037-.372a.716.716 0 0 0-.164-.3.847.847 0 0 0-.332-.193 1.788 1.788 0 0 0-.557-.071c-.242 0-.506.02-.789.064-.285.036-.508.09-.689.146a.56.56 0 0 1-.169.017c-.034-.019-.053-.057-.077-.127l-.146-.604c-.03-.111 0-.188.096-.223.297-.105.622-.188.974-.238a7.651 7.651 0 0 1 1.003-.066c.741 0 1.273.162 1.621.487.341.325.516.804.516 1.428v3.196zm6.681-2.014h-1.022c-.123 0-.249.009-.387.019a1.08 1.08 0 0 0-.396.118.92.92 0 0 0-.307.277.932.932 0 0 0-.122.499c0 .307.1.518.31.637.2.124.479.186.82.186.052 0 .116-.001.204-.005.088-.009.188-.01.28-.031.102-.008.209-.027.315-.053a1.36 1.36 0 0 0 .305-.084v-1.563zm1.255 2.014c0 .167-.066.285-.203.354a4.759 4.759 0 0 1-.502.178 5.376 5.376 0 0 1-.559.117 6.756 6.756 0 0 1-.578.055 8.04 8.04 0 0 1-.522.018c-.479 0-.858-.048-1.173-.143-.308-.1-.557-.222-.732-.384a1.234 1.234 0 0 1-.375-.564 2.051 2.051 0 0 1 .018-1.406 1.5 1.5 0 0 1 .393-.61c.191-.173.428-.311.717-.417.297-.108.654-.165 1.08-.165h1.19v-.177c0-.132-.01-.263-.045-.372a.63.63 0 0 0-.159-.3.84.84 0 0 0-.337-.193 1.743 1.743 0 0 0-.554-.071c-.242 0-.502.02-.785.064-.286.036-.515.09-.689.146a.555.555 0 0 1-.17.017c-.039-.019-.057-.057-.078-.127l-.145-.604c-.037-.111 0-.188.088-.223.305-.105.63-.188.982-.238.354-.047.686-.066.995-.066.741 0 1.282.162 1.622.487.35.325.521.804.521 1.428v3.196zm8.686-4.08c-.188 0-.361.035-.504.109-.156.078-.283.18-.387.307-.1.13-.193.271-.256.434-.065.16-.102.332-.104.511h2.445c0-.19-.021-.368-.055-.532a1.205 1.205 0 0 0-.187-.429.927.927 0 0 0-.355-.299 1.552 1.552 0 0 0-.597-.101m-.019-1.031c.812 0 1.421.211 1.817.625.391.42.586.99.586 1.729 0 .182-.018.332-.066.457a.802.802 0 0 1-.178.286.591.591 0 0 1-.27.144 1.188 1.188 0 0 1-.34.049h-2.822c.004.281.043.509.125.697a1.16 1.16 0 0 0 .783.707c.18.051.377.076.578.076.226 0 .454-.027.668-.085.221-.055.412-.124.576-.206.111-.049.191-.027.234.066l.289.605c.045.113.021.193-.073.246a2.684 2.684 0 0 1-.89.345c-.316.06-.623.09-.917.09-.851 0-1.516-.231-1.962-.693-.446-.458-.68-1.188-.68-2.192 0-.47.07-.885.191-1.248.125-.367.303-.676.52-.926.23-.255.5-.447.807-.572.313-.134.66-.2 1.024-.2m11.544 3.097h-1.023c-.126 0-.25.009-.391.019a1.116 1.116 0 0 0-.396.118.952.952 0 0 0-.308.277c-.076.122-.115.294-.115.499 0 .307.1.518.303.637.203.124.484.186.819.186.053 0 .121-.001.209-.005.088-.009.18-.01.279-.031.104-.008.208-.027.318-.053.108-.016.211-.048.305-.084v-1.563zm1.25 2.014c0 .167-.064.285-.201.354a3.698 3.698 0 0 1-.502.178 5.431 5.431 0 0 1-.559.117 8.433 8.433 0 0 1-1.105.073c-.467 0-.857-.048-1.166-.143-.309-.1-.553-.222-.732-.384a1.356 1.356 0 0 1-.379-.564 2.098 2.098 0 0 1-.107-.684c0-.254.041-.488.123-.722.078-.23.215-.438.404-.61a1.97 1.97 0 0 1 .715-.417c.294-.108.653-.165 1.078-.165h1.188v-.177c0-.132-.007-.263-.046-.372a.63.63 0 0 0-.16-.3.779.779 0 0 0-.333-.193 1.758 1.758 0 0 0-.552-.071c-.238 0-.507.02-.793.064-.28.036-.51.09-.687.146a.543.543 0 0 1-.173.017c-.033-.019-.059-.057-.073-.127l-.151-.604c-.022-.111 0-.188.098-.223.3-.105.627-.188.975-.238a7.737 7.737 0 0 1 1.002-.066c.736 0 1.277.162 1.624.487.339.325.513.804.513 1.428v3.196zM7.981 25.476c-.016-.044-.083-.056-.181-.056H4.805c-.355 0-.657.05-.896.157a1.473 1.473 0 0 0-.58.432c-.154.176-.256.38-.315.608a2.783 2.783 0 0 0-.091.724v5.316c0 .09.02.154.063.185.042.028.105.04.183.04h.336c.23-.016.711-.135.711-.822v-2.458h3.19c.094 0 .152-.019.176-.063a.333.333 0 0 0 .041-.18v-.607c0-.104-.014-.162-.041-.191-.023-.034-.082-.053-.176-.053h-3.19v-1.245c0-.226.058-.401.172-.519.104-.115.297-.176.561-.176h2.854c.092 0 .152-.022.179-.051.032-.039.049-.102.049-.195v-.66c-.003-.085-.019-.148-.05-.186m16.792 5.468a1.738 1.738 0 0 1-.299.581 1.158 1.158 0 0 1-.467.319 1.647 1.647 0 0 1-.611.099 4.09 4.09 0 0 1-.49-.025 2.775 2.775 0 0 1-.533-.11v-3.412c.235-.07.449-.111.65-.133.218-.021.37-.034.486-.034.43 0 .76.153 1.008.461.235.303.355.774.355 1.394.001.336-.033.622-.099.86m1.236-2.058a2.595 2.595 0 0 0-.438-.91 1.947 1.947 0 0 0-.754-.597c-.312-.146-.675-.212-1.101-.212-.191 0-.406.01-.653.047-.243.031-.47.076-.673.141l-.018-2.063c0-.083-.004-.138-.033-.158-.033-.025-.084-.033-.165-.033h-.33c-.237.02-.69.135-.698.801v6.462c0 .059.006.111.031.154.02.04.066.074.125.094.315.147.669.247 1.045.299.38.064.75.089 1.115.089.466 0 .868-.071 1.217-.22a2.23 2.23 0 0 0 .835-.627c.222-.264.384-.576.483-.941.104-.363.154-.756.154-1.179.001-.416-.047-.8-.142-1.147m8.261 3.746l-.076-.602c-.007-.061-.02-.09-.047-.109-.023-.021-.065-.025-.125-.016l-.188.024c-.066.007-.138.007-.191.007-.146 0-.24-.037-.287-.103-.049-.064-.076-.193-.076-.378V25.28c0-.08-.018-.124-.049-.148-.029-.025-.09-.033-.165-.033h-.345c-.229.021-.669.138-.7.771v5.885c0 .459.095.782.278.965.191.189.475.28.875.28.141 0 .298-.013.482-.026.178-.021.342-.055.482-.114.076-.036.113-.062.131-.093.012-.02.012-.069.001-.135m2.718 0l-.074-.602c-.006-.061-.019-.09-.043-.109-.027-.021-.069-.025-.127-.016a8.475 8.475 0 0 0-.184.024c-.07.007-.141.007-.192.007-.141 0-.239-.037-.29-.103-.049-.064-.067-.193-.067-.378V25.28c0-.08-.024-.124-.054-.148-.029-.025-.086-.033-.168-.033h-.335c-.242.021-.7.142-.704.81v5.846c0 .459.09.782.273.965.188.189.473.28.877.28.141 0 .297-.013.48-.026.18-.021.341-.055.488-.114.068-.036.115-.062.119-.093.021-.02.021-.069.001-.135m-21.445 0l-.071-.602c-.011-.061-.021-.09-.046-.109-.022-.021-.066-.025-.121-.016-.051.006-.117.013-.191.024-.075.007-.139.007-.193.007-.143 0-.237-.037-.283-.103-.054-.064-.082-.193-.082-.378V25.28c0-.08-.01-.124-.048-.148-.032-.025-.081-.033-.161-.033h-.342c-.235.021-.697.142-.701.825v5.83c0 .459.093.782.271.965.189.189.479.28.879.28.145 0 .297-.013.488-.026.172-.021.342-.055.479-.114.069-.036.11-.062.122-.093.016-.019.016-.068 0-.134" fill="#3FAE2A"/></svg>