<svg xmlns="http://www.w3.org/2000/svg" width="71" height="32" viewBox="0 0 88.771 40"><path fill="#004A97" d="M17.01 31.5c6.287.031 12.023-5.125 12.023-11.398 0-6.861-5.736-11.607-12.023-11.602H11.6C5.236 8.494 0 13.24 0 20.102c0 6.275 5.236 11.43 11.6 11.398h5.41z"/><path fill="#FFF" d="M14.014 26.209v-12.46a6.686 6.686 0 0 1 4.283 6.231 6.684 6.684 0 0 1-4.283 6.229M4.953 19.98a6.692 6.692 0 0 1 4.283-6.231v12.454a6.675 6.675 0 0 1-4.283-6.223m6.672-10.531C5.809 9.451 1.1 14.164 1.1 19.98c0 5.812 4.709 10.521 10.525 10.525 5.812-.004 10.525-4.713 10.527-10.525-.002-5.816-4.714-10.529-10.527-10.531"/><path fill="#1D1E1C" d="M33.904 19.12c0 .933.668 1.042 1.258 1.042 2.619 0 3.475-1.973 3.475-3.774 0-2.263-1.453-3.895-3.787-3.895-.496 0-.723.034-.945.048v6.579zm-1.183-5.673c0-1.086-.566-1.017-1.107-1.027v-.313c.467.024.955.024 1.426.024.506 0 1.195-.024 2.092-.024 3.131 0 4.836 2.091 4.836 4.235 0 1.195-.699 4.205-4.982 4.205-.615 0-1.182-.021-1.754-.021-.545 0-1.076.011-1.617.021v-.312c.721-.073 1.072-.097 1.107-.922v-5.866zm8.967-.293a.619.619 0 0 1-.594-.602c0-.301.289-.584.594-.584.314 0 .592.258.592.584s-.268.602-.592.602m-1.293 7.081h.227c.336 0 .58 0 .58-.401v-3.278c0-.53-.18-.606-.631-.845v-.197c.57-.17 1.252-.398 1.301-.43.08-.054.152-.064.213-.064s.086.074.086.172v4.643c0 .401.268.401.604.401h.209v.312c-.414 0-.838-.021-1.271-.021-.436 0-.871.011-1.316.021v-.313zm3.732-3.606c0-.445-.131-.566-.701-.799v-.229a15.163 15.163 0 0 0 1.596-.582c.039 0 .078.026.078.121v.787c.685-.493 1.284-.908 2.093-.908 1.027 0 1.387.75 1.387 1.693v3.121c0 .401.268.401.609.401h.215v.312c-.424 0-.846-.021-1.283-.021-.434 0-.873.011-1.303.021v-.312h.219c.338 0 .578 0 .578-.401v-3.131c0-.691-.422-1.029-1.115-1.029-.385 0-1.003.314-1.399.58v3.58c0 .401.262.401.604.401h.216v.312c-.423 0-.845-.021-1.284-.021-.432 0-.869.011-1.305.021v-.312h.223c.336 0 .574 0 .574-.401v-3.204zm8.337.194c.303 0 .34-.155.34-.302 0-.617-.377-1.114-1.051-1.114-.74 0-1.248.542-1.393 1.416h2.104zm-2.139.384c-.031.113-.031.294 0 .706.068 1.147.811 2.091 1.777 2.091.664 0 1.184-.359 1.629-.809l.17.168c-.555.74-1.246 1.367-2.236 1.367-1.924 0-2.311-1.862-2.311-2.637 0-2.373 1.596-3.074 2.443-3.074.98 0 2.035.616 2.045 1.897 0 .077 0 .147-.01.223l-.111.067h-3.396zm3.793 3.028h.33c.338 0 .58 0 .58-.401v-3.398c0-.373-.447-.447-.629-.543v-.182c.881-.377 1.367-.691 1.479-.691.066 0 .105.037.105.158v1.086h.025c.303-.468.812-1.244 1.549-1.244.303 0 .688.205.688.64 0 .329-.227.618-.564.618-.377 0-.377-.289-.799-.289-.207 0-.885.275-.885 1.006v2.84c0 .401.24.401.578.401h.68v.312c-.67-.011-1.176-.021-1.693-.021-.496 0-1.004.011-1.443.021v-.313zm4.662-1.367c.154.796.641 1.474 1.521 1.474.713 0 .977-.432.977-.855 0-1.43-2.631-.971-2.631-2.918 0-.676.539-1.549 1.873-1.549.387 0 .906.111 1.377.354l.088 1.23h-.283c-.115-.76-.539-1.196-1.311-1.196-.486 0-.947.28-.947.8 0 1.416 2.807.979 2.807 2.877 0 .798-.645 1.646-2.082 1.646-.486 0-1.055-.17-1.475-.412l-.135-1.391.221-.06zm14.393-4.573h-.305c-.229-1.416-1.232-1.983-2.588-1.983-1.391 0-3.412.931-3.412 3.833 0 2.445 1.744 4.197 3.605 4.197 1.197 0 2.188-.821 2.434-2.09l.273.07-.273 1.764c-.512.317-1.879.645-2.674.645-2.832 0-4.623-1.826-4.623-4.547 0-2.48 2.217-4.262 4.586-4.262.979 0 1.926.316 2.852.642l.125 1.731zm.433 5.94h.23c.338 0 .58 0 .58-.401v-6.735c0-.787-.182-.81-.639-.942v-.193c.482-.158.988-.377 1.242-.523.133-.068.23-.131.268-.131.072 0 .096.072.096.169v8.356c0 .401.266.401.607.401h.203v.312c-.41 0-.834-.021-1.27-.021s-.871.011-1.318.021v-.313zm7.768-.353c0 .222.133.231.338.231.145 0 .33-.01.486-.01v.25c-.521.05-1.516.303-1.744.377l-.061-.037v-.979c-.727.592-1.285 1.016-2.141 1.016-.654 0-1.332-.424-1.332-1.437v-3.1c0-.312-.047-.618-.727-.681v-.227c.438-.012 1.404-.086 1.564-.086.135 0 .135.086.135.352v3.121c0 .363 0 1.402 1.049 1.402.41 0 .955-.314 1.465-.736v-3.256c0-.24-.582-.373-1.016-.494v-.217c1.086-.075 1.762-.172 1.887-.172.096 0 .096.086.096.221v4.462zm2.404-.7c0 .463.438 1.234 1.25 1.234 1.293 0 1.836-1.271 1.836-2.346 0-1.307-.99-2.396-1.936-2.396-.449 0-.824.29-1.15.568v2.94zm0-3.289c.488-.414 1.143-.873 1.807-.873 1.404 0 2.248 1.223 2.248 2.541 0 1.584-1.162 3.17-2.889 3.17-.896 0-1.369-.29-1.684-.424l-.363.279-.254-.133c.107-.715.168-1.416.168-2.154v-5.2c0-.787-.18-.81-.641-.942v-.193c.484-.158.994-.377 1.248-.523.135-.068.225-.131.266-.131.072 0 .094.072.094.169v4.414zM31.596 27.582h.098c.234 0 .48-.033.48-.373v-3.451c0-.342-.246-.375-.48-.375h-.098v-.199c.256 0 .65.027.975.027.328 0 .723-.027 1.035-.027v.199h-.092c-.238 0-.488.033-.488.375v3.451c0 .34.25.373.488.373h.092v.197c-.316 0-.713-.021-1.037-.021-.326 0-.717.021-.973.021v-.197z"/><path fill="#1D1E1C" d="M33.58 27.75v-.143h-.066c-.238 0-.516-.037-.518-.398v-3.451c.002-.361.279-.406.518-.406h.066v-.137c-.311 0-.691.025-1.01.025-.312 0-.689-.025-.943-.025v.137h.066c.229 0 .508.045.508.406v3.451c0 .361-.279.398-.508.398h-.066v.143c.254 0 .627-.023.941-.023.317 0 .698.023 1.012.023m.025.057c-.32 0-.713-.022-1.037-.022-.326 0-.713.022-.973.022h-.027v-.257h.125c.234-.001.451-.019.453-.341v-3.451c-.002-.32-.219-.342-.453-.349h-.125v-.253h.027c.26 0 .658.025.975.025.326 0 .721-.025 1.035-.025h.029v.253h-.121c-.244.007-.461.028-.463.349v3.451c.002.322.219.34.463.341h.121v.257h-.029zm4.52-1.327l.016-.01V24c0-.539-.379-.617-.576-.617h-.143v-.199c.312 0 .611.027.922.027.27 0 .539-.027.809-.027v.199h-.1c-.273 0-.584.055-.584.838v2.992c0 .232.006.459.037.662h-.25l-3.389-3.773v2.711c0 .573.109.77.621.77h.112v.197c-.285 0-.57-.021-.85-.021-.295 0-.602.021-.896.021v-.197h.092c.455 0 .592-.311.592-.836v-2.77a.59.59 0 0 0-.596-.594h-.088v-.199c.25 0 .506.027.758.027.195 0 .389-.027.586-.027l2.927 3.296z"/><path fill="#1D1E1C" d="M38.107 26.471v-.005l-.002-.007.002.012zm.018.009l.023-.021-.023.021zm.131 1.37h.219a4.215 4.215 0 0 1-.033-.637v-2.992c0-.791.33-.869.611-.869h.07v-.137c-.26 0-.52.025-.779.025-.303 0-.598-.025-.893-.025v.137h.113c.203 0 .604.092.604.648l-.01 2.49-.014.013-.02.022-2.928-3.311c-.197 0-.389.025-.586.025-.242 0-.49-.025-.73-.025v.137h.061c.312 0 .627.24.627.625v2.77c0 .525-.15.861-.623.863l-.064-.002v.143c.289 0 .58-.023.869-.023.271 0 .545.023.818.023v-.141h-.08c-.518-.002-.648-.224-.648-.797v-2.787l3.416 3.825zm.25.058l-.27-.012-3.342-3.725v2.641c.012.573.096.736.594.737h.139v.257H35.6c-.287 0-.572-.022-.85-.022-.295 0-.598.022-.896.022h-.027v-.256h.119c.432 0 .561-.282.564-.804v-2.77a.564.564 0 0 0-.568-.567h-.115v-.253h.027c.25 0 .512.025.758.025.193 0 .387-.025.607-.015l2.889 3.257V24c-.002-.52-.348-.584-.543-.591h-.172v-.253h.029c.312 0 .613.025.922.025.268 0 .537-.025.809-.025h.031v.253h-.131c-.273.009-.549.03-.555.812v2.992c0 .229.004.459.035.661l.01.034h-.037zm1.635-4.39c-.494 0-.516.116-.613.596h-.198c.025-.185.055-.369.076-.559.031-.184.041-.371.041-.559h.158c.053.197.217.188.396.188h3.393c.18 0 .344-.003.359-.202l.154.028c-.021.174-.053.354-.068.531-.016.179-.016.358-.016.533l-.199.072c-.012-.243-.045-.629-.484-.629h-1.08v3.498c0 .509.236.566.547.566h.125v.197c-.256 0-.719-.021-1.072-.021-.396 0-.857.021-1.115.021v-.197h.127c.361 0 .547-.033.547-.551v-3.514h-1.078z"/><path fill="#1D1E1C" d="M42.732 27.807c-.256 0-.721-.022-1.072-.022-.396 0-.855.022-1.115.022h-.023v-.257h.15c.361-.003.51-.009.516-.519v-3.49h-1.047v-.056h1.105v3.547c0 .528-.213.576-.574.578h-.098v.141c.262 0 .705-.023 1.086-.023.346 0 .783.023 1.041.023v-.141h-.094c-.318-.002-.576-.076-.576-.594v-3.531h1.109c.439 0 .5.381.514.62l.143-.048c0-.174 0-.346.012-.519.018-.167.045-.339.068-.505l-.1-.018c-.031.193-.217.199-.383.199h-3.428c-.154 0-.322-.006-.383-.191h-.109a4.164 4.164 0 0 1-.037.537c-.018.177-.053.352-.078.525h.145c.086-.459.145-.605.637-.602v.056c-.488.012-.48.095-.586.582l-.006.02h-.253l.006-.037c.027-.182.059-.363.078-.555.027-.182.041-.369.041-.555v-.031h.207l.004.023c.045.164.166.166.336.168h3.428c.184-.002.318-.004.33-.177l.002-.034.029.008.184.028-.002.03c-.023.176-.049.357-.068.529-.016.179-.016.355-.016.533v.02l-.016.008-.239.089v-.042c-.02-.245-.045-.605-.459-.605H42.09v3.475c.006.498.207.533.518.534h.154v.257h-.03zm1.387-.225h.092c.24 0 .49-.033.49-.373v-3.451c0-.342-.25-.375-.49-.375h-.092v-.199c.402 0 1.088.027 1.638.027.559 0 1.238-.027 1.686-.027-.012.286-.004.72.014 1.008l-.193.055c-.037-.428-.113-.771-.807-.771h-.915v1.726h.782c.398 0 .484-.224.521-.583h.195a18.705 18.705 0 0 0 0 1.522l-.195.039c-.037-.395-.057-.65-.512-.65h-.792v1.536c0 .426.382.426.804.426.787 0 1.141-.056 1.336-.802l.186.039a14.55 14.55 0 0 0-.225 1.051c-.424 0-1.182-.021-1.771-.021-.593 0-1.374.021-1.751.021v-.198z"/><path fill="#1D1E1C" d="M47.616 27.75c.059-.335.135-.662.213-.998l-.129-.029c-.197.736-.576.802-1.355.798-.414 0-.831 0-.833-.455v-1.563h.821c.457-.008.504.27.537.644l.145-.028a9.797 9.797 0 0 1-.021-.725c0-.249.004-.494.021-.742h-.145c-.035.34-.145.584-.547.576h-.812v-1.781h.944c.686-.006.801.352.828.764l.143-.039a10.595 10.595 0 0 1-.012-.955c-.447 0-1.115.025-1.658.025-.542 0-1.206-.025-1.61-.025v.137h.064c.236 0 .516.045.518.406v3.451c-.002.361-.281.398-.518.4h-.064v.141c.385 0 1.145-.023 1.724-.023.582-.002 1.322.021 1.746.021m.026.057c-.424 0-1.182-.022-1.771-.022-.593 0-1.374.022-1.751.022h-.027v-.257h.119c.242-.001.455-.019.463-.341v-3.451c-.008-.32-.221-.342-.463-.349h-.119v-.253h.027c.402 0 1.088.025 1.638.025.559 0 1.238-.025 1.686-.025h.029v.031c-.008.098-.008.218-.008.342 0 .225.008.472.023.662v.021l-.023.012-.23.057-.002-.033c-.039-.428-.1-.736-.775-.745h-.888v1.669h.753c.381-.004.447-.199.494-.554l.002-.025h.254v.025c-.014.259-.023.515-.023.774 0 .249.01.498.023.748v.024l-.025.003-.229.045-.002-.029c-.047-.399-.049-.622-.484-.629h-.763v1.511c0 .396.345.394.774.396.793-.002 1.109-.046 1.309-.783l.006-.023.027.004.211.053-.006.029c-.086.348-.164.695-.223 1.045l-.004.021h-.022zm1.953-2.398h.32c.664 0 1.016-.249 1.016-1.026 0-.586-.375-.961-.959-.961-.195 0-.285.018-.377.029v1.958zm-.844-1.526c0-.478-.262-.5-.465-.5h-.121v-.199c.213 0 .621.031 1.023.031.391 0 .711-.031 1.061-.031.828 0 1.564.223 1.564 1.162 0 .587-.396.951-.914 1.158l1.123 1.683c.186.278.316.358.639.396v.197c-.217 0-.426-.021-.641-.021-.207 0-.422.021-.623.021-.504-.664-.941-1.375-1.369-2.132h-.434v1.407c0 .506.238.527.541.527h.113v.197c-.371 0-.754-.021-1.127-.021-.318 0-.625.021-.957.021v-.197h.121c.246 0 .465-.111.465-.354v-3.345z"/><path fill="#1D1E1C" d="M49.915 25.381c.656-.003.984-.23.986-.998-.002-.573-.359-.93-.93-.932-.18 0-.262.016-.352.024v1.905h.296zm-.32.057h-.027v-2.017l.021-.004c.096-.006.184-.021.383-.021.6 0 .988.391.988.986 0 .789-.377 1.055-1.045 1.056h-.32zm0 .179h.451l.01.016c.426.758.859 1.467 1.342 2.117.201 0 .416-.023.621-.023.207 0 .41.023.611.023v-.145c-.307-.035-.451-.129-.629-.404l-1.146-1.713.033-.011c.514-.203.898-.556.898-1.134 0-.913-.709-1.129-1.537-1.129-.348 0-.664.025-1.061.025-.389 0-.779-.025-.992-.025v.137h.09c.203 0 .496.039.496.531v3.345c0 .264-.248.382-.496.382h-.09v.141c.314 0 .615-.023.926-.023.367 0 .736.023 1.104.023v-.141h-.09c-.299 0-.568-.037-.568-.555v-1.438h.027zm3.066 2.19c-.219 0-.43-.022-.643-.022-.205 0-.412.022-.646.013-.5-.663-.936-1.37-1.361-2.122h-.391v1.38c.01.495.207.494.516.495h.145v.257h-.031c-.371 0-.756-.022-1.127-.022-.314 0-.625.022-.957.022h-.027v-.258h.148c.236 0 .436-.103.436-.322v-3.345c-.004-.467-.232-.465-.436-.474h-.148v-.253h.027c.217 0 .623.025 1.023.025.389 0 .709-.025 1.061-.025.83.002 1.594.234 1.594 1.188 0 .594-.393.964-.9 1.172l1.104 1.651c.184.278.301.347.621.383l.025.008v.249h-.033zm4.471-1.327l.012-.01V24c0-.539-.375-.617-.572-.617h-.145v-.199c.312 0 .605.027.92.027.271 0 .537-.027.809-.027v.199h-.098c-.271 0-.586.055-.586.838v2.992c0 .232.01.459.041.662h-.248l-3.393-3.773v2.711c0 .573.109.77.621.77h.111v.197c-.281 0-.564-.021-.852-.021-.293 0-.596.021-.896.021v-.197h.094c.455 0 .592-.311.592-.836v-2.77a.592.592 0 0 0-.598-.594h-.088v-.199c.252 0 .514.027.76.027.195 0 .385-.027.586-.027l2.93 3.296z"/><path fill="#1D1E1C" d="M57.112 26.471v-.012.012zm.02.009l.018-.021-.018.021zm.133 1.37h.215a4.475 4.475 0 0 1-.037-.637v-2.992c0-.791.332-.867.615-.869h.072v-.137c-.26 0-.521.025-.783.025-.301 0-.594-.025-.893-.025v.137h.117c.205.002.598.092.598.648l-.004 2.49-.016.013-.021.022-2.926-3.311c-.193 0-.387.025-.586.025-.244 0-.492-.025-.73-.025v.137h.059a.621.621 0 0 1 .627.625v2.77c0 .525-.148.861-.625.863l-.061-.002v.143c.285 0 .576-.023.867-.023.279 0 .553.023.822.023v-.141h-.082c-.518-.002-.648-.224-.65-.797v-2.787l3.422 3.825zm.248.056l-.268-.01-3.346-3.725v2.641c.01.573.098.736.594.737h.137v.257h-.025c-.289 0-.568-.022-.852-.022-.293 0-.596.022-.896.022h-.025v-.256h.115c.439 0 .561-.282.568-.804v-2.77a.564.564 0 0 0-.57-.567h-.113v-.253h.025c.254 0 .514.025.76.025.193 0 .385-.025.605-.016l2.891 3.258V24c0-.52-.348-.588-.541-.591h-.176v-.253h.031c.312 0 .613.025.92.025.268 0 .537-.025.809-.025h.029v.253h-.127c-.271.009-.547.03-.555.812v2.992c0 .229.008.459.037.662l.008.031h-.035zm2.664-3.984h-.012l-.617 1.863h1.234l-.605-1.863zm-.965 2.918c-.061.226-.145.395-.145.512 0 .197.279.23.5.23h.068v.197c-.26-.01-.531-.021-.793-.021-.238 0-.475.011-.711.021v-.197h.037c.256 0 .473-.148.572-.43l1.053-3.02c.088-.244.203-.57.246-.816.205-.068.475-.202.6-.281.02-.008.029-.016.051-.016s.031 0 .047.021c.021.051.037.111.059.164l1.213 3.445c.076.227.156.472.242.669.08.187.215.263.434.263h.041v.197c-.303-.01-.596-.021-.91-.021-.322 0-.652.011-.988.021v-.197h.07c.154 0 .414-.024.414-.191 0-.089-.064-.262-.133-.471l-.262-.766h-1.49l-.215.687z"/><path fill="#1D1E1C" d="M60.147 23.934l.018-.007-.018.007zm-.556 1.822h1.146l-.568-1.761-.578 1.761zm-.08.059l.633-1.923h.033v.029l-.008.002.008-.002v-.029h.021l.623 1.923h-1.31zm1.345 1.935c.324-.011.645-.023.959-.023.307 0 .594.013.877.023v-.141h-.008c-.227 0-.381-.085-.463-.275-.084-.205-.16-.447-.24-.678l-1.211-3.441a2.604 2.604 0 0 1-.057-.158c-.008-.01-.008-.01-.012-.01h-.011c-.01 0-.021.008-.041.012a2.216 2.216 0 0 1-.586.262c-.037.247-.158.579-.242.822l-1.051 3.023a.63.63 0 0 1-.602.443h-.012v.141c.223-.011.455-.023.686-.023.252 0 .516.013.762.023v-.141h-.037c-.221-.002-.516-.022-.523-.258 0-.13.078-.297.143-.521l.025.009-.025-.01.219-.703h1.535l.262.781c.074.212.135.386.135.483-.006.202-.287.216-.439.218h-.041v.142zm1.87.057a22.524 22.524 0 0 0-.91-.022c-.322 0-.652.011-.988.022h-.029v-.257h.099c.154 0 .381-.034.381-.158 0-.079-.057-.258-.129-.468l-.256-.744h-1.445l-.203.668c-.068.225-.148.398-.148.504.002.162.248.198.471.198h.098v.257h-.029a17.987 17.987 0 0 0-.793-.022c-.238 0-.475.011-.711.022h-.031v-.257h.068c.246 0 .449-.136.547-.403l1.053-3.022c.084-.243.205-.571.26-.833.205-.076.471-.205.596-.284.021-.006.039-.017.066-.017.016 0 .047.006.068.041.023.053.045.113.062.162l1.213 3.445c.074.231.154.473.242.668.078.175.199.243.408.243h.068v.257h-.028zm.291-4.289c-.492 0-.514.116-.615.596H62.2c.029-.185.062-.369.086-.559a4.51 4.51 0 0 0 .037-.559h.156c.053.197.215.188.393.188h3.4c.174 0 .342-.003.354-.202l.154.028c-.023.174-.047.354-.068.531-.014.179-.014.358-.014.533l-.197.072c-.014-.243-.045-.629-.486-.629h-1.078v3.498c0 .509.227.566.543.566h.125v.197c-.252 0-.713-.021-1.072-.021-.393 0-.854.021-1.109.021v-.197h.121c.363 0 .547-.033.547-.551v-3.514h-1.075z"/><path fill="#1D1E1C" d="M65.604 27.807c-.258 0-.717-.022-1.072-.022-.391 0-.852.022-1.109.022h-.033v-.257h.154c.363-.003.508-.009.518-.519v-3.49h-1.045v-.056h1.104v3.547c0 .528-.215.576-.576.576h-.096v.143c.266 0 .703-.023 1.084-.023.348 0 .787.023 1.047.023v-.143h-.1c-.318 0-.572-.074-.572-.592v-3.531h1.107c.443 0 .496.381.512.62l.141-.048c0-.174.002-.346.02-.517.016-.169.039-.341.064-.505l-.1-.02c-.031.193-.215.199-.379.199h-3.431c-.154 0-.318-.006-.383-.195h-.105c-.004.186-.02.363-.043.541-.021.179-.047.352-.076.525h.143c.09-.459.148-.607.641-.602v.056c-.492.01-.482.095-.594.582l-.002.02h-.252l.004-.033c.027-.186.061-.367.082-.559.023-.182.033-.369.033-.555v-.031h.215l.008.023c.045.164.158.166.33.168h3.431c.182-.002.316-.004.326-.177v-.034l.035.008.184.028-.004.03c-.031.176-.055.357-.076.529-.012.179-.012.358-.012.533v.02l-.018.008-.232.087-.002-.042c-.016-.245-.041-.605-.459-.605H64.96v3.475c.01.498.203.533.52.534h.152v.257h-.028zm1.422-.225h.09c.242 0 .492-.033.492-.373v-3.451c0-.342-.25-.375-.492-.375h-.09v-.199c.26 0 .65.027.977.027s.723-.027 1.033-.027v.199h-.092c-.236 0-.488.033-.488.375v3.451c0 .34.252.373.488.373h.092v.197c-.316 0-.711-.021-1.045-.021-.318 0-.705.021-.965.021v-.197z"/><path fill="#1D1E1C" d="M69.005 27.75v-.143h-.061c-.236 0-.516-.037-.516-.398v-3.451c0-.361.279-.406.516-.406h.061v-.137c-.305 0-.684.025-1.002.025-.314 0-.691-.025-.951-.025v.137h.064c.236 0 .518.045.518.406v3.451c0 .361-.281.398-.518.398h-.064v.143c.26 0 .629-.023.939-.023.324 0 .707.023 1.014.023m.031.057c-.324 0-.713-.022-1.045-.022-.318 0-.705.022-.965.022h-.027v-.257h.117c.242-.001.461-.019.461-.341v-3.451c0-.32-.219-.342-.461-.349h-.117v-.253h.027c.26 0 .65.025.977.025.324 0 .721-.025 1.033-.025h.027v.253h-.119c-.242.007-.459.028-.461.349v3.451c.002.322.219.34.461.341h.119v.257h-.027zm2.723-.216c1.279 0 1.5-1.132 1.5-2.087 0-.961-.518-2.129-1.613-2.129-1.148 0-1.494 1.029-1.494 1.91-.001 1.174.538 2.306 1.607 2.306m-.1-4.505c1.4 0 2.521.87 2.521 2.271 0 1.516-1.088 2.518-2.486 2.518-1.396 0-2.467-.943-2.467-2.359a2.396 2.396 0 0 1 2.432-2.43"/><path fill="#1D1E1C" d="M70.124 25.285c0-.885.348-1.936 1.521-1.936 1.119 0 1.643 1.188 1.645 2.154-.002.955-.23 2.112-1.531 2.112v-.055c1.252-.001 1.469-1.102 1.469-2.057s-.512-2.098-1.582-2.098c-1.129 0-1.463 1.002-1.465 1.879 0 1.174.533 2.274 1.578 2.275v.055c-1.094.001-1.635-1.143-1.635-2.329m-.922.231a2.426 2.426 0 0 1 2.457-2.457v.055c-1.354 0-2.396 1.048-2.4 2.401.004 1.4 1.049 2.332 2.436 2.334 1.389-.002 2.457-.992 2.461-2.492-.004-1.384-1.107-2.241-2.496-2.243v-.055c1.412.002 2.547.882 2.551 2.299-.002 1.529-1.102 2.547-2.516 2.549-1.411-.003-2.491-.964-2.493-2.391m9.41.964l.018-.01V24c0-.539-.377-.617-.574-.617h-.143v-.199c.311 0 .611.027.922.027.271 0 .539-.027.809-.027v.199h-.098c-.279 0-.588.055-.588.838v2.992c0 .232.008.459.039.662h-.25l-3.391-3.773v2.711c0 .573.113.77.621.77h.113v.197c-.285 0-.57-.021-.852-.021-.293 0-.6.021-.895.021v-.197h.092c.453 0 .596-.311.596-.836v-2.77a.593.593 0 0 0-.602-.594h-.086v-.199c.248 0 .508.027.758.027.193 0 .387-.027.586-.027l2.925 3.296z"/><path fill="#1D1E1C" d="M78.601 26.471v-.005l-.008-.007.008.012zm.011.009l.021-.021-.021.021zm.135 1.37h.219a4.2 4.2 0 0 1-.037-.637v-2.992c0-.793.334-.867.613-.869h.074v-.137c-.262 0-.52.025-.781.025-.303 0-.594-.025-.896-.025v.137h.117c.205.002.602.094.602.648l-.006 2.49-.018.013-.021.022-2.924-3.311c-.197 0-.387.025-.586.025-.246 0-.49-.025-.734-.025v.137h.062a.623.623 0 0 1 .625.625v2.77c0 .525-.148.861-.619.863l-.068-.002v.143c.291 0 .582-.023.871-.023.273 0 .547.023.822.023v-.141h-.086c-.516-.002-.643-.224-.643-.797v-2.787l3.414 3.825zm.25.056l-.273-.01-3.34-3.725v2.641c.012.573.1.736.592.737h.143v.257h-.027c-.285 0-.57-.022-.852-.022-.293 0-.6.022-.895.022h-.029v-.256h.121c.434 0 .561-.282.561-.804v-2.77a.561.561 0 0 0-.566-.567h-.115v-.253h.029c.248 0 .508.025.758.025.191 0 .383-.025.605-.015l2.893 3.257V24c-.002-.52-.352-.584-.545-.591h-.174v-.253h.031c.311 0 .611.025.922.025.271 0 .537-.025.809-.025h.027v.253h-.129c-.27.009-.549.034-.555.812v2.992c0 .229.006.459.035.662l.004.031h-.03zm2.668-3.984h-.018l-.611 1.863h1.232l-.603-1.863zM80.7 26.84c-.064.226-.143.395-.143.512 0 .197.275.23.49.23h.076v.197c-.266-.01-.535-.021-.797-.021-.238 0-.475.011-.711.021v-.197h.039c.256 0 .475-.148.574-.43l1.053-3.02c.086-.244.203-.57.244-.816a3.15 3.15 0 0 0 .596-.281c.018-.008.035-.016.053-.016.023 0 .033 0 .047.021.023.051.039.111.059.164l1.209 3.445c.08.227.16.472.246.669.08.187.219.263.436.263h.039v.197c-.297-.01-.594-.021-.908-.021-.322 0-.648.011-.984.021v-.197h.068c.15 0 .408-.024.408-.191 0-.089-.059-.262-.137-.471l-.25-.766h-1.496l-.211.687z"/><path fill="#1D1E1C" d="M81.638 23.934l.01-.007-.01.007zm-.559 1.822h1.148l-.57-1.761-.578 1.761zm-.086.056l.635-1.919h.038v.029l-.008.002.008-.002v-.029h.018l.623 1.919h-1.314zm1.348 1.938c.326-.011.65-.023.961-.023.305 0 .592.013.881.023v-.141h-.014c-.223 0-.381-.085-.459-.275-.09-.205-.168-.447-.244-.676l-1.215-3.443c-.018-.051-.035-.113-.051-.158-.006-.01-.006-.01-.014-.01h-.012c-.014 0-.02.01-.037.012a2.45 2.45 0 0 1-.586.262c-.039.247-.158.579-.244.822l-1.057 3.023c-.098.281-.328.443-.596.443h-.012v.141c.227-.011.453-.023.684-.023.254 0 .512.013.766.023v-.141h-.045c-.213-.002-.51-.022-.523-.258.002-.13.086-.297.148-.521l.028.01-.027-.01.219-.703h1.533l.264.781c.076.214.135.386.135.483-.012.202-.287.216-.438.218h-.045v.141zm1.865.057c-.293-.01-.59-.022-.904-.022-.322 0-.648.013-.984.022h-.031v-.257h.099c.152 0 .381-.034.381-.158 0-.079-.061-.255-.133-.468l-.248-.744h-1.455l-.205.668c-.068.225-.141.398-.141.504 0 .162.248.198.463.198h.102v.257h-.027c-.264-.01-.533-.022-.795-.022-.234 0-.475.013-.711.022h-.029v-.257h.068c.244 0 .447-.136.545-.403l1.055-3.022c.082-.243.203-.571.26-.833a4.29 4.29 0 0 0 .602-.284c.016-.006.031-.013.059-.013.02-.004.053.002.076.039.018.051.039.111.062.16l1.207 3.445c.078.231.154.473.24.668.08.175.197.243.408.243h.07v.257h-.034zm1.66-.673c0 .265.184.347.396.372.271.019.566.019.871-.015a.92.92 0 0 0 .629-.357c.104-.146.164-.326.207-.472h.188c-.07.375-.162.74-.244 1.117-.578 0-1.16-.021-1.734-.021-.582 0-1.16.021-1.738.021v-.197h.09c.234 0 .498-.033.498-.438v-3.387c0-.342-.264-.375-.498-.375h-.09v-.199c.348 0 .691.027 1.039.027.34 0 .664-.027.998-.027v.199h-.162c-.248 0-.449.008-.449.356v3.396z"/><path fill="#1D1E1C" d="M87.892 27.75c.074-.354.162-.707.23-1.061h-.133a1.48 1.48 0 0 1-.205.463.995.995 0 0 1-.65.368 5.19 5.19 0 0 1-.504.026c-.129 0-.252-.01-.371-.014-.213-.023-.42-.118-.418-.399v-3.395c0-.368.229-.388.475-.388h.133v-.137c-.322 0-.643.025-.967.025-.344 0-.676-.025-1.014-.025v.137h.062c.234 0 .527.045.527.406v3.387c0 .424-.293.463-.527.463h-.062v.143c.566 0 1.139-.023 1.711-.023.568.001 1.142.024 1.713.024m.021.057c-.58 0-1.16-.022-1.734-.022-.582 0-1.16.022-1.74.022h-.027v-.257h.119c.234-.001.463-.017.467-.405v-3.387c-.004-.32-.23-.342-.467-.349h-.119v-.253h.027c.35 0 .693.025 1.043.025.336 0 .66-.025.996-.025h.027v.253h-.189c-.26.009-.418-.003-.42.33v3.395c.002.247.16.313.367.343.119.005.238.01.367.01.16 0 .324-.005.494-.025a.896.896 0 0 0 .617-.341c.1-.144.156-.322.197-.466l.01-.025h.245l-.006.04c-.074.374-.164.745-.244 1.116l-.01.021h-.02zm.053-4.116h.084c.088 0 .129-.066.129-.174 0-.111-.066-.146-.135-.146h-.078v.32zm-.235.368v-.035c.088-.012.102-.006.102-.061v-.512c0-.074-.008-.1-.096-.096v-.031h.352c.125 0 .234.055.234.182 0 .102-.068.18-.166.207l.117.162a.727.727 0 0 0 .152.161v.022h-.135c-.066 0-.123-.137-.248-.319h-.078v.232c0 .046.018.04.102.052v.035h-.336zm.346.198a.56.56 0 0 0 .549-.565.563.563 0 0 0-.549-.566.564.564 0 0 0-.549.566c0 .3.239.565.549.565m0-1.256a.68.68 0 0 1 .693.69c0 .388-.299.693-.693.693s-.695-.306-.695-.693c0-.386.301-.69.695-.69"/><path fill="#004A97" d="M17.01 31.5c6.287.031 12.023-5.125 12.023-11.398 0-6.861-5.736-11.607-12.023-11.602H11.6C5.236 8.494 0 13.24 0 20.102c0 6.275 5.236 11.43 11.6 11.398h5.41z"/><path fill="#FFF" d="M14.014 26.209v-12.46a6.686 6.686 0 0 1 4.283 6.231 6.684 6.684 0 0 1-4.283 6.229M4.953 19.98a6.692 6.692 0 0 1 4.283-6.231v12.454a6.675 6.675 0 0 1-4.283-6.223m6.672-10.531C5.809 9.451 1.1 14.164 1.1 19.98c0 5.812 4.709 10.521 10.525 10.525 5.812-.004 10.525-4.713 10.527-10.525-.002-5.816-4.714-10.529-10.527-10.531"/><path fill="#1D1E1C" d="M33.904 19.12c0 .933.668 1.042 1.258 1.042 2.619 0 3.475-1.973 3.475-3.774 0-2.263-1.453-3.895-3.787-3.895-.496 0-.723.034-.945.048v6.579zm-1.183-5.673c0-1.086-.566-1.017-1.107-1.027v-.313c.467.024.955.024 1.426.024.506 0 1.195-.024 2.092-.024 3.131 0 4.836 2.091 4.836 4.235 0 1.195-.699 4.205-4.982 4.205-.615 0-1.182-.021-1.754-.021-.545 0-1.076.011-1.617.021v-.312c.721-.073 1.072-.097 1.107-.922v-5.866zm8.967-.293a.619.619 0 0 1-.594-.602c0-.301.289-.584.594-.584.314 0 .592.258.592.584s-.268.602-.592.602m-1.293 7.081h.227c.336 0 .58 0 .58-.401v-3.278c0-.53-.18-.606-.631-.845v-.197c.57-.17 1.252-.398 1.301-.43.08-.054.152-.064.213-.064s.086.074.086.172v4.643c0 .401.268.401.604.401h.209v.312c-.414 0-.838-.021-1.271-.021-.436 0-.871.011-1.316.021v-.313zm3.732-3.606c0-.445-.131-.566-.701-.799v-.229a15.163 15.163 0 0 0 1.596-.582c.039 0 .078.026.078.121v.787c.685-.493 1.284-.908 2.093-.908 1.027 0 1.387.75 1.387 1.693v3.121c0 .401.268.401.609.401h.215v.312c-.424 0-.846-.021-1.283-.021-.434 0-.873.011-1.303.021v-.312h.219c.338 0 .578 0 .578-.401v-3.131c0-.691-.422-1.029-1.115-1.029-.385 0-1.003.314-1.399.58v3.58c0 .401.262.401.604.401h.216v.312c-.423 0-.845-.021-1.284-.021-.432 0-.869.011-1.305.021v-.312h.223c.336 0 .574 0 .574-.401v-3.204zm8.337.194c.303 0 .34-.155.34-.302 0-.617-.377-1.114-1.051-1.114-.74 0-1.248.542-1.393 1.416h2.104zm-2.139.384c-.031.113-.031.294 0 .706.068 1.147.811 2.091 1.777 2.091.664 0 1.184-.359 1.629-.809l.17.168c-.555.74-1.246 1.367-2.236 1.367-1.924 0-2.311-1.862-2.311-2.637 0-2.373 1.596-3.074 2.443-3.074.98 0 2.035.616 2.045 1.897 0 .077 0 .147-.01.223l-.111.067h-3.396zm3.793 3.028h.33c.338 0 .58 0 .58-.401v-3.398c0-.373-.447-.447-.629-.543v-.182c.881-.377 1.367-.691 1.479-.691.066 0 .105.037.105.158v1.086h.025c.303-.468.812-1.244 1.549-1.244.303 0 .688.205.688.64 0 .329-.227.618-.564.618-.377 0-.377-.289-.799-.289-.207 0-.885.275-.885 1.006v2.84c0 .401.24.401.578.401h.68v.312c-.67-.011-1.176-.021-1.693-.021-.496 0-1.004.011-1.443.021v-.313zm4.662-1.367c.154.796.641 1.474 1.521 1.474.713 0 .977-.432.977-.855 0-1.43-2.631-.971-2.631-2.918 0-.676.539-1.549 1.873-1.549.387 0 .906.111 1.377.354l.088 1.23h-.283c-.115-.76-.539-1.196-1.311-1.196-.486 0-.947.28-.947.8 0 1.416 2.807.979 2.807 2.877 0 .798-.645 1.646-2.082 1.646-.486 0-1.055-.17-1.475-.412l-.135-1.391.221-.06zm14.393-4.573h-.305c-.229-1.416-1.232-1.983-2.588-1.983-1.391 0-3.412.931-3.412 3.833 0 2.445 1.744 4.197 3.605 4.197 1.197 0 2.188-.821 2.434-2.09l.273.07-.273 1.764c-.512.317-1.879.645-2.674.645-2.832 0-4.623-1.826-4.623-4.547 0-2.48 2.217-4.262 4.586-4.262.979 0 1.926.316 2.852.642l.125 1.731zm.433 5.94h.23c.338 0 .58 0 .58-.401v-6.735c0-.787-.182-.81-.639-.942v-.193c.482-.158.988-.377 1.242-.523.133-.068.23-.131.268-.131.072 0 .096.072.096.169v8.356c0 .401.266.401.607.401h.203v.312c-.41 0-.834-.021-1.27-.021s-.871.011-1.318.021v-.313zm7.768-.353c0 .222.133.231.338.231.145 0 .33-.01.486-.01v.25c-.521.05-1.516.303-1.744.377l-.061-.037v-.979c-.727.592-1.285 1.016-2.141 1.016-.654 0-1.332-.424-1.332-1.437v-3.1c0-.312-.047-.618-.727-.681v-.227c.438-.012 1.404-.086 1.564-.086.135 0 .135.086.135.352v3.121c0 .363 0 1.402 1.049 1.402.41 0 .955-.314 1.465-.736v-3.256c0-.24-.582-.373-1.016-.494v-.217c1.086-.075 1.762-.172 1.887-.172.096 0 .096.086.096.221v4.462zm2.404-.7c0 .463.438 1.234 1.25 1.234 1.293 0 1.836-1.271 1.836-2.346 0-1.307-.99-2.396-1.936-2.396-.449 0-.824.29-1.15.568v2.94zm0-3.289c.488-.414 1.143-.873 1.807-.873 1.404 0 2.248 1.223 2.248 2.541 0 1.584-1.162 3.17-2.889 3.17-.896 0-1.369-.29-1.684-.424l-.363.279-.254-.133c.107-.715.168-1.416.168-2.154v-5.2c0-.787-.18-.81-.641-.942v-.193c.484-.158.994-.377 1.248-.523.135-.068.225-.131.266-.131.072 0 .094.072.094.169v4.414zM31.596 27.582h.098c.234 0 .48-.033.48-.373v-3.451c0-.342-.246-.375-.48-.375h-.098v-.199c.256 0 .65.027.975.027.328 0 .723-.027 1.035-.027v.199h-.092c-.238 0-.488.033-.488.375v3.451c0 .34.25.373.488.373h.092v.197c-.316 0-.713-.021-1.037-.021-.326 0-.717.021-.973.021v-.197z"/><path fill="#1D1E1C" d="M33.58 27.75v-.143h-.066c-.238 0-.516-.037-.518-.398v-3.451c.002-.361.279-.406.518-.406h.066v-.137c-.311 0-.691.025-1.01.025-.312 0-.689-.025-.943-.025v.137h.066c.229 0 .508.045.508.406v3.451c0 .361-.279.398-.508.398h-.066v.143c.254 0 .627-.023.941-.023.317 0 .698.023 1.012.023m.025.057c-.32 0-.713-.022-1.037-.022-.326 0-.713.022-.973.022h-.027v-.257h.125c.234-.001.451-.019.453-.341v-3.451c-.002-.32-.219-.342-.453-.349h-.125v-.253h.027c.26 0 .658.025.975.025.326 0 .721-.025 1.035-.025h.029v.253h-.121c-.244.007-.461.028-.463.349v3.451c.002.322.219.34.463.341h.121v.257h-.029zm4.52-1.327l.016-.01V24c0-.539-.379-.617-.576-.617h-.143v-.199c.312 0 .611.027.922.027.27 0 .539-.027.809-.027v.199h-.1c-.273 0-.584.055-.584.838v2.992c0 .232.006.459.037.662h-.25l-3.389-3.773v2.711c0 .573.109.77.621.77h.112v.197c-.285 0-.57-.021-.85-.021-.295 0-.602.021-.896.021v-.197h.092c.455 0 .592-.311.592-.836v-2.77a.59.59 0 0 0-.596-.594h-.088v-.199c.25 0 .506.027.758.027.195 0 .389-.027.586-.027l2.927 3.296z"/><path fill="#1D1E1C" d="M38.107 26.471v-.005l-.002-.007.002.012zm.018.009l.023-.021-.023.021zm.131 1.37h.219a4.215 4.215 0 0 1-.033-.637v-2.992c0-.791.33-.869.611-.869h.07v-.137c-.26 0-.52.025-.779.025-.303 0-.598-.025-.893-.025v.137h.113c.203 0 .604.092.604.648l-.01 2.49-.014.013-.02.022-2.928-3.311c-.197 0-.389.025-.586.025-.242 0-.49-.025-.73-.025v.137h.061c.312 0 .627.24.627.625v2.77c0 .525-.15.861-.623.863l-.064-.002v.143c.289 0 .58-.023.869-.023.271 0 .545.023.818.023v-.141h-.08c-.518-.002-.648-.224-.648-.797v-2.787l3.416 3.825zm.25.058l-.27-.012-3.342-3.725v2.641c.012.573.096.736.594.737h.139v.257H35.6c-.287 0-.572-.022-.85-.022-.295 0-.598.022-.896.022h-.027v-.256h.119c.432 0 .561-.282.564-.804v-2.77a.564.564 0 0 0-.568-.567h-.115v-.253h.027c.25 0 .512.025.758.025.193 0 .387-.025.607-.015l2.889 3.257V24c-.002-.52-.348-.584-.543-.591h-.172v-.253h.029c.312 0 .613.025.922.025.268 0 .537-.025.809-.025h.031v.253h-.131c-.273.009-.549.03-.555.812v2.992c0 .229.004.459.035.661l.01.034h-.037zm1.635-4.39c-.494 0-.516.116-.613.596h-.198c.025-.185.055-.369.076-.559.031-.184.041-.371.041-.559h.158c.053.197.217.188.396.188h3.393c.18 0 .344-.003.359-.202l.154.028c-.021.174-.053.354-.068.531-.016.179-.016.358-.016.533l-.199.072c-.012-.243-.045-.629-.484-.629h-1.08v3.498c0 .509.236.566.547.566h.125v.197c-.256 0-.719-.021-1.072-.021-.396 0-.857.021-1.115.021v-.197h.127c.361 0 .547-.033.547-.551v-3.514h-1.078z"/><path fill="#1D1E1C" d="M42.732 27.807c-.256 0-.721-.022-1.072-.022-.396 0-.855.022-1.115.022h-.023v-.257h.15c.361-.003.51-.009.516-.519v-3.49h-1.047v-.056h1.105v3.547c0 .528-.213.576-.574.578h-.098v.141c.262 0 .705-.023 1.086-.023.346 0 .783.023 1.041.023v-.141h-.094c-.318-.002-.576-.076-.576-.594v-3.531h1.109c.439 0 .5.381.514.62l.143-.048c0-.174 0-.346.012-.519.018-.167.045-.339.068-.505l-.1-.018c-.031.193-.217.199-.383.199h-3.428c-.154 0-.322-.006-.383-.191h-.109a4.164 4.164 0 0 1-.037.537c-.018.177-.053.352-.078.525h.145c.086-.459.145-.605.637-.602v.056c-.488.012-.48.095-.586.582l-.006.02h-.253l.006-.037c.027-.182.059-.363.078-.555.027-.182.041-.369.041-.555v-.031h.207l.004.023c.045.164.166.166.336.168h3.428c.184-.002.318-.004.33-.177l.002-.034.029.008.184.028-.002.03c-.023.176-.049.357-.068.529-.016.179-.016.355-.016.533v.02l-.016.008-.239.089v-.042c-.02-.245-.045-.605-.459-.605H42.09v3.475c.006.498.207.533.518.534h.154v.257h-.03zm1.387-.225h.092c.24 0 .49-.033.49-.373v-3.451c0-.342-.25-.375-.49-.375h-.092v-.199c.402 0 1.088.027 1.638.027.559 0 1.238-.027 1.686-.027-.012.286-.004.72.014 1.008l-.193.055c-.037-.428-.113-.771-.807-.771h-.915v1.726h.782c.398 0 .484-.224.521-.583h.195a18.705 18.705 0 0 0 0 1.522l-.195.039c-.037-.395-.057-.65-.512-.65h-.792v1.536c0 .426.382.426.804.426.787 0 1.141-.056 1.336-.802l.186.039a14.55 14.55 0 0 0-.225 1.051c-.424 0-1.182-.021-1.771-.021-.593 0-1.374.021-1.751.021v-.198z"/><path fill="#1D1E1C" d="M47.616 27.75c.059-.335.135-.662.213-.998l-.129-.029c-.197.736-.576.802-1.355.798-.414 0-.831 0-.833-.455v-1.563h.821c.457-.008.504.27.537.644l.145-.028a9.797 9.797 0 0 1-.021-.725c0-.249.004-.494.021-.742h-.145c-.035.34-.145.584-.547.576h-.812v-1.781h.944c.686-.006.801.352.828.764l.143-.039a10.595 10.595 0 0 1-.012-.955c-.447 0-1.115.025-1.658.025-.542 0-1.206-.025-1.61-.025v.137h.064c.236 0 .516.045.518.406v3.451c-.002.361-.281.398-.518.4h-.064v.141c.385 0 1.145-.023 1.724-.023.582-.002 1.322.021 1.746.021m.026.057c-.424 0-1.182-.022-1.771-.022-.593 0-1.374.022-1.751.022h-.027v-.257h.119c.242-.001.455-.019.463-.341v-3.451c-.008-.32-.221-.342-.463-.349h-.119v-.253h.027c.402 0 1.088.025 1.638.025.559 0 1.238-.025 1.686-.025h.029v.031c-.008.098-.008.218-.008.342 0 .225.008.472.023.662v.021l-.023.012-.23.057-.002-.033c-.039-.428-.1-.736-.775-.745h-.888v1.669h.753c.381-.004.447-.199.494-.554l.002-.025h.254v.025c-.014.259-.023.515-.023.774 0 .249.01.498.023.748v.024l-.025.003-.229.045-.002-.029c-.047-.399-.049-.622-.484-.629h-.763v1.511c0 .396.345.394.774.396.793-.002 1.109-.046 1.309-.783l.006-.023.027.004.211.053-.006.029c-.086.348-.164.695-.223 1.045l-.004.021h-.022zm1.953-2.398h.32c.664 0 1.016-.249 1.016-1.026 0-.586-.375-.961-.959-.961-.195 0-.285.018-.377.029v1.958zm-.844-1.526c0-.478-.262-.5-.465-.5h-.121v-.199c.213 0 .621.031 1.023.031.391 0 .711-.031 1.061-.031.828 0 1.564.223 1.564 1.162 0 .587-.396.951-.914 1.158l1.123 1.683c.186.278.316.358.639.396v.197c-.217 0-.426-.021-.641-.021-.207 0-.422.021-.623.021-.504-.664-.941-1.375-1.369-2.132h-.434v1.407c0 .506.238.527.541.527h.113v.197c-.371 0-.754-.021-1.127-.021-.318 0-.625.021-.957.021v-.197h.121c.246 0 .465-.111.465-.354v-3.345z"/><path fill="#1D1E1C" d="M49.915 25.381c.656-.003.984-.23.986-.998-.002-.573-.359-.93-.93-.932-.18 0-.262.016-.352.024v1.905h.296zm-.32.057h-.027v-2.017l.021-.004c.096-.006.184-.021.383-.021.6 0 .988.391.988.986 0 .789-.377 1.055-1.045 1.056h-.32zm0 .179h.451l.01.016c.426.758.859 1.467 1.342 2.117.201 0 .416-.023.621-.023.207 0 .41.023.611.023v-.145c-.307-.035-.451-.129-.629-.404l-1.146-1.713.033-.011c.514-.203.898-.556.898-1.134 0-.913-.709-1.129-1.537-1.129-.348 0-.664.025-1.061.025-.389 0-.779-.025-.992-.025v.137h.09c.203 0 .496.039.496.531v3.345c0 .264-.248.382-.496.382h-.09v.141c.314 0 .615-.023.926-.023.367 0 .736.023 1.104.023v-.141h-.09c-.299 0-.568-.037-.568-.555v-1.438h.027zm3.066 2.19c-.219 0-.43-.022-.643-.022-.205 0-.412.022-.646.013-.5-.663-.936-1.37-1.361-2.122h-.391v1.38c.01.495.207.494.516.495h.145v.257h-.031c-.371 0-.756-.022-1.127-.022-.314 0-.625.022-.957.022h-.027v-.258h.148c.236 0 .436-.103.436-.322v-3.345c-.004-.467-.232-.465-.436-.474h-.148v-.253h.027c.217 0 .623.025 1.023.025.389 0 .709-.025 1.061-.025.83.002 1.594.234 1.594 1.188 0 .594-.393.964-.9 1.172l1.104 1.651c.184.278.301.347.621.383l.025.008v.249h-.033zm4.471-1.327l.012-.01V24c0-.539-.375-.617-.572-.617h-.145v-.199c.312 0 .605.027.92.027.271 0 .537-.027.809-.027v.199h-.098c-.271 0-.586.055-.586.838v2.992c0 .232.01.459.041.662h-.248l-3.393-3.773v2.711c0 .573.109.77.621.77h.111v.197c-.281 0-.564-.021-.852-.021-.293 0-.596.021-.896.021v-.197h.094c.455 0 .592-.311.592-.836v-2.77a.592.592 0 0 0-.598-.594h-.088v-.199c.252 0 .514.027.76.027.195 0 .385-.027.586-.027l2.93 3.296z"/><path fill="#1D1E1C" d="M57.112 26.471v-.012.012zm.02.009l.018-.021-.018.021zm.133 1.37h.215a4.475 4.475 0 0 1-.037-.637v-2.992c0-.791.332-.867.615-.869h.072v-.137c-.26 0-.521.025-.783.025-.301 0-.594-.025-.893-.025v.137h.117c.205.002.598.092.598.648l-.004 2.49-.016.013-.021.022-2.926-3.311c-.193 0-.387.025-.586.025-.244 0-.492-.025-.73-.025v.137h.059a.621.621 0 0 1 .627.625v2.77c0 .525-.148.861-.625.863l-.061-.002v.143c.285 0 .576-.023.867-.023.279 0 .553.023.822.023v-.141h-.082c-.518-.002-.648-.224-.65-.797v-2.787l3.422 3.825zm.248.056l-.268-.01-3.346-3.725v2.641c.01.573.098.736.594.737h.137v.257h-.025c-.289 0-.568-.022-.852-.022-.293 0-.596.022-.896.022h-.025v-.256h.115c.439 0 .561-.282.568-.804v-2.77a.564.564 0 0 0-.57-.567h-.113v-.253h.025c.254 0 .514.025.76.025.193 0 .385-.025.605-.016l2.891 3.258V24c0-.52-.348-.588-.541-.591h-.176v-.253h.031c.312 0 .613.025.92.025.268 0 .537-.025.809-.025h.029v.253h-.127c-.271.009-.547.03-.555.812v2.992c0 .229.008.459.037.662l.008.031h-.035zm2.664-3.984h-.012l-.617 1.863h1.234l-.605-1.863zm-.965 2.918c-.061.226-.145.395-.145.512 0 .197.279.23.5.23h.068v.197c-.26-.01-.531-.021-.793-.021-.238 0-.475.011-.711.021v-.197h.037c.256 0 .473-.148.572-.43l1.053-3.02c.088-.244.203-.57.246-.816.205-.068.475-.202.6-.281.02-.008.029-.016.051-.016s.031 0 .047.021c.021.051.037.111.059.164l1.213 3.445c.076.227.156.472.242.669.08.187.215.263.434.263h.041v.197c-.303-.01-.596-.021-.91-.021-.322 0-.652.011-.988.021v-.197h.07c.154 0 .414-.024.414-.191 0-.089-.064-.262-.133-.471l-.262-.766h-1.49l-.215.687z"/><path fill="#1D1E1C" d="M60.147 23.934l.018-.007-.018.007zm-.556 1.822h1.146l-.568-1.761-.578 1.761zm-.08.059l.633-1.923h.033v.029l-.008.002.008-.002v-.029h.021l.623 1.923h-1.31zm1.345 1.935c.324-.011.645-.023.959-.023.307 0 .594.013.877.023v-.141h-.008c-.227 0-.381-.085-.463-.275-.084-.205-.16-.447-.24-.678l-1.211-3.441a2.604 2.604 0 0 1-.057-.158c-.008-.01-.008-.01-.012-.01h-.011c-.01 0-.021.008-.041.012a2.216 2.216 0 0 1-.586.262c-.037.247-.158.579-.242.822l-1.051 3.023a.63.63 0 0 1-.602.443h-.012v.141c.223-.011.455-.023.686-.023.252 0 .516.013.762.023v-.141h-.037c-.221-.002-.516-.022-.523-.258 0-.13.078-.297.143-.521l.025.009-.025-.01.219-.703h1.535l.262.781c.074.212.135.386.135.483-.006.202-.287.216-.439.218h-.041v.142zm1.87.057a22.524 22.524 0 0 0-.91-.022c-.322 0-.652.011-.988.022h-.029v-.257h.099c.154 0 .381-.034.381-.158 0-.079-.057-.258-.129-.468l-.256-.744h-1.445l-.203.668c-.068.225-.148.398-.148.504.002.162.248.198.471.198h.098v.257h-.029a17.987 17.987 0 0 0-.793-.022c-.238 0-.475.011-.711.022h-.031v-.257h.068c.246 0 .449-.136.547-.403l1.053-3.022c.084-.243.205-.571.26-.833.205-.076.471-.205.596-.284.021-.006.039-.017.066-.017.016 0 .047.006.068.041.023.053.045.113.062.162l1.213 3.445c.074.231.154.473.242.668.078.175.199.243.408.243h.068v.257h-.028zm.291-4.289c-.492 0-.514.116-.615.596H62.2c.029-.185.062-.369.086-.559a4.51 4.51 0 0 0 .037-.559h.156c.053.197.215.188.393.188h3.4c.174 0 .342-.003.354-.202l.154.028c-.023.174-.047.354-.068.531-.014.179-.014.358-.014.533l-.197.072c-.014-.243-.045-.629-.486-.629h-1.078v3.498c0 .509.227.566.543.566h.125v.197c-.252 0-.713-.021-1.072-.021-.393 0-.854.021-1.109.021v-.197h.121c.363 0 .547-.033.547-.551v-3.514h-1.075z"/><path fill="#1D1E1C" d="M65.604 27.807c-.258 0-.717-.022-1.072-.022-.391 0-.852.022-1.109.022h-.033v-.257h.154c.363-.003.508-.009.518-.519v-3.49h-1.045v-.056h1.104v3.547c0 .528-.215.576-.576.576h-.096v.143c.266 0 .703-.023 1.084-.023.348 0 .787.023 1.047.023v-.143h-.1c-.318 0-.572-.074-.572-.592v-3.531h1.107c.443 0 .496.381.512.62l.141-.048c0-.174.002-.346.02-.517.016-.169.039-.341.064-.505l-.1-.02c-.031.193-.215.199-.379.199h-3.431c-.154 0-.318-.006-.383-.195h-.105c-.004.186-.02.363-.043.541-.021.179-.047.352-.076.525h.143c.09-.459.148-.607.641-.602v.056c-.492.01-.482.095-.594.582l-.002.02h-.252l.004-.033c.027-.186.061-.367.082-.559.023-.182.033-.369.033-.555v-.031h.215l.008.023c.045.164.158.166.33.168h3.431c.182-.002.316-.004.326-.177v-.034l.035.008.184.028-.004.03c-.031.176-.055.357-.076.529-.012.179-.012.358-.012.533v.02l-.018.008-.232.087-.002-.042c-.016-.245-.041-.605-.459-.605H64.96v3.475c.01.498.203.533.52.534h.152v.257h-.028zm1.422-.225h.09c.242 0 .492-.033.492-.373v-3.451c0-.342-.25-.375-.492-.375h-.09v-.199c.26 0 .65.027.977.027s.723-.027 1.033-.027v.199h-.092c-.236 0-.488.033-.488.375v3.451c0 .34.252.373.488.373h.092v.197c-.316 0-.711-.021-1.045-.021-.318 0-.705.021-.965.021v-.197z"/><path fill="#1D1E1C" d="M69.005 27.75v-.143h-.061c-.236 0-.516-.037-.516-.398v-3.451c0-.361.279-.406.516-.406h.061v-.137c-.305 0-.684.025-1.002.025-.314 0-.691-.025-.951-.025v.137h.064c.236 0 .518.045.518.406v3.451c0 .361-.281.398-.518.398h-.064v.143c.26 0 .629-.023.939-.023.324 0 .707.023 1.014.023m.031.057c-.324 0-.713-.022-1.045-.022-.318 0-.705.022-.965.022h-.027v-.257h.117c.242-.001.461-.019.461-.341v-3.451c0-.32-.219-.342-.461-.349h-.117v-.253h.027c.26 0 .65.025.977.025.324 0 .721-.025 1.033-.025h.027v.253h-.119c-.242.007-.459.028-.461.349v3.451c.002.322.219.34.461.341h.119v.257h-.027zm2.723-.216c1.279 0 1.5-1.132 1.5-2.087 0-.961-.518-2.129-1.613-2.129-1.148 0-1.494 1.029-1.494 1.91-.001 1.174.538 2.306 1.607 2.306m-.1-4.505c1.4 0 2.521.87 2.521 2.271 0 1.516-1.088 2.518-2.486 2.518-1.396 0-2.467-.943-2.467-2.359a2.396 2.396 0 0 1 2.432-2.43"/><path fill="#1D1E1C" d="M70.124 25.285c0-.885.348-1.936 1.521-1.936 1.119 0 1.643 1.188 1.645 2.154-.002.955-.23 2.112-1.531 2.112v-.055c1.252-.001 1.469-1.102 1.469-2.057s-.512-2.098-1.582-2.098c-1.129 0-1.463 1.002-1.465 1.879 0 1.174.533 2.274 1.578 2.275v.055c-1.094.001-1.635-1.143-1.635-2.329m-.922.231a2.426 2.426 0 0 1 2.457-2.457v.055c-1.354 0-2.396 1.048-2.4 2.401.004 1.4 1.049 2.332 2.436 2.334 1.389-.002 2.457-.992 2.461-2.492-.004-1.384-1.107-2.241-2.496-2.243v-.055c1.412.002 2.547.882 2.551 2.299-.002 1.529-1.102 2.547-2.516 2.549-1.411-.003-2.491-.964-2.493-2.391m9.41.964l.018-.01V24c0-.539-.377-.617-.574-.617h-.143v-.199c.311 0 .611.027.922.027.271 0 .539-.027.809-.027v.199h-.098c-.279 0-.588.055-.588.838v2.992c0 .232.008.459.039.662h-.25l-3.391-3.773v2.711c0 .573.113.77.621.77h.113v.197c-.285 0-.57-.021-.852-.021-.293 0-.6.021-.895.021v-.197h.092c.453 0 .596-.311.596-.836v-2.77a.593.593 0 0 0-.602-.594h-.086v-.199c.248 0 .508.027.758.027.193 0 .387-.027.586-.027l2.925 3.296z"/><path fill="#1D1E1C" d="M78.601 26.471v-.005l-.008-.007.008.012zm.011.009l.021-.021-.021.021zm.135 1.37h.219a4.2 4.2 0 0 1-.037-.637v-2.992c0-.793.334-.867.613-.869h.074v-.137c-.262 0-.52.025-.781.025-.303 0-.594-.025-.896-.025v.137h.117c.205.002.602.094.602.648l-.006 2.49-.018.013-.021.022-2.924-3.311c-.197 0-.387.025-.586.025-.246 0-.49-.025-.734-.025v.137h.062a.623.623 0 0 1 .625.625v2.77c0 .525-.148.861-.619.863l-.068-.002v.143c.291 0 .582-.023.871-.023.273 0 .547.023.822.023v-.141h-.086c-.516-.002-.643-.224-.643-.797v-2.787l3.414 3.825zm.25.056l-.273-.01-3.34-3.725v2.641c.012.573.1.736.592.737h.143v.257h-.027c-.285 0-.57-.022-.852-.022-.293 0-.6.022-.895.022h-.029v-.256h.121c.434 0 .561-.282.561-.804v-2.77a.561.561 0 0 0-.566-.567h-.115v-.253h.029c.248 0 .508.025.758.025.191 0 .383-.025.605-.015l2.893 3.257V24c-.002-.52-.352-.584-.545-.591h-.174v-.253h.031c.311 0 .611.025.922.025.271 0 .537-.025.809-.025h.027v.253h-.129c-.27.009-.549.034-.555.812v2.992c0 .229.006.459.035.662l.004.031h-.03zm2.668-3.984h-.018l-.611 1.863h1.232l-.603-1.863zM80.7 26.84c-.064.226-.143.395-.143.512 0 .197.275.23.49.23h.076v.197c-.266-.01-.535-.021-.797-.021-.238 0-.475.011-.711.021v-.197h.039c.256 0 .475-.148.574-.43l1.053-3.02c.086-.244.203-.57.244-.816a3.15 3.15 0 0 0 .596-.281c.018-.008.035-.016.053-.016.023 0 .033 0 .047.021.023.051.039.111.059.164l1.209 3.445c.08.227.16.472.246.669.08.187.219.263.436.263h.039v.197c-.297-.01-.594-.021-.908-.021-.322 0-.648.011-.984.021v-.197h.068c.15 0 .408-.024.408-.191 0-.089-.059-.262-.137-.471l-.25-.766h-1.496l-.211.687z"/><path fill="#1D1E1C" d="M81.638 23.934l.01-.007-.01.007zm-.559 1.822h1.148l-.57-1.761-.578 1.761zm-.086.056l.635-1.919h.038v.029l-.008.002.008-.002v-.029h.018l.623 1.919h-1.314zm1.348 1.938c.326-.011.65-.023.961-.023.305 0 .592.013.881.023v-.141h-.014c-.223 0-.381-.085-.459-.275-.09-.205-.168-.447-.244-.676l-1.215-3.443c-.018-.051-.035-.113-.051-.158-.006-.01-.006-.01-.014-.01h-.012c-.014 0-.02.01-.037.012a2.45 2.45 0 0 1-.586.262c-.039.247-.158.579-.244.822l-1.057 3.023c-.098.281-.328.443-.596.443h-.012v.141c.227-.011.453-.023.684-.023.254 0 .512.013.766.023v-.141h-.045c-.213-.002-.51-.022-.523-.258.002-.13.086-.297.148-.521l.028.01-.027-.01.219-.703h1.533l.264.781c.076.214.135.386.135.483-.012.202-.287.216-.438.218h-.045v.141zm1.865.057c-.293-.01-.59-.022-.904-.022-.322 0-.648.013-.984.022h-.031v-.257h.099c.152 0 .381-.034.381-.158 0-.079-.061-.255-.133-.468l-.248-.744h-1.455l-.205.668c-.068.225-.141.398-.141.504 0 .162.248.198.463.198h.102v.257h-.027c-.264-.01-.533-.022-.795-.022-.234 0-.475.013-.711.022h-.029v-.257h.068c.244 0 .447-.136.545-.403l1.055-3.022c.082-.243.203-.571.26-.833a4.29 4.29 0 0 0 .602-.284c.016-.006.031-.013.059-.013.02-.004.053.002.076.039.018.051.039.111.062.16l1.207 3.445c.078.231.154.473.24.668.08.175.197.243.408.243h.07v.257h-.034zm1.66-.673c0 .265.184.347.396.372.271.019.566.019.871-.015a.92.92 0 0 0 .629-.357c.104-.146.164-.326.207-.472h.188c-.07.375-.162.74-.244 1.117-.578 0-1.16-.021-1.734-.021-.582 0-1.16.021-1.738.021v-.197h.09c.234 0 .498-.033.498-.438v-3.387c0-.342-.264-.375-.498-.375h-.09v-.199c.348 0 .691.027 1.039.027.34 0 .664-.027.998-.027v.199h-.162c-.248 0-.449.008-.449.356v3.396z"/><path fill="#1D1E1C" d="M87.892 27.75c.074-.354.162-.707.23-1.061h-.133a1.48 1.48 0 0 1-.205.463.995.995 0 0 1-.65.368 5.19 5.19 0 0 1-.504.026c-.129 0-.252-.01-.371-.014-.213-.023-.42-.118-.418-.399v-3.395c0-.368.229-.388.475-.388h.133v-.137c-.322 0-.643.025-.967.025-.344 0-.676-.025-1.014-.025v.137h.062c.234 0 .527.045.527.406v3.387c0 .424-.293.463-.527.463h-.062v.143c.566 0 1.139-.023 1.711-.023.568.001 1.142.024 1.713.024m.021.057c-.58 0-1.16-.022-1.734-.022-.582 0-1.16.022-1.74.022h-.027v-.257h.119c.234-.001.463-.017.467-.405v-3.387c-.004-.32-.23-.342-.467-.349h-.119v-.253h.027c.35 0 .693.025 1.043.025.336 0 .66-.025.996-.025h.027v.253h-.189c-.26.009-.418-.003-.42.33v3.395c.002.247.16.313.367.343.119.005.238.01.367.01.16 0 .324-.005.494-.025a.896.896 0 0 0 .617-.341c.1-.144.156-.322.197-.466l.01-.025h.245l-.006.04c-.074.374-.164.745-.244 1.116l-.01.021h-.02zm.053-4.116h.084c.088 0 .129-.066.129-.174 0-.111-.066-.146-.135-.146h-.078v.32zm-.235.368v-.035c.088-.012.102-.006.102-.061v-.512c0-.074-.008-.1-.096-.096v-.031h.352c.125 0 .234.055.234.182 0 .102-.068.18-.166.207l.117.162a.727.727 0 0 0 .152.161v.022h-.135c-.066 0-.123-.137-.248-.319h-.078v.232c0 .046.018.04.102.052v.035h-.336zm.346.198a.56.56 0 0 0 .549-.565.563.563 0 0 0-.549-.566.564.564 0 0 0-.549.566c0 .3.239.565.549.565m0-1.256a.68.68 0 0 1 .693.69c0 .388-.299.693-.693.693s-.695-.306-.695-.693c0-.386.301-.69.695-.69"/></svg>