<svg width="801" height="773" viewBox="0 0 801 773" fill="none" xmlns="http://www.w3.org/2000/svg">
<path d="M238 541C360.607 541 460 441.607 460 319C460 196.393 360.607 97 238 97C115.393 97 16 196.393 16 319C16 441.607 115.393 541 238 541Z" fill="#676B68"/>
<path d="M521.1 303.5C518.57 315.57 500.191 465.29 506.201 501.05C512.211 536.81 610.201 611.74 614.491 613.05C619.491 609.38 626.85 597.35 626.85 597.35C626.85 597.35 555.001 514.06 553.631 510.72C552.261 507.38 569.371 314.5 569.371 314.5L521.1 303.5Z" fill="#1F161E"/>
<rect width="72" height="44" transform="matrix(-1 0 0 1 623 123.41)" fill="#3D2615"/>
<path d="M638.12 330.75L564.81 629.76H540.12L565.14 317.83L638.12 330.75Z" fill="#364642"/>
<path d="M586.05 159.55C596.17 159.55 648.96 161.26 658.5 179.84C668.04 198.42 659.05 284.3 653.12 287.63C649.92 289.42 649.05 287.68 648.12 291.32C647.19 294.96 638.12 330.75 638.12 330.75C632.36 330.91 548.38 318.26 521.12 303.47C521.28 299.36 522.6 288.67 522.6 287.85C518.98 289.33 514.6 289.64 513.4 287.85C502.76 271.74 518.62 187.75 530 170.85C534.84 163.6 569.81 159.6 586.05 159.55Z" fill="#8FAE94"/>
<path d="M620.811 289.95C623.291 289.95 644.641 304.95 642.811 312.32C644.311 306.4 649.031 288.11 649.031 288.11C647.001 288.5 622.631 289.98 620.811 289.95Z" fill="#1F161E"/>
<path d="M599.12 169.35C599.12 172.61 573.41 172.61 573.41 169.35V136.35H599.12V169.35Z" fill="#F5E0D6"/>
<path d="M584.37 144.16C586.37 144.16 599.12 149.8 599.12 152.94V136.35C595.94 136.35 584.37 144.16 584.37 144.16Z" fill="#1F161E"/>
<path d="M551.88 131.56C551.296 128.859 551.001 126.103 551 123.34C551 102.72 567.11 86 587 86C606.89 86 623 102.72 623 123.34C622.999 126.103 622.704 128.859 622.12 131.56H551.88Z" fill="#3D2615"/>
<path d="M560.458 113.941C564.53 113.32 568.592 110.104 571.427 108C587.584 119.883 597.934 120.05 599.051 120.05C600.168 120.05 604.72 126.612 606.815 127.354L607 127.243C606.372 130.692 605.037 133.974 603.079 136.878C601.122 139.782 598.584 142.246 595.627 144.114C592.671 145.981 589.36 147.211 585.905 147.726C582.449 148.241 578.925 148.029 575.556 147.104C572.187 146.179 569.046 144.56 566.332 142.352C563.619 140.144 561.392 137.393 559.794 134.275C558.195 131.157 557.26 127.739 557.047 124.239C556.834 120.738 557.348 117.232 558.556 113.941C559.188 114.02 559.827 114.02 560.458 113.941Z" fill="#F5E0D6"/>
<path d="M557.481 128.99C559.9 128.99 561.861 127.969 561.861 126.71C561.861 125.451 559.9 124.43 557.481 124.43C555.062 124.43 553.101 125.451 553.101 126.71C553.101 127.969 555.062 128.99 557.481 128.99Z" fill="#FA9E9F"/>
<path d="M585.03 128.99C587.449 128.99 589.41 127.969 589.41 126.71C589.41 125.451 587.449 124.43 585.03 124.43C582.611 124.43 580.65 125.451 580.65 126.71C580.65 127.969 582.611 128.99 585.03 128.99Z" fill="#FA9E9F"/>
<path d="M568.181 121.98C567.361 123.15 563.181 128.06 567.591 130.04" stroke="#1F161E" stroke-miterlimit="10" stroke-linecap="round"/>
<path d="M576.421 135.78C577.741 135.78 579.771 134.14 580.841 132.67" stroke="#1F161E" stroke-miterlimit="10" stroke-linecap="round"/>
<path d="M603.97 130.22C607.163 130.22 609.75 127.632 609.75 124.44C609.75 121.248 607.163 118.66 603.97 118.66C600.778 118.66 598.19 121.248 598.19 124.44C598.19 127.632 600.778 130.22 603.97 130.22Z" fill="#F5E0D6"/>
<path d="M621.391 208.76C620.941 214.28 619.181 241.56 619.841 245.15C611.451 248.07 534.631 284.5 521.341 288.5" stroke="#1F161E" stroke-miterlimit="10" stroke-linecap="round"/>
<path d="M532.17 200.15C530.4 206.33 524.44 234.38 528.63 247.41" stroke="#1F161E" stroke-miterlimit="10" stroke-linecap="round"/>
<path d="M551.78 275.74C555.78 278.55 594.12 295.52 647.13 289.12" stroke="#1F161E" stroke-miterlimit="10" stroke-linecap="round"/>
<path d="M548.11 247.41C550.68 247.82 542.3 241.13 537.55 243.62C532.8 246.11 526.4 257.38 527.71 259.99C527.887 260.464 528.167 260.892 528.531 261.243C528.895 261.594 529.333 261.859 529.813 262.018C530.292 262.177 530.802 262.227 531.303 262.163C531.805 262.099 532.286 261.924 532.71 261.65C534 260.82 543.63 246.69 548.11 247.41Z" fill="#F5E0D6"/>
<path d="M626.03 598.58C627.4 599.58 639.55 607.8 639.65 612.98C639.75 618.16 628.33 635.33 626.03 635.82C623.73 636.31 622.09 634.37 622.09 630.9C622.09 627.43 626.43 621.35 625.85 618.65C625.27 615.95 619.66 611.01 616.78 610.92" fill="#1F161E"/>
<path d="M562.47 629.76C562.47 632.14 563.85 647.08 561.09 648.47C558.33 649.86 527.87 650.68 526.49 649.3C525.11 647.92 524.27 645.01 525.49 644.18C526.71 643.35 538.49 640.99 540.09 639.89C541.69 638.79 543.9 632.89 543.09 629.76" fill="#1F161E"/>
<g clip-path="url(#clip0_250_604)">
<path d="M265 349.75L250 336.5H265.3L265 349.75Z" fill="#405B48"/>
<path d="M184.68 338H259.32C270.741 338 280 328.741 280 317.32V307.68C280 296.259 270.741 287 259.32 287H184.68C173.259 287 164 296.259 164 307.68V317.32C164 328.741 173.259 338 184.68 338Z" fill="#405B48"/>
<path d="M237.5 317C239.985 317 242 314.985 242 312.5C242 310.015 239.985 308 237.5 308C235.015 308 233 310.015 233 312.5C233 314.985 235.015 317 237.5 317Z" fill="white"/>
<path d="M222 317C224.485 317 226.5 314.985 226.5 312.5C226.5 310.015 224.485 308 222 308C219.515 308 217.5 310.015 217.5 312.5C217.5 314.985 219.515 317 222 317Z" fill="white"/>
<path d="M206.5 317C208.985 317 211 314.985 211 312.5C211 310.015 208.985 308 206.5 308C204.015 308 202 310.015 202 312.5C202 314.985 204.015 317 206.5 317Z" fill="white"/>
</g>
<path d="M216.277 241.763H11.7233C10.7715 241.763 10 242.536 10 243.489V244.556C10 245.51 10.7715 246.283 11.7233 246.283H216.277C217.228 246.283 218 245.51 218 244.556V243.489C218 242.536 217.228 241.763 216.277 241.763Z" fill="#4C5855"/>
<path d="M98.1263 152H85.699C83.7181 152 82.1123 153.609 82.1123 155.594V238.169C82.1123 240.154 83.7181 241.763 85.699 241.763H98.1263C100.107 241.763 101.713 240.154 101.713 238.169V155.594C101.713 153.609 100.107 152 98.1263 152Z" fill="#CFCFCF"/>
<path d="M108.536 173.044H104.697C103.049 173.044 101.713 174.383 101.713 176.034V238.773C101.713 240.424 103.049 241.763 104.697 241.763H108.536C110.184 241.763 111.52 240.424 111.52 238.773V176.034C111.52 174.383 110.184 173.044 108.536 173.044Z" fill="#4C5855"/>
<path d="M118.442 173.044H114.407C112.813 173.044 111.521 174.339 111.521 175.936V238.871C111.521 240.468 112.813 241.763 114.407 241.763H118.442C120.036 241.763 121.328 240.468 121.328 238.871V175.936C121.328 174.339 120.036 173.044 118.442 173.044Z" fill="#CFCFCF"/>
<path d="M125.561 178L122.25 179.523C120.703 180.235 120.025 182.069 120.735 183.619L146.778 240.457C147.488 242.007 149.318 242.687 150.865 241.975L154.175 240.452C155.722 239.74 156.401 237.907 155.691 236.357L129.648 179.519C128.938 177.969 127.108 177.289 125.561 178Z" fill="#4C5855"/>
<path d="M91.9058 219.048C94.9313 219.048 97.384 216.59 97.384 213.559C97.384 210.527 94.9313 208.07 91.9058 208.07C88.8804 208.07 86.4277 210.527 86.4277 213.559C86.4277 216.59 88.8804 219.048 91.9058 219.048Z" fill="#4C5855"/>
<path d="M96.879 222.319H86.9596C86.2322 222.319 85.6426 222.91 85.6426 223.639C85.6426 224.368 86.2322 224.959 86.9596 224.959H96.879C97.6064 224.959 98.196 224.368 98.196 223.639C98.196 222.91 97.6064 222.319 96.879 222.319Z" fill="#4C5855"/>
<path d="M96.879 229.086H86.9596C86.2322 229.086 85.6426 229.677 85.6426 230.406C85.6426 231.134 86.2322 231.725 86.9596 231.725H96.879C97.6064 231.725 98.196 231.134 98.196 230.406C98.196 229.677 97.6064 229.086 96.879 229.086Z" fill="#4C5855"/>
<path d="M107.639 183.418C107.639 182.852 107.181 182.394 106.617 182.394C106.052 182.394 105.594 182.852 105.594 183.418V231.374C105.594 231.94 106.052 232.399 106.617 232.399C107.181 232.399 107.639 231.94 107.639 231.374V183.418Z" fill="#CFCFCF"/>
<path d="M64.6127 244.023H55.8421C53.9154 244.023 52.3535 245.588 52.3535 247.519C52.3535 249.449 53.9154 251.014 55.8421 251.014H64.6127C66.5394 251.014 68.1013 249.449 68.1013 247.519C68.1013 245.588 66.5394 244.023 64.6127 244.023Z" fill="#4C5855"/>
<path d="M172.158 244.023H163.387C161.46 244.023 159.898 245.588 159.898 247.519C159.898 249.449 161.46 251.014 163.387 251.014H172.158C174.084 251.014 175.646 249.449 175.646 247.519C175.646 245.588 174.084 244.023 172.158 244.023Z" fill="#4C5855"/>
<g clip-path="url(#clip1_250_604)">
<path d="M347.009 467.55C412.737 467.55 466.019 455.786 466.019 441.275C466.019 426.764 412.737 415 347.009 415C281.282 415 228 426.764 228 441.275C228 455.786 281.282 467.55 347.009 467.55Z" fill="#1F161E"/>
<path d="M347.009 441.275L280.141 650.233" stroke="#1F161E" stroke-width="4" stroke-miterlimit="10" stroke-linecap="round"/>
<path d="M347.01 441.275L413.859 650.233" stroke="#1F161E" stroke-width="4" stroke-miterlimit="10" stroke-linecap="round"/>
<path d="M302.091 581.635L376.634 533.907" stroke="#1F161E" stroke-width="2" stroke-miterlimit="10" stroke-linecap="round"/>
<path d="M317.083 533.907L391.608 581.635" stroke="#1F161E" stroke-width="2" stroke-miterlimit="10" stroke-linecap="round"/>
</g>
<path d="M327.364 422L403.644 428.891L403.279 432.924L326.999 426.033L327.364 422Z" fill="#C9C9C9"/>
<path d="M330.377 426.983L398.185 428.844L398.03 434.46L330.222 432.6L330.377 426.983Z" fill="#C9C9C9"/>
<path d="M256.957 436.431H349.467L332.707 378.791C332.288 377.4 331.431 376.182 330.263 375.319C329.095 374.456 327.679 373.993 326.227 374.001H247.727C246.696 373.984 245.675 374.209 244.746 374.656C243.817 375.104 243.005 375.763 242.376 376.58C241.747 377.396 241.317 378.349 241.121 379.361C240.925 380.374 240.968 381.418 241.247 382.411L256.957 436.431Z" fill="white"/>
<path d="M291.857 410.871C288.731 410.871 286.197 408.337 286.197 405.211C286.197 402.085 288.731 399.551 291.857 399.551C294.983 399.551 297.517 402.085 297.517 405.211C297.517 408.337 294.983 410.871 291.857 410.871Z" fill="#BBC3B8"/>
<path d="M338.477 432.381H403.387V436.431H338.477V432.381Z" fill="white"/>
<g clip-path="url(#clip2_250_604)">
<path d="M312.49 339.6H278.65C277.186 339.6 276 340.787 276 342.25V362.71C276 364.174 277.186 365.36 278.65 365.36H312.49C313.954 365.36 315.14 364.174 315.14 362.71V342.25C315.14 340.787 313.954 339.6 312.49 339.6Z" fill="#D8D8D8"/>
<path d="M277.23 340.41L295.57 352.48" stroke="#969696" stroke-width="0.82" stroke-linecap="round" stroke-linejoin="round"/>
<path d="M315.14 339.6L295.57 352.48" stroke="#969696" stroke-width="0.82" stroke-linecap="round" stroke-linejoin="round"/>
<path d="M315.14 345.2C318.233 345.2 320.74 342.693 320.74 339.6C320.74 336.507 318.233 334 315.14 334C312.047 334 309.54 336.507 309.54 339.6C309.54 342.693 312.047 345.2 315.14 345.2Z" fill="#364642"/>
<path d="M315.946 336.141V341.45H315.303V336.815H315.272L313.976 337.676V337.022L315.303 336.141H315.946Z" fill="white"/>
</g>
<g clip-path="url(#clip3_250_604)">
<path d="M186.061 485.37C205.061 488.98 201.671 602.37 165.201 595.51C130.761 589 162.881 481 186.061 485.37Z" fill="#232121"/>
<path d="M102.64 499.43C117.76 490.88 181.05 570.52 152.1 586.89C124.75 602.36 84.2304 509.84 102.64 499.43Z" fill="#44314A"/>
<line x1="149.568" y1="583.251" x2="113.568" y2="521.251" stroke="#232121"/>
<path d="M179.691 650.32H141.511C139.973 650.32 138.489 649.752 137.343 648.727C136.198 647.701 135.47 646.289 135.301 644.76L130.481 601.47C130.384 600.597 130.472 599.713 130.74 598.876C131.007 598.039 131.449 597.268 132.035 596.613C132.621 595.958 133.338 595.434 134.141 595.075C134.943 594.716 135.812 594.531 136.691 594.53H184.311C185.187 594.529 186.054 594.713 186.855 595.07C187.655 595.426 188.372 595.947 188.958 596.599C189.544 597.251 189.986 598.019 190.255 598.853C190.524 599.687 190.615 600.569 190.521 601.44L185.911 644.73C185.745 646.265 185.019 647.685 183.871 648.716C182.723 649.748 181.234 650.319 179.691 650.32V650.32Z" fill="#969696"/>
<path d="M196.791 441.23C211.261 445.44 200.171 533 172.461 524.91C146.301 517.3 179.181 436.11 196.791 441.23Z" fill="#887D9E"/>
<path d="M220.65 510.87C230.65 519.5 189.97 585.43 170.75 568.87C152.6 553.3 208.44 500.37 220.65 510.87Z" fill="#44314A"/>
<path d="M160.7 450.34C182.36 450.34 202.19 588.63 160.7 588.63C121.52 588.63 134.33 450.34 160.7 450.34Z" fill="#8FAE94"/>
<path d="M198.71 585.12H122.51C120.273 585.12 118.46 586.933 118.46 589.17V596.55C118.46 598.787 120.273 600.6 122.51 600.6H198.71C200.947 600.6 202.76 598.787 202.76 596.55V589.17C202.76 586.933 200.947 585.12 198.71 585.12Z" fill="#D8D8D8"/>
<line x1="158.5" y1="584.984" x2="161.5" y2="492.984" stroke="#232121"/>
</g>
<defs>
<clipPath id="clip0_250_604">
<rect width="116" height="62.75" fill="white" transform="translate(164 287)"/>
</clipPath>
<clipPath id="clip1_250_604">
<rect width="238" height="239" fill="white" transform="translate(228 415)"/>
</clipPath>
<clipPath id="clip2_250_604">
<rect width="44.74" height="31.36" fill="white" transform="translate(276 334)"/>
</clipPath>
<clipPath id="clip3_250_604">
<rect width="124.22" height="209.32" fill="white" transform="translate(98 441)"/>
</clipPath>
</defs>
</svg>
