<svg width="745" height="595" viewBox="0 0 745 595" fill="none" xmlns="http://www.w3.org/2000/svg">
<g clip-path="url(#clip0_250_697)">
<path d="M682.529 218H445.529V585H682.529V218Z" fill="#72806E"/>
<path d="M398.029 442H641.029" stroke="white" stroke-miterlimit="10"/>
<path d="M398.029 466H641.029" stroke="white" stroke-miterlimit="10"/>
<path d="M398.029 490H641.029" stroke="white" stroke-miterlimit="10"/>
<path d="M398.029 514H641.029" stroke="white" stroke-miterlimit="10"/>
<path d="M564.029 387C598.271 387 626.029 359.242 626.029 325C626.029 290.758 598.271 263 564.029 263C529.788 263 502.029 290.758 502.029 325C502.029 359.242 529.788 387 564.029 387Z" fill="#6A6378"/>
<path opacity="0.7" d="M749.029 348.5H651.029V439.5H749.029V348.5Z" fill="#537959"/>
<path d="M664.44 397.278V395.34L680.043 387.393V390.494L668.075 396.26L668.172 396.066V396.551L668.075 396.357L680.043 402.123V405.225L664.44 397.278ZM704.468 380.027L696.473 409.731H693.856L701.852 380.027H704.468ZM733.878 397.278L718.275 405.225V402.123L730.244 396.357L730.147 396.551V396.066L730.244 396.26L718.275 390.494V387.393L733.878 395.34V397.278Z" fill="#BBC3B8"/>
<path d="M565.029 37.5H36.0293V385.5H565.029V37.5Z" stroke="white" stroke-miterlimit="10"/>
<path d="M36.0293 56H565.029" stroke="white" stroke-miterlimit="10"/>
<path d="M233.529 87H74.5293V246H233.529V87Z" stroke="white" stroke-miterlimit="10"/>
<path d="M264.029 101H507.029" stroke="white" stroke-miterlimit="10"/>
<path d="M264.029 125H507.029" stroke="white" stroke-miterlimit="10"/>
<path d="M264.029 149H507.029" stroke="white" stroke-miterlimit="10"/>
<path d="M264.029 173H507.029" stroke="white" stroke-miterlimit="10"/>
<path opacity="0.44" d="M154.029 129L110.729 204H197.329L154.029 129Z" fill="#537959"/>
<path d="M47.5293 51.5C50.0146 51.5 52.0293 49.4853 52.0293 47C52.0293 44.5147 50.0146 42.5 47.5293 42.5C45.044 42.5 43.0293 44.5147 43.0293 47C43.0293 49.4853 45.044 51.5 47.5293 51.5Z" fill="#AB8DE5"/>
<path d="M63.0293 51.5C65.5146 51.5 67.5293 49.4853 67.5293 47C67.5293 44.5147 65.5146 42.5 63.0293 42.5C60.544 42.5 58.5293 44.5147 58.5293 47C58.5293 49.4853 60.544 51.5 63.0293 51.5Z" fill="#405B48"/>
<path d="M78.5293 51.5C81.0146 51.5 83.0293 49.4853 83.0293 47C83.0293 44.5147 81.0146 42.5 78.5293 42.5C76.044 42.5 74.0293 44.5147 74.0293 47C74.0293 49.4853 76.044 51.5 78.5293 51.5Z" fill="#537959"/>
<path d="M724.029 171.25L709.029 158H724.329L724.029 171.25Z" fill="#405B48"/>
<path d="M643.709 159.5H718.349C729.771 159.5 739.029 150.241 739.029 138.82V129.18C739.029 117.759 729.771 108.5 718.349 108.5L643.709 108.5C632.288 108.5 623.029 117.759 623.029 129.18V138.82C623.029 150.241 632.288 159.5 643.709 159.5Z" fill="#405B48"/>
<path d="M696.529 138.5C699.015 138.5 701.029 136.485 701.029 134C701.029 131.515 699.015 129.5 696.529 129.5C694.044 129.5 692.029 131.515 692.029 134C692.029 136.485 694.044 138.5 696.529 138.5Z" fill="#BBC3B8"/>
<path d="M681.029 138.5C683.515 138.5 685.529 136.485 685.529 134C685.529 131.515 683.515 129.5 681.029 129.5C678.544 129.5 676.529 131.515 676.529 134C676.529 136.485 678.544 138.5 681.029 138.5Z" fill="#BBC3B8"/>
<path d="M665.529 138.5C668.015 138.5 670.029 136.485 670.029 134C670.029 131.515 668.015 129.5 665.529 129.5C663.044 129.5 661.029 131.515 661.029 134C661.029 136.485 663.044 138.5 665.529 138.5Z" fill="#BBC3B8"/>
<path d="M726.029 47C728.515 47 730.529 44.9853 730.529 42.5C730.529 40.0147 728.515 38 726.029 38C723.544 38 721.529 40.0147 721.529 42.5C721.529 44.9853 723.544 47 726.029 47Z" fill="#4C3D6B"/>
<path d="M735.529 65.5C738.015 65.5 740.029 63.4853 740.029 61C740.029 58.5147 738.015 56.5 735.529 56.5C733.044 56.5 731.029 58.5147 731.029 61C731.029 63.4853 733.044 65.5 735.529 65.5Z" fill="#4C3D6B"/>
<path d="M642.029 250.5C645.895 250.5 649.029 247.366 649.029 243.5C649.029 239.634 645.895 236.5 642.029 236.5C638.163 236.5 635.029 239.634 635.029 243.5C635.029 247.366 638.163 250.5 642.029 250.5Z" fill="#4C3D6B"/>
<path d="M683.029 274.5C686.895 274.5 690.029 271.366 690.029 267.5C690.029 263.634 686.895 260.5 683.029 260.5C679.163 260.5 676.029 263.634 676.029 267.5C676.029 271.366 679.163 274.5 683.029 274.5Z" fill="#4C3D6B"/>
<path d="M53.0293 282.5C56.8953 282.5 60.0293 279.366 60.0293 275.5C60.0293 271.634 56.8953 268.5 53.0293 268.5C49.1633 268.5 46.0293 271.634 46.0293 275.5C46.0293 279.366 49.1633 282.5 53.0293 282.5Z" fill="#4C3D6B"/>
<path d="M675.489 573.47C670.379 567.9 665.73 552.11 666.43 548.01" stroke="#BBC3B8" stroke-width="0.4" stroke-linecap="round" stroke-linejoin="round"/>
<path d="M332.04 490.91C366.894 490.91 395.15 484.664 395.15 476.96C395.15 469.255 366.894 463.01 332.04 463.01C297.185 463.01 268.93 469.255 268.93 476.96C268.93 484.664 297.185 490.91 332.04 490.91Z" fill="white"/>
<rect x="300" y="217" width="72" height="44" fill="#3D2615"/>
<path d="M332.04 476.96L296.59 587.91" stroke="white" stroke-width="4" stroke-miterlimit="10" stroke-linecap="round"/>
<path d="M332.04 476.96L367.49 587.91" stroke="white" stroke-width="4" stroke-miterlimit="10" stroke-linecap="round"/>
<path d="M308.23 551.48L347.75 526.14" stroke="white" stroke-width="2" stroke-miterlimit="10" stroke-linecap="round"/>
<path d="M316.17 526.14L355.7 551.48" stroke="white" stroke-width="2" stroke-miterlimit="10" stroke-linecap="round"/>
<path d="M394.15 356.86C393.99 361.78 394.06 379.01 393.25 386.38" stroke="#1F161E" stroke-miterlimit="10" stroke-linecap="round"/>
<path d="M191.12 138.96C191.12 135.464 188.286 132.63 184.79 132.63C181.294 132.63 178.46 135.464 178.46 138.96V160.81C178.46 164.306 181.294 167.14 184.79 167.14C188.286 167.14 191.12 164.306 191.12 160.81V138.96Z" fill="white"/>
<path d="M184.79 203.87C191.804 203.87 197.49 198.184 197.49 191.17C197.49 184.156 191.804 178.47 184.79 178.47C177.776 178.47 172.09 184.156 172.09 191.17C172.09 198.184 177.776 203.87 184.79 203.87Z" fill="#F0F5B2"/>
<path d="M609.37 342H615.37C616.001 341.997 616.605 341.746 617.05 341.3C617.496 340.854 617.748 340.25 617.75 339.62V302.74C617.751 302.427 617.69 302.118 617.57 301.829C617.45 301.541 617.273 301.279 617.05 301.06L609.47 293.48C609.25 293.258 608.989 293.082 608.7 292.962C608.412 292.842 608.103 292.78 607.79 292.78H585.401C584.77 292.782 584.166 293.034 583.72 293.48C583.275 293.926 583.023 294.529 583.021 295.16V298.72" fill="#8FAE94"/>
<path d="M599.29 298.72H577.29C576.938 298.72 576.588 298.79 576.262 298.925C575.937 299.06 575.641 299.259 575.392 299.509C575.143 299.759 574.946 300.055 574.811 300.382C574.677 300.708 574.609 301.057 574.61 301.41V345.21C574.61 345.922 574.892 346.605 575.395 347.109C575.897 347.613 576.579 347.898 577.29 347.9H606.68C607.392 347.898 608.074 347.613 608.576 347.109C609.078 346.605 609.36 345.922 609.36 345.21V308.81C609.362 308.458 609.293 308.109 609.16 307.783C609.026 307.457 608.829 307.16 608.58 306.91L601.18 299.51C600.68 299.007 600 298.723 599.29 298.72Z" fill="#D8D8D8"/>
<path d="M609.37 307.76H601.9C601.503 307.76 601.121 307.602 600.84 307.321C600.558 307.04 600.4 306.658 600.4 306.26V298.72" fill="#969696"/>
<path d="M617.78 301.83H610.31C609.91 301.827 609.528 301.667 609.245 301.385C608.962 301.102 608.802 300.719 608.8 300.32V292.78" fill="#758577"/>
<path d="M544.36 200.12H510.52C509.057 200.12 507.87 201.307 507.87 202.77V223.23C507.87 224.694 509.057 225.88 510.52 225.88H544.36C545.824 225.88 547.01 224.694 547.01 223.23V202.77C547.01 201.307 545.824 200.12 544.36 200.12Z" fill="#D8D8D8"/>
<path d="M509.1 200.93L527.44 213" stroke="#969696" stroke-width="0.82" stroke-linecap="round" stroke-linejoin="round"/>
<path d="M547.01 200.12L527.44 213" stroke="#969696" stroke-width="0.82" stroke-linecap="round" stroke-linejoin="round"/>
<path d="M547.01 205.72C550.103 205.72 552.61 203.213 552.61 200.12C552.61 197.027 550.103 194.52 547.01 194.52C543.917 194.52 541.41 197.027 541.41 200.12C541.41 203.213 543.917 205.72 547.01 205.72Z" fill="#8FAE94"/>
<path d="M547.806 196.671V201.98H547.163V197.345H547.132L545.836 198.206V197.552L547.163 196.671H547.806Z" fill="#BBC3B8"/>
<path d="M586.56 303.24H579.48C578.961 303.24 578.54 303.661 578.54 304.18C578.54 304.699 578.961 305.12 579.48 305.12H586.56C587.079 305.12 587.5 304.699 587.5 304.18C587.5 303.661 587.079 303.24 586.56 303.24Z" fill="#969696"/>
<path d="M586.56 307.76H579.48C578.961 307.76 578.54 308.181 578.54 308.7C578.54 309.219 578.961 309.64 579.48 309.64H586.56C587.079 309.64 587.5 309.219 587.5 308.7C587.5 308.181 587.079 307.76 586.56 307.76Z" fill="#969696"/>
<path d="M604.92 315.49H579.07C578.551 315.49 578.13 315.911 578.13 316.43C578.13 316.949 578.551 317.37 579.07 317.37H604.92C605.439 317.37 605.86 316.949 605.86 316.43C605.86 315.911 605.439 315.49 604.92 315.49Z" fill="#969696"/>
<path d="M604.92 319.93H579.07C578.551 319.93 578.13 320.351 578.13 320.87C578.13 321.389 578.551 321.81 579.07 321.81H604.92C605.439 321.81 605.86 321.389 605.86 320.87C605.86 320.351 605.439 319.93 604.92 319.93Z" fill="#969696"/>
<path d="M604.92 324.37H579.07C578.551 324.37 578.13 324.791 578.13 325.31C578.13 325.829 578.551 326.25 579.07 326.25H604.92C605.439 326.25 605.86 325.829 605.86 325.31C605.86 324.791 605.439 324.37 604.92 324.37Z" fill="#969696"/>
<path d="M184.79 152.88C179.761 152.879 174.781 153.868 170.134 155.792C165.488 157.715 161.265 160.536 157.709 164.091C154.152 167.647 151.331 171.868 149.406 176.515C147.481 181.161 146.49 186.141 146.49 191.17H223.09C223.09 186.141 222.1 181.161 220.175 176.515C218.25 171.868 215.428 167.647 211.872 164.091C208.315 160.536 204.093 157.715 199.446 155.792C194.8 153.868 189.819 152.879 184.79 152.88Z" fill="#6A6378"/>
<path d="M184.79 139.92V1" stroke="white" stroke-width="2" stroke-linecap="round" stroke-linejoin="round"/>
<path d="M485.19 574.68C485.19 577.05 483.8 592 486.57 593.38C489.34 594.76 519.79 595.6 521.17 594.21C522.55 592.82 523.38 589.92 522.17 589.09C520.96 588.26 509.17 585.91 507.57 584.8C505.97 583.69 503.76 577.8 504.57 574.68" fill="#1F161E"/>
<path d="M394.15 379.25L411.29 373.1C410.55 341.83 403.24 271.96 392.86 261.57C390.42 259.14 342.16 254.9 333.55 254.9C282.17 254.9 266.93 260.76 263.06 264.64C251.06 276.64 247.32 332.24 247.32 351.71C247.32 371.18 302.32 381.28 302.32 381.28L366.79 385.71C366.79 385.71 380.93 387.17 393.16 387.89C393.43 384.14 394.15 379.25 394.15 379.25Z" fill="#8FAE94"/>
<path d="M445.22 397.38C449.91 395.99 496.55 388.38 506.71 398.38C516.87 408.38 548.85 551.75 548.85 555.05H523.1L488.34 480.24" fill="#1F161E"/>
<path d="M371.12 225.15C371.704 222.449 371.999 219.693 372 216.93C372 196.31 355.89 179.59 336 179.59C316.11 179.59 300 196.31 300 216.93C300.001 219.693 300.296 222.449 300.88 225.15H371.12Z" fill="#3D2615"/>
<path d="M275.41 384.63C274.24 390.48 267.21 396.76 267.21 428.63C267.21 472.7 303.31 473.63 316.27 473.63C356.65 473.63 421.98 461.63 426.39 459.43C429.32 464.33 483.25 574.43 483.5 576.89H508.33C508.33 576.89 492.94 412.17 465.17 393.49C456.15 387.49 296.12 381.07 275.41 384.63Z" fill="#364642"/>
<path d="M420.81 352.41C414.29 352.41 408.91 353.96 394.15 356.86L393.38 385.1C407.38 379.46 410.63 371.62 414.69 371.62C424.83 371.62 430.13 376.85 436.12 376.85C440.3 376.85 447.82 373.57 447.82 369.11C447.82 359.77 428.89 352.41 420.81 352.41Z" fill="#F5E0D6"/>
<path d="M524.56 553.07C524.56 555.45 523.17 570.39 525.94 571.78C528.71 573.17 559.16 573.99 560.54 572.61C561.92 571.23 562.75 568.32 561.54 567.49C560.33 566.66 548.54 564.3 546.94 563.19C545.34 562.08 543.13 556.19 543.94 553.07" fill="#1F161E"/>
<path d="M342.64 261.55C342.64 265.32 320.75 265.43 320.75 261.55V230.89H342.64V261.55Z" fill="#F5E0D6"/>
<path d="M335.51 241C333.51 241 320.75 246.64 320.75 249.79V233.15C323.93 233.15 335.51 241 335.51 241Z" fill="#1F161E"/>
<path d="M363.41 205.41C359 204.74 354.6 201.27 351.53 199C334.03 211.82 322.82 212 321.61 212C320.4 212 315.47 219.08 313.2 219.88L313 219.76C313.68 223.482 315.126 227.022 317.246 230.155C319.367 233.288 322.115 235.947 325.318 237.961C328.52 239.976 332.106 241.303 335.849 241.858C339.591 242.414 343.408 242.185 347.057 241.187C350.707 240.189 354.109 238.443 357.048 236.061C359.987 233.678 362.398 230.711 364.13 227.347C365.861 223.983 366.874 220.296 367.105 216.519C367.336 212.743 366.779 208.96 365.47 205.41C364.786 205.495 364.094 205.495 363.41 205.41Z" fill="#F5E0D6"/>
<path d="M315.65 222.3C318.77 222.3 321.3 219.77 321.3 216.65C321.3 213.53 318.77 211 315.65 211C312.53 211 310 213.53 310 216.65C310 219.77 312.53 222.3 315.65 222.3Z" fill="#F5E0D6"/>
<path d="M366.5 220.66C368.919 220.66 370.88 219.639 370.88 218.38C370.88 217.121 368.919 216.1 366.5 216.1C364.081 216.1 362.12 217.121 362.12 218.38C362.12 219.639 364.081 220.66 366.5 220.66Z" fill="#FA9E9F"/>
<path d="M338.95 220.66C341.369 220.66 343.33 219.639 343.33 218.38C343.33 217.121 341.369 216.1 338.95 216.1C336.531 216.1 334.57 217.121 334.57 218.38C334.57 219.639 336.531 220.66 338.95 220.66Z" fill="#FA9E9F"/>
<path d="M355.8 213.65C356.62 214.82 360.8 219.73 356.39 221.72" stroke="#1F161E" stroke-miterlimit="10" stroke-linecap="round"/>
<path d="M347.56 227.45C346.24 227.45 344.21 225.81 343.14 224.34" stroke="#1F161E" stroke-miterlimit="10" stroke-linecap="round"/>
<path d="M382.5 298.62C384.5 302.87 394.15 343.87 394.15 356.86" stroke="#1F161E" stroke-miterlimit="10" stroke-linecap="round"/>
<path d="M247.32 348.41C247.32 394.5 247.75 407.87 266.25 407.87C308.89 407.87 373.35 372.87 384.84 372.87C394.99 372.87 400.29 378.11 406.28 378.11C410.45 378.11 417.97 374.82 417.97 370.37C417.97 361.02 399.04 353.66 390.97 353.66C372.8 353.66 300.29 371.18 298.52 371.18C296.75 371.18 293.77 370.41 293.77 367.43C293.77 362.02 297.31 349.52 297.77 348.43L247.32 348.41Z" fill="#F5E0D6"/>
<path d="M308.42 308.21C307.2 311.72 297.69 347.99 296.59 352.41" stroke="#1F161E" stroke-miterlimit="10" stroke-linecap="round"/>
<path d="M669.458 588.747C670.177 591.481 672.977 593.116 675.711 592.397C678.446 591.678 680.08 588.878 679.361 586.143L628.163 391.401C627.444 388.666 624.644 387.032 621.909 387.751C619.174 388.47 617.54 391.27 618.259 394.004L669.458 588.747Z" fill="#969696"/>
<path d="M617.751 394.013C618.47 391.278 616.836 388.478 614.101 387.759C611.366 387.04 608.567 388.674 607.848 391.409L556.649 586.152C555.93 588.886 557.564 591.686 560.299 592.405C563.034 593.124 565.833 591.49 566.552 588.755L617.751 394.013Z" fill="#969696"/>
<path d="M547.103 394.011C547.822 391.277 546.187 388.477 543.453 387.758C540.718 387.039 537.918 388.673 537.199 391.408L486 586.15C485.281 588.885 486.916 591.685 489.65 592.404C492.385 593.123 495.185 591.488 495.904 588.754L547.103 394.011Z" fill="#D8D8D8"/>
<path d="M597.92 585.152C598.627 587.895 601.423 589.546 604.166 588.839C606.909 588.132 608.56 585.335 607.853 582.592L557.513 387.273C556.806 384.53 554.009 382.88 551.266 383.587C548.523 384.294 546.873 387.09 547.58 389.833L597.92 585.152Z" fill="#D8D8D8"/>
<path d="M258.682 394.016C259.401 391.282 257.767 388.482 255.032 387.763C252.297 387.044 249.497 388.678 248.778 391.413L197.58 586.155C196.861 588.89 198.495 591.69 201.229 592.408C203.964 593.127 206.764 591.493 207.483 588.759L258.682 394.016Z" fill="#969696"/>
<path d="M309.519 588.759C310.238 591.494 313.038 593.128 315.773 592.409C318.508 591.69 320.142 588.89 319.423 586.156L268.224 391.413C267.505 388.679 264.705 387.045 261.971 387.764C259.236 388.483 257.602 391.282 258.321 394.017L309.519 588.759Z" fill="#969696"/>
<path d="M649.27 378.14H154.1C151.598 378.14 149.57 380.168 149.57 382.67V388.76C149.57 391.262 151.598 393.29 154.1 393.29H649.27C651.772 393.29 653.8 391.262 653.8 388.76V382.67C653.8 380.168 651.772 378.14 649.27 378.14Z" fill="#D8D8D8"/>
<path d="M185.507 394.019C186.226 391.284 184.592 388.485 181.857 387.766C179.122 387.047 176.322 388.681 175.603 391.416L124.405 586.158C123.686 588.893 125.32 591.692 128.055 592.411C130.789 593.13 133.589 591.496 134.308 588.762L185.507 394.019Z" fill="#D8D8D8"/>
<path d="M236.344 588.759C237.063 591.494 239.862 593.128 242.597 592.409C245.332 591.69 246.966 588.89 246.247 586.156L195.048 391.413C194.329 388.679 191.53 387.045 188.795 387.764C186.06 388.483 184.426 391.282 185.145 394.017L236.344 588.759Z" fill="#D8D8D8"/>
<path d="M520.28 378.14H427.77L444.53 320.5C444.948 319.109 445.805 317.891 446.973 317.028C448.141 316.165 449.557 315.702 451.01 315.71H529.51C530.541 315.693 531.561 315.918 532.49 316.365C533.419 316.813 534.231 317.472 534.86 318.288C535.49 319.105 535.92 320.058 536.116 321.07C536.312 322.083 536.269 323.127 535.99 324.12L520.28 378.14Z" fill="white"/>
<path d="M485.38 352.58C488.506 352.58 491.04 350.046 491.04 346.92C491.04 343.794 488.506 341.26 485.38 341.26C482.254 341.26 479.72 343.794 479.72 346.92C479.72 350.046 482.254 352.58 485.38 352.58Z" fill="#BBC3B8"/>
<path d="M438.76 374.09H373.85V378.14H438.76V374.09Z" fill="white"/>
</g>
<defs>
<clipPath id="clip0_250_697">
<rect width="744.66" height="594.92" fill="white"/>
</clipPath>
</defs>
</svg>
