<?xml version="1.0" encoding="utf-8"?>
<!-- Generator: Adobe Illustrator 22.1.0, SVG Export Plug-In . SVG Version: 6.00 Build 0)  -->
<svg version="1.1" xmlns="http://www.w3.org/2000/svg" xmlns:xlink="http://www.w3.org/1999/xlink" x="0px" y="0px"
	 viewBox="0 0 32 32" style="enable-background:new 0 0 32 32;" xml:space="preserve">
<style type="text/css">
	.st0{fill:#798F81;}
	.st1{fill:none;stroke:#FFFFFF;stroke-width:2;stroke-miterlimit:10;}
	.st2{fill:#797E8E;}
</style>
<g id="Capa_5">
	<path class="st0" d="M22.51,2.021H9.454c-4.123,0-7.496,3.337-7.496,7.415v7.156v4.988v7.761c0,0.353,0.286,0.638,0.638,0.638
		h26.771c0.353,0,0.638-0.286,0.638-0.638V21.58v-4.988V9.436C30.006,5.358,26.633,2.021,22.51,2.021z"/>
</g>
<g id="Capa_10">
</g>
<g id="Capa_11">
</g>
<g id="Capa_7">
	<path class="st1" d="M18.875,7.792h-5.792c-2.269,0-4.125,1.856-4.125,4.125V17v3.875V25h4.125h5.792h4.091v-3.787
		C22.975,21.099,23,20.991,23,20.875v-8.958C23,9.648,21.144,7.792,18.875,7.792z"/>
</g>
<g id="Capa_4">
	<rect x="8.958" y="17" class="st1" width="14.042" height="8"/>
</g>
<g id="Capa_6">
	<rect x="15.99" y="12.875" class="st1" width="0.01" height="11.958"/>
</g>
<g id="Capa_8">
	<path class="st2" d="M13.917,8.708"/>
</g>
<g id="Capa_9">
	<path class="st1" d="M19.526,8.125h-0.042c-1.919,0-3.474,1.555-3.474,3.474v1.526v0.401V17h3.474h0.042H23v-3.474v-0.401v-1.526
		C23,9.68,21.445,8.125,19.526,8.125z"/>
	<path class="st1" d="M12.526,8.125h-0.042c-1.919,0-3.474,1.555-3.474,3.474v1.526v0.401V17h3.474h0.042H16v-3.474v-0.401v-1.526
		C16,9.68,14.445,8.125,12.526,8.125z"/>
	<path class="st1" d="M13.375,17h-0.844h-0.042H9.015v3.131v0.361v1.375v3.091h4.36v-0.063c1.508-0.341,2.63-1.562,2.63-3.027
		v-1.375v-0.361V17H13.375z"/>
	<path class="st1" d="M18.64,17h0.844h0.042H23v3.131v0.361v1.375v3.091h-4.36v-0.063c-1.508-0.341-2.63-1.562-2.63-3.027v-1.375
		v-0.361V17H18.64z"/>
</g>
</svg>
