<?xml version="1.0" encoding="utf-8"?>
<!-- Generator: Adobe Illustrator 22.1.0, SVG Export Plug-In . SVG Version: 6.00 Build 0)  -->
<svg version="1.1" id="Capa_2" xmlns="http://www.w3.org/2000/svg" xmlns:xlink="http://www.w3.org/1999/xlink" x="0px" y="0px"
	 viewBox="0 0 32 32" style="enable-background:new 0 0 32 32;" xml:space="preserve">
<style type="text/css">
	.st0{fill:#798F81;}
	.st1{display:none;}
	.st2{display:inline;fill:#798F81;}
	.st3{fill:none;stroke:#FFFFFF;stroke-width:2;stroke-miterlimit:10;}
	.st4{fill:#797E8E;}
</style>
<path class="st0" d="M26.7,9.2H6.5c-0.9,0-1.7,0.8-1.7,1.7v15.4c0,0.9,0.8,1.7,1.7,1.7h20.2c0.9,0,1.7-0.8,1.7-1.7V10.9
	C28.4,10,27.6,9.2,26.7,9.2z"/>
<path class="st0" d="M21.8,22.7H11.4c-3.6,0-6.5-2.9-6.5-6.5V9.3c0-3.6,2.9-6.5,6.5-6.5h10.4c3.6,0,6.5,2.9,6.5,6.5v6.9
	C28.4,19.8,25.4,22.7,21.8,22.7z"/>
<g id="Capa_1">
	<g id="Capa_5" class="st1">
		<path class="st2" d="M23.5,1.5h-13C6.3,1.5,3,4.9,3,8.9v7.2v5v7.8c0,0.3,0.2,0.6,0.6,0.6h26.8c0.4,0,0.6-0.3,0.6-0.6v-7.8v-5V8.9
			C31,4.9,27.6,1.5,23.5,1.5z"/>
	</g>
	<g id="Capa_10">
	</g>
	<g id="Capa_11">
	</g>
	<g id="Capa_7">
		<path class="st3" d="M19.9,7.3h-5.8c-2.3,0-4.1,1.8-4.1,4.1v5.1v3.9v4.1h4.1h5.8H24v-3.8c0-0.1,0-0.2,0-0.3v-9
			C24,9.1,22.1,7.3,19.9,7.3z"/>
	</g>
	<g id="Capa_4">
		<rect x="10" y="16.5" class="st3" width="14" height="8"/>
	</g>
	<g id="Capa_6">
		<rect x="17" y="12.4" class="st3" width="0" height="12"/>
	</g>
	<g id="Capa_8">
		<path class="st4" d="M14.9,8.2"/>
	</g>
	<g id="Capa_9">
		<path class="st3" d="M20.5,7.6L20.5,7.6c-2,0-3.5,1.6-3.5,3.5v1.5V13v3.5h3.5l0,0H24V13v-0.4v-1.5C24,9.2,22.4,7.6,20.5,7.6z"/>
		<path class="st3" d="M13.5,7.6L13.5,7.6c-2,0-3.5,1.6-3.5,3.5v1.5V13v3.5h3.5l0,0H17V13v-0.4v-1.5C17,9.2,15.4,7.6,13.5,7.6z"/>
		<path class="st3" d="M14.4,16.5h-0.8l0,0H10v3.1V20v1.4v3.1h4.4v-0.1c1.5-0.3,2.6-1.6,2.6-3V20v-0.4v-3.1H14.4z"/>
		<path class="st3" d="M19.6,16.5h0.8l0,0H24v3.1V20v1.4v3.1h-4.4v-0.1c-1.5-0.3-2.6-1.6-2.6-3V20v-0.4v-3.1H19.6z"/>
	</g>
</g>
</svg>
