<svg width="43" height="43" viewBox="0 0 43 43" fill="none" xmlns="http://www.w3.org/2000/svg">
<path fill-rule="evenodd" clip-rule="evenodd" d="M21.5 43C33.3741 43 43 33.3741 43 21.5C43 9.62588 33.3741 0 21.5 0C9.62588 0 0 9.62588 0 21.5C0 33.3741 9.62588 43 21.5 43ZM7.16723 21.8625C7.16723 13.7431 13.5814 7.16665 21.5006 7.16665C29.4197 7.16665 35.8339 13.7431 35.8339 21.8625C35.833 24.9417 34.8905 27.943 33.1388 30.4441C31.3872 32.9453 28.9147 34.8203 26.0693 35.8052C25.3526 35.9522 25.0839 35.493 25.0839 35.1072C25.0839 34.9413 25.0859 34.6543 25.0886 34.2722C25.0939 33.5116 25.1018 32.3742 25.1018 31.0658C25.1018 29.6881 24.6539 28.8063 24.1343 28.3471C27.3235 27.9797 30.6739 26.7305 30.6739 21.091C30.6739 19.4744 30.1185 18.1702 29.2047 17.1415C29.3481 16.7741 29.8497 15.2678 29.0614 13.2471C29.0614 13.2471 27.861 12.8429 25.1197 14.7534C23.9731 14.4227 22.7547 14.2574 21.5364 14.2574C20.3181 14.2574 19.0997 14.4227 17.9531 14.7534C15.2118 12.8613 14.0114 13.2471 14.0114 13.2471C13.2231 15.2678 13.7247 16.7741 13.8681 17.1415C12.9543 18.1702 12.3989 19.4928 12.3989 21.091C12.3989 26.7122 15.7314 27.9797 18.9206 28.3471C18.5085 28.7145 18.1322 29.3574 18.0068 30.3127C17.1826 30.6984 15.1222 31.323 13.8322 29.1002C13.5635 28.6594 12.7572 27.5756 11.6285 27.5939C10.4281 27.6123 11.1447 28.292 11.6464 28.5675C12.2556 28.9165 12.9543 30.2208 13.1156 30.6433C13.4022 31.47 14.3339 33.0498 17.9351 32.3701C17.9351 33.1732 17.9428 33.945 17.9481 34.4814C17.9509 34.767 17.9531 34.9859 17.9531 35.1072C17.9531 35.493 17.6843 35.9338 16.9676 35.8052C11.2701 33.858 7.16723 28.3655 7.16723 21.8625Z" fill="#FAFAFA"/>
</svg>
