<svg width="43" height="43" viewBox="0 0 43 43" fill="none" xmlns="http://www.w3.org/2000/svg">
<path fill-rule="evenodd" clip-rule="evenodd" d="M21.501 43C33.3751 43 43.001 33.3741 43.001 21.5C43.001 9.62588 33.3751 0 21.501 0C9.62685 0 0.000976562 9.62588 0.000976562 21.5C0.000976562 33.3741 9.62685 43 21.501 43ZM12.2699 30.0548H16.4495V16.6044H12.2699V30.0548ZM12.1602 12.8613C12.1602 14.018 13.0138 14.9532 14.3339 14.9532C15.7357 14.9532 16.5871 14.018 16.5871 12.8613C16.5613 11.6809 15.7357 10.7736 14.3876 10.7736C13.0396 10.7736 12.1602 11.6809 12.1602 12.8613ZM27.5349 30.0548H31.7145V22.102C31.7145 18.1417 29.6526 16.2991 26.9028 16.2991C24.6474 16.2991 23.2994 17.5934 22.749 18.4706H22.6651L22.4738 16.6023H18.8424C18.8983 17.8106 18.9521 19.2145 18.9521 20.8937V30.0527H23.1338V22.2976C23.1338 21.9128 23.1618 21.5258 23.2736 21.2527C23.5767 20.4852 24.2626 19.6875 25.4171 19.6875C26.9286 19.6875 27.5349 20.8657 27.5349 22.6008V30.0548Z" fill="#FAFAFA"/>
</svg>
