<svg width="43" height="43" viewBox="0 0 43 43" fill="none" xmlns="http://www.w3.org/2000/svg">
<path fill-rule="evenodd" clip-rule="evenodd" d="M21.5 43C33.3741 43 43 33.3741 43 21.5C43 9.62588 33.3741 0 21.5 0C9.62588 0 0 9.62588 0 21.5C0 33.3741 9.62588 43 21.5 43ZM17.9122 21.5C17.9122 19.526 19.5231 17.9151 21.497 17.9151C23.4709 17.9151 25.0818 19.526 25.0818 21.5C25.0818 23.474 23.4709 25.0849 21.497 25.0849C19.5231 25.0849 17.9122 23.474 17.9122 21.5ZM32.2491 20.957C32.2489 21.1378 32.2487 21.3188 32.2487 21.5C32.2487 21.7026 32.249 21.905 32.2493 22.1072C32.2512 23.3863 32.2531 24.6578 32.1788 25.9374C32.0954 27.6585 31.7055 29.1834 30.4442 30.4447C29.1856 31.7033 27.6581 32.0959 25.937 32.1793C24.636 32.2525 23.3434 32.251 22.0427 32.2496C21.8619 32.2494 21.6809 32.2492 21.4997 32.2492C21.3189 32.2492 21.1382 32.2494 20.9577 32.2496C19.6587 32.251 18.3657 32.2525 17.0624 32.1793C15.3413 32.0959 13.8164 31.706 12.5552 30.4447C11.2966 29.1861 10.904 27.6585 10.8206 25.9374C10.7474 24.6364 10.7488 23.3416 10.7503 22.0421C10.7505 21.8615 10.7507 21.6808 10.7507 21.5C10.7507 21.3192 10.7505 21.1385 10.7503 20.9579C10.7488 19.659 10.7474 18.366 10.8206 17.0626C10.904 15.3415 11.2939 13.8166 12.5552 12.5553C13.8138 11.2967 15.3413 10.9041 17.0624 10.8207C18.3633 10.7475 19.6559 10.749 20.9567 10.7504C21.1375 10.7506 21.3185 10.7508 21.4997 10.7508C21.6805 10.7508 21.8612 10.7506 22.0417 10.7504C23.3407 10.749 24.6336 10.7475 25.937 10.8207C27.6581 10.9041 29.1829 11.294 30.4442 12.5553C31.7028 13.8139 32.0954 15.3415 32.1788 17.0626C32.252 18.3636 32.2505 19.6562 32.2491 20.957ZM15.9813 21.5C15.9813 24.5524 18.4447 27.0158 21.497 27.0158C24.5493 27.0158 27.0127 24.5524 27.0127 21.5C27.0127 18.4476 24.5493 15.9842 21.497 15.9842C18.4447 15.9842 15.9813 18.4476 15.9813 21.5ZM25.9504 15.7583C25.9504 16.471 26.5259 17.0465 27.2386 17.0465C27.4078 17.0467 27.5754 17.0135 27.7318 16.9489C27.8882 16.8842 28.0303 16.7893 28.1499 16.6697C28.2696 16.55 28.3645 16.4079 28.4291 16.2515C28.4938 16.0951 28.527 15.9275 28.5267 15.7583C28.5267 15.0456 27.9512 14.4701 27.2386 14.4701C26.5259 14.4701 25.9504 15.0456 25.9504 15.7583Z" fill="#FAFAFA"/>
</svg>
