<?xml version="1.0" encoding="utf-8"?>
<!-- Generator: Adobe Illustrator 22.1.0, SVG Export Plug-In . SVG Version: 6.00 Build 0)  -->
<svg version="1.1" xmlns="http://www.w3.org/2000/svg" xmlns:xlink="http://www.w3.org/1999/xlink" x="0px" y="0px"
	 viewBox="0 0 512 512" style="enable-background:new 0 0 512 512;" xml:space="preserve">
<style type="text/css">
	.st0{display:none;}
	.st1{display:inline;}
	.st2{fill:none;stroke:#000000;stroke-width:32;stroke-miterlimit:10;}
	.st3{fill:none;}
</style>
<g id="Capa_1" focusable="false" class="st0">
	<path class="st1" d="M464,64H48C21.5,64,0,85.5,0,112v288c0,26.5,21.5,48,48,48h416c26.5,0,48-21.5,48-48V112
		C512,85.5,490.5,64,464,64z M464,112v40.8c-22.4,18.3-58.2,46.7-134.6,106.5c-16.8,13.2-50.2,45.1-73.4,44.7
		c-23.2,0.4-56.6-31.5-73.4-44.7C106.2,199.5,70.4,171.1,48,152.8V112H464z M48,400V214.4c22.9,18.3,55.4,43.9,104.9,82.6
		c21.9,17.2,60.1,55.2,103.1,55c42.7,0.2,80.5-37.2,103.1-54.9c49.5-38.8,82-64.4,104.9-82.7V400H48z"/>
</g>
<g id="Capa_2">
	<path class="st2" d="M476.8,435.7H35.2c-10.6,0-19.2-8.6-19.2-19.2v-321c0-10.6,8.6-19.2,19.2-19.2h441.6
		c10.6,0,19.2,8.6,19.2,19.2v321C496,427.1,487.4,435.7,476.8,435.7z"/>
	<g>
		<path class="st2" d="M484.6,83.6c-2.4,3.8-5.2,7.4-8.5,10.7l-178,178c-23.1,23.1-61,23.1-84.1,0l-178-178
			c-3.3-3.3-6.1-6.9-8.5-10.7"/>
		<line class="st3" x1="484.6" y1="83.6" x2="27.4" y2="83.6"/>
	</g>
	<g>
		<path class="st2" d="M317.1,253.3l159,159c3.3,3.3,6.1,6.9,8.5,10.7"/>
		<path class="st2" d="M195.9,252.3l-160,160c-3.3,3.3-6.1,6.9-8.5,10.7"/>
		<line class="st3" x1="484.6" y1="423" x2="27.4" y2="423"/>
	</g>
</g>
</svg>
