<svg width="332" height="332" viewBox="0 0 332 332" fill="none" xmlns="http://www.w3.org/2000/svg">
<path d="M90.0115 31.2993C80.8053 31.2993 72.3957 36.2073 66.4637 44.1573C60.551 52.0814 57.3747 62.5905 57.3747 73.3438V110.406C57.3747 119.117 55.3949 132.141 49.6715 142.794C44.0635 153.233 35.1525 161.018 20.8746 161.018C18.1231 161.018 15.8926 163.248 15.8926 166C15.8926 168.751 18.1231 170.982 20.8746 170.982C26.63 170.982 35.7191 173.349 43.3415 180.704C50.8405 187.94 57.3747 200.452 57.3747 221.594V258.656C57.3747 269.409 60.551 279.918 66.4637 287.843C72.3957 295.793 80.8053 300.701 90.0115 300.701H96.9252C99.6767 300.701 101.907 298.47 101.907 295.718C101.907 292.967 99.6767 290.736 96.9252 290.736H90.0115C84.5463 290.736 78.8885 287.833 74.4496 281.884C69.9896 275.906 67.3388 267.561 67.3388 258.656V221.594C67.3388 198.261 60.046 182.976 50.2603 173.534C47.1317 170.515 43.7949 168.14 40.4418 166.308C48.5501 161.972 54.3868 155.072 58.4491 147.51C65.1704 134.999 67.3388 120.227 67.3388 110.406V73.3438C67.3388 64.4383 69.9896 56.0934 74.4496 50.1161C78.8885 44.1672 84.5463 41.2634 90.0115 41.2634H96.9252C99.6767 41.2634 101.907 39.0329 101.907 36.2814C101.907 33.5298 99.6767 31.2993 96.9252 31.2993H90.0115ZM234.081 31.2993C231.33 31.2993 229.099 33.5298 229.099 36.2814C229.099 39.0329 231.33 41.2634 234.081 41.2634H240.995C246.46 41.2634 252.118 44.1672 256.557 50.1161C261.017 56.0934 263.668 64.4383 263.668 73.3438V110.406C263.668 120.227 265.836 134.999 272.558 147.51C276.62 155.072 282.457 161.972 290.565 166.308C287.212 168.14 283.875 170.515 280.746 173.534C270.961 182.976 263.668 198.261 263.668 221.594V258.656C263.668 267.561 261.017 275.906 256.557 281.884C252.118 287.833 246.46 290.736 240.995 290.736H234.081C231.33 290.736 229.099 292.967 229.099 295.718C229.099 298.47 231.33 300.701 234.081 300.701H240.995C250.201 300.701 258.611 295.793 264.543 287.843C270.455 279.918 273.632 269.409 273.632 258.656V221.594C273.632 200.452 280.166 187.94 287.665 180.704C295.288 173.349 304.377 170.982 310.132 170.982C312.884 170.982 315.114 168.751 315.114 166C315.114 163.248 312.884 161.018 310.132 161.018C295.854 161.018 286.943 153.233 281.335 142.794C275.612 132.141 273.632 119.117 273.632 110.406V73.3438C273.632 62.5904 270.455 52.0813 264.543 44.1573C258.611 36.2073 250.201 31.2993 240.995 31.2993H234.081Z" stroke="#537959" stroke-opacity="0.1" stroke-width="4" stroke-linecap="round" stroke-linejoin="round"/>
</svg>
