<svg width="426" height="426" viewBox="0 0 426 426" fill="none" xmlns="http://www.w3.org/2000/svg">
<mask id="path-1-inside-1_207_123" fill="white">
<path d="M420.725 121.95C418.521 119.286 415.755 117.14 412.624 115.667C409.493 114.195 406.075 113.431 402.614 113.431H402.001H402.036H341.767L358.476 32.2128C359.308 28.6222 359.319 24.8901 358.506 21.2949C357.693 17.6997 356.078 14.3341 353.782 11.449L353.817 11.5015C351.604 8.83904 348.831 6.69677 345.694 5.2273C342.558 3.75783 339.136 2.99733 335.671 3.00001H335.093H335.128C319.365 3.5073 306.351 14.6327 302.988 29.414L302.935 29.6414L298.399 51.7172C298.259 52.277 298.014 52.8018 297.891 53.3615L285.49 113.449H184.025L200.735 32.2303C201.567 28.6396 201.577 24.9076 200.764 21.3124C199.952 17.7172 198.337 14.3516 196.04 11.4665L196.075 11.519C193.863 8.85653 191.09 6.71426 187.953 5.24479C184.817 3.77532 181.394 3.01483 177.93 3.0175H177.352H177.387C161.623 3.52479 148.609 14.6502 145.247 29.4315L145.194 29.6589L140.465 52.6268C140.465 52.8892 140.29 53.1166 140.237 53.3615L127.942 113.449H62.3123C46.5487 113.956 33.5349 125.064 30.1545 139.845L30.1019 140.073C29.2643 143.665 29.2498 147.4 30.0596 150.998C30.8693 154.596 32.4824 157.966 34.7785 160.854L34.7435 160.802C39.0872 166.015 45.5853 169.321 52.8716 169.321H53.4671H53.4321H116.434L98.5336 256.259H32.8343C17.0707 256.767 4.05691 267.892 0.676489 282.673L0.623943 282.901C-0.200307 286.485 -0.208006 290.209 0.601414 293.797C1.41083 297.384 3.01671 300.745 5.30049 303.63L5.26546 303.577C9.62673 308.79 16.1248 312.096 23.4112 312.096H24.0067H23.9716H86.9736L70.1591 393.752C69.3266 397.343 69.3164 401.075 70.1291 404.67C70.9419 408.265 72.5567 411.631 74.8531 414.516L74.8181 414.464C79.1794 419.676 85.6775 422.983 92.9638 422.983H93.5418H93.5068C101.035 422.745 108.273 420.024 114.091 415.246C119.908 410.468 123.978 403.9 125.665 396.569L125.717 396.341L143.057 312.131H244.575L227.76 393.787C226.928 397.378 226.918 401.11 227.73 404.705C228.543 408.3 230.158 411.666 232.454 414.551L232.419 414.499C236.781 419.711 243.279 423 250.565 423H251.143H251.108C258.635 422.764 265.872 420.044 271.687 415.265C277.502 410.486 281.568 403.918 283.248 396.586L283.301 396.359L300.641 312.149H363.695C371.222 311.912 378.458 309.194 384.275 304.419C390.092 299.644 394.163 293.08 395.853 285.752L395.906 285.525C396.769 281.939 396.802 278.204 396.004 274.603C395.206 271.002 393.597 267.63 391.299 264.743L391.334 264.796C389.119 262.131 386.343 259.986 383.204 258.513C380.065 257.041 376.639 256.277 373.171 256.277H372.541H372.576H312.201L330.101 169.338H393.156C400.684 169.1 407.922 166.38 413.74 161.602C419.557 156.823 423.627 150.256 425.314 142.924L425.366 142.697C426.2 139.103 426.211 135.368 425.398 131.77C424.586 128.172 422.97 124.803 420.672 121.915L420.707 121.968L420.725 121.95ZM154.652 256.207L172.553 169.268H274.07L256.17 256.207H154.652Z"/>
</mask>
<path d="M420.725 121.95C418.521 119.286 415.755 117.14 412.624 115.667C409.493 114.195 406.075 113.431 402.614 113.431H402.001H402.036H341.767L358.476 32.2128C359.308 28.6222 359.319 24.8901 358.506 21.2949C357.693 17.6997 356.078 14.3341 353.782 11.449L353.817 11.5015C351.604 8.83904 348.831 6.69677 345.694 5.2273C342.558 3.75783 339.136 2.99733 335.671 3.00001H335.093H335.128C319.365 3.5073 306.351 14.6327 302.988 29.414L302.935 29.6414L298.399 51.7172C298.259 52.277 298.014 52.8018 297.891 53.3615L285.49 113.449H184.025L200.735 32.2303C201.567 28.6396 201.577 24.9076 200.764 21.3124C199.952 17.7172 198.337 14.3516 196.04 11.4665L196.075 11.519C193.863 8.85653 191.09 6.71426 187.953 5.24479C184.817 3.77532 181.394 3.01483 177.93 3.0175H177.352H177.387C161.623 3.52479 148.609 14.6502 145.247 29.4315L145.194 29.6589L140.465 52.6268C140.465 52.8892 140.29 53.1166 140.237 53.3615L127.942 113.449H62.3123C46.5487 113.956 33.5349 125.064 30.1545 139.845L30.1019 140.073C29.2643 143.665 29.2498 147.4 30.0596 150.998C30.8693 154.596 32.4824 157.966 34.7785 160.854L34.7435 160.802C39.0872 166.015 45.5853 169.321 52.8716 169.321H53.4671H53.4321H116.434L98.5336 256.259H32.8343C17.0707 256.767 4.05691 267.892 0.676489 282.673L0.623943 282.901C-0.200307 286.485 -0.208006 290.209 0.601414 293.797C1.41083 297.384 3.01671 300.745 5.30049 303.63L5.26546 303.577C9.62673 308.79 16.1248 312.096 23.4112 312.096H24.0067H23.9716H86.9736L70.1591 393.752C69.3266 397.343 69.3164 401.075 70.1291 404.67C70.9419 408.265 72.5567 411.631 74.8531 414.516L74.8181 414.464C79.1794 419.676 85.6775 422.983 92.9638 422.983H93.5418H93.5068C101.035 422.745 108.273 420.024 114.091 415.246C119.908 410.468 123.978 403.9 125.665 396.569L125.717 396.341L143.057 312.131H244.575L227.76 393.787C226.928 397.378 226.918 401.11 227.73 404.705C228.543 408.3 230.158 411.666 232.454 414.551L232.419 414.499C236.781 419.711 243.279 423 250.565 423H251.143H251.108C258.635 422.764 265.872 420.044 271.687 415.265C277.502 410.486 281.568 403.918 283.248 396.586L283.301 396.359L300.641 312.149H363.695C371.222 311.912 378.458 309.194 384.275 304.419C390.092 299.644 394.163 293.08 395.853 285.752L395.906 285.525C396.769 281.939 396.802 278.204 396.004 274.603C395.206 271.002 393.597 267.63 391.299 264.743L391.334 264.796C389.119 262.131 386.343 259.986 383.204 258.513C380.065 257.041 376.639 256.277 373.171 256.277H372.541H372.576H312.201L330.101 169.338H393.156C400.684 169.1 407.922 166.38 413.74 161.602C419.557 156.823 423.627 150.256 425.314 142.924L425.366 142.697C426.2 139.103 426.211 135.368 425.398 131.77C424.586 128.172 422.97 124.803 420.672 121.915L420.707 121.968L420.725 121.95ZM154.652 256.207L172.553 169.268H274.07L256.17 256.207H154.652Z" stroke="#537959" stroke-opacity="0.1" stroke-width="10" mask="url(#path-1-inside-1_207_123)"/>
</svg>
