<svg width="419" height="419" viewBox="0 0 419 419" fill="none" xmlns="http://www.w3.org/2000/svg">
<path d="M310.76 209.496C310.754 191.241 305.814 173.327 296.463 157.65C287.111 141.973 273.695 129.115 257.635 120.438C241.574 111.761 223.467 107.586 205.228 108.356C186.99 109.127 169.299 114.813 154.028 124.814C138.756 134.814 126.472 148.757 118.475 165.167C110.479 181.577 107.067 199.844 108.601 218.034C110.135 236.224 116.558 253.661 127.19 268.5C136.002 280.8 147.435 290.935 160.618 298.202V331.708C160.618 339.422 166.871 345.675 174.585 345.675H244.418C252.131 345.675 258.385 339.422 258.385 331.708V298.201C272.824 290.24 285.144 278.847 294.225 264.972C305.016 248.483 310.763 229.204 310.76 209.498M223.468 34.9164C223.468 27.2028 217.215 20.9497 209.501 20.9497C201.788 20.9497 195.535 27.2028 195.535 34.9164V52.3747C195.535 60.0883 201.788 66.3414 209.501 66.3414C217.215 66.3414 223.468 60.0883 223.468 52.3747V34.9164ZM88.4396 68.6863C82.9853 63.232 74.1421 63.232 68.6877 68.6863C63.2334 74.1406 63.2334 82.9838 68.6877 88.4381L86.1461 105.896C91.6004 111.351 100.444 111.351 105.898 105.896C111.352 100.442 111.352 91.5989 105.898 86.1446L88.4396 68.6863ZM350.315 88.4381C355.769 82.9838 355.769 74.1406 350.315 68.6863C344.86 63.232 336.017 63.232 330.563 68.6863L313.104 86.1446C307.65 91.5989 307.65 100.442 313.104 105.896C318.559 111.351 327.402 111.351 332.856 105.896L350.315 88.4381ZM282.826 209.504C282.828 223.774 278.667 237.735 270.852 249.676C263.037 261.617 251.908 271.019 238.83 276.729C233.741 278.951 230.451 283.976 230.451 289.529V317.741H188.551V289.529C188.551 283.975 185.261 278.949 180.171 276.728C168.056 271.44 157.595 262.976 149.896 252.231C142.197 241.485 137.546 228.858 136.436 215.686C135.325 202.514 137.795 189.287 143.586 177.404C149.377 165.521 158.272 155.424 169.331 148.182C180.389 140.94 193.2 136.823 206.407 136.265C219.614 135.707 232.726 138.73 244.356 145.014C255.986 151.297 265.701 160.608 272.473 171.96C279.245 183.312 282.822 196.284 282.826 209.502V209.504ZM34.9178 195.533C27.2043 195.533 20.9512 201.786 20.9512 209.5C20.9512 217.213 27.2043 223.466 34.9178 223.466H52.3762C60.0897 223.466 66.3428 217.213 66.3428 209.5C66.3428 201.786 60.0897 195.533 52.3762 195.533H34.9178ZM366.626 195.533C358.913 195.533 352.66 201.786 352.66 209.5C352.66 217.213 358.913 223.466 366.626 223.466H384.085C391.798 223.466 398.051 217.213 398.051 209.5C398.051 201.786 391.798 195.533 384.085 195.533H366.626ZM174.585 370.116C166.871 370.116 160.618 376.369 160.618 384.083C160.618 391.797 166.871 398.05 174.585 398.05H244.418C252.131 398.05 258.385 391.797 258.385 384.083C258.385 376.369 252.131 370.116 244.418 370.116H174.585Z" stroke="#537959" stroke-opacity="0.1" stroke-width="4" stroke-linecap="round" stroke-linejoin="round"/>
</svg>
