<svg width="65" height="65" viewBox="0 0 65 65" fill="none" xmlns="http://www.w3.org/2000/svg">
<path d="M47.9342 45.2785L25.3549 41.1524L47.9342 45.2785ZM47.9342 45.2785L25.3549 41.1524L26.3763 41.2868C21.968 40.9374 18.393 37.1339 18.393 32.5777V30.723L18.3392 31.3278C18.3392 26.0727 23.2851 21.8122 29.3869 21.8122C29.8036 21.8122 30.2202 21.8391 30.6368 21.8794L29.5348 21.8122H37.4509C43.3646 21.8122 48.1895 26.6506 48.1895 32.5643C48.1895 32.7927 48.1761 33.0078 48.1626 33.2363L48.082 30.7095V48.773C48.082 54.4312 43.4586 59.0546 37.8004 59.0546H28.5267C22.8685 59.0546 18.2451 54.4312 18.2451 48.773V18.2641C18.2451 12.6058 22.8685 7.98242 28.5267 7.98242H36.1338" stroke="#8FAE94" stroke-width="4.51559" stroke-miterlimit="10"/>
</svg>
